<?xml version="1.0" encoding="utf-8"?>
<!-- Generator: Adobe Illustrator 24.2.3, SVG Export Plug-In . SVG Version: 6.00 Build 0)  -->
<svg version="1.1" id="Layer_1" xmlns="http://www.w3.org/2000/svg" xmlns:xlink="http://www.w3.org/1999/xlink" x="0px" y="0px"
	 viewBox="0 0 38 24" style="enable-background:new 0 0 38 24;" xml:space="preserve">
<style type="text/css">
	.st0{fill:#6E5F00;}
	.st1{fill:#FFFFFF;}
	.st2{fill:#EFEBCD;}
	.st3{fill:#6C3200;}
	.st4{fill:#FFDD00;}
	.st5{fill:#FFED85;}
	.st6{fill:#FF7700;}
	.st7{fill:#DFC200;}
	.st8{fill:#4781E5;}
	.st9{fill:#EFD420;}
	.st10{fill:#A1BAE5;}
</style>
<g>
	<rect x="19" class="st0" width="9" height="1"/>
	<rect x="34" y="6" class="st1" width="1" height="1"/>
	<polygon class="st0" points="43,8 43,8 43,9 	"/>
	<rect x="19" class="st0" width="9" height="1"/>
	<rect x="17" y="1" class="st0" width="2" height="1"/>
	<rect x="16" y="2" class="st0" width="1" height="1"/>
	<rect x="15" y="3" class="st0" width="1" height="1"/>
	<rect x="14" y="4" class="st0" width="1" height="1"/>
	<rect x="28" y="9" class="st2" width="3" height="5"/>
	<rect x="27" y="10" class="st2" width="5" height="3"/>
	<rect x="16" y="9" class="st2" width="3" height="5"/>
	<rect x="15" y="10" class="st2" width="5" height="3"/>
	<rect x="16" y="9" class="st2" width="3" height="5"/>
	<rect x="28" y="9" class="st2" width="3" height="5"/>
	<rect x="27" y="10" class="st2" width="5" height="3"/>
	<rect x="19" class="st0" width="9" height="1"/>
	<rect x="19" y="23" class="st0" width="9" height="1"/>
	<rect x="28" y="22" class="st0" width="2" height="1"/>
	<rect x="30" y="21" class="st0" width="1" height="1"/>
	<rect x="31" y="20" class="st0" width="1" height="1"/>
	<rect x="17" y="22" class="st0" width="2" height="1"/>
	<rect x="15" y="21" class="st0" width="2" height="1"/>
	<rect x="12" y="20" class="st0" width="4" height="1"/>
	<rect x="11" y="19" class="st0" width="1" height="1"/>
	<rect x="3" y="18" class="st0" width="8" height="1"/>
	<rect y="16" class="st0" width="1" height="1"/>
	<rect y="17" class="st0" width="3" height="1"/>
	<rect x="1" y="15" class="st0" width="7" height="1"/>
	<path class="st0" d="M12,7L12,7c0,0,0.1,0.6,1,0.8V11c-0.8,0.1-0.7,0.3-0.7,0.5c0,0.6-0.1,1.2-0.2,1.8c0,0.1-0.1,0.1,0.9,0.2V15
		l0,0V7H12z"/>
	<rect x="13" y="5" class="st0" width="1" height="2"/>
	<rect x="14" y="4" class="st0" width="1" height="1"/>
	<rect x="15" y="3" class="st0" width="1" height="1"/>
	<rect x="16" y="2" class="st0" width="1" height="1"/>
	<rect x="17" y="1" class="st0" width="2" height="1"/>
	<rect x="28" y="1" class="st0" width="2" height="1"/>
	<rect x="30" y="2" class="st0" width="1" height="1"/>
	<rect x="31" y="3" class="st0" width="1" height="1"/>
	<rect x="32" y="4" class="st0" width="1" height="1"/>
	<rect x="33" y="5" class="st0" width="1" height="1"/>
	<rect x="33" y="6" class="st0" width="1" height="1"/>
	<rect x="34" y="7" class="st0" width="1" height="8"/>
	<rect x="26" y="10" class="st0" width="1" height="3"/>
	<rect x="28" y="14" class="st0" width="2" height="1"/>
	<rect x="31" y="13" class="st0" width="1" height="1"/>
	<rect x="27" y="13" class="st0" width="1" height="1"/>
	<rect x="32" y="10" class="st0" width="1" height="3"/>
	<rect x="31" y="9" class="st0" width="1" height="1"/>
	<rect x="28" y="8" class="st0" width="3" height="1"/>
	<rect x="27" y="9" class="st0" width="1" height="1"/>
	<rect x="20" y="10" class="st0" width="1" height="3"/>
	<rect x="14" y="10" class="st0" width="1" height="3"/>
	<rect x="16" y="8" class="st0" width="3" height="1"/>
	<rect x="17" y="14" class="st0" width="2" height="1"/>
	<rect x="19" y="13" class="st0" width="1" height="1"/>
	<rect x="15" y="13" class="st0" width="1" height="1"/>
	<rect x="15" y="9" class="st0" width="1" height="1"/>
	<rect x="19" y="9" class="st3" width="1" height="1"/>
	<rect x="35" y="13" class="st3" width="2" height="1"/>
	<rect x="37" y="11" class="st3" width="1" height="2"/>
	<rect x="35" y="10" class="st3" width="2" height="1"/>
	<rect x="25" y="10" class="st3" width="1" height="1"/>
	<rect x="26" y="9" class="st3" width="1" height="1"/>
	<rect x="27" y="8" class="st3" width="1" height="1"/>
	<rect x="28" y="7" class="st3" width="2" height="1"/>
	<rect x="21" y="10" class="st3" width="1" height="1"/>
	<rect x="19" y="9" class="st3" width="2" height="1"/>
	<rect x="19" y="8" class="st3" width="1" height="1"/>
	<rect x="17" y="7" class="st3" width="2" height="1"/>
	<rect x="22" y="15" class="st3" width="3" height="1"/>
	<rect x="26" y="17" class="st3" width="4" height="1"/>
	<rect x="18" y="16" class="st3" width="1" height="3"/>
	<rect x="19" y="17" class="st3" width="2" height="1"/>
	<rect x="28" y="16" class="st3" width="1" height="2"/>
	<rect x="21" y="20" class="st3" width="5" height="1"/>
	<rect x="21" y="18" class="st3" width="5" height="1"/>
	<rect x="26" y="19" class="st3" width="2" height="1"/>
	<rect x="19" y="19" class="st3" width="2" height="1"/>
	<rect x="28" y="18" class="st3" width="1" height="1"/>
	<rect x="17" y="17" class="st3" width="1" height="1"/>
	<rect x="35" y="10" class="st3" width="2" height="1"/>
	<rect x="37" y="11" class="st3" width="1" height="2"/>
	<rect x="35" y="13" class="st4" width="2" height="1"/>
	<rect x="19" y="2" class="st4" width="9" height="4"/>
	<rect x="23" y="6" class="st4" width="1" height="1"/>
	<rect x="15" y="6" class="st4" width="6" height="1"/>
	<rect x="26" y="6" class="st4" width="6" height="1"/>
	<rect x="28" y="3" class="st4" width="2" height="3"/>
	<rect x="30" y="5" class="st4" width="2" height="1"/>
	<rect x="30" y="4" class="st4" width="1" height="1"/>
	<rect x="17" y="3" class="st4" width="2" height="3"/>
	<rect x="16" y="4" class="st4" width="1" height="2"/>
	<rect x="15" y="5" class="st4" width="1" height="1"/>
	<rect x="14" y="7" class="st4" width="2" height="1"/>
	<rect x="13" y="8" class="st4" width="2" height="1"/>
	<rect x="31" y="7" class="st4" width="2" height="1"/>
	<rect x="32" y="8" class="st4" width="2" height="1"/>
	<rect x="17" y="18" class="st4" width="1" height="2"/>
	<rect x="18" y="19" class="st4" width="1" height="1"/>
	<rect x="19" y="20" class="st4" width="2" height="1"/>
	<rect x="26" y="20" class="st4" width="2" height="1"/>
	<rect x="28" y="19" class="st4" width="2" height="1"/>
	<rect x="29" y="18" class="st4" width="2" height="1"/>
	<rect x="1" y="16" class="st3" width="2" height="1"/>
	<rect x="35" y="13" class="st3" width="2" height="1"/>
	<rect x="27" y="10" class="st2" width="5" height="3"/>
	<rect x="28" y="9" class="st2" width="3" height="5"/>
	<rect x="16" y="9" class="st2" width="3" height="5"/>
	<rect x="15" y="10" class="st2" width="5" height="3"/>
	<rect x="27" y="15" class="st2" width="2" height="1"/>
	<rect x="18" y="15" class="st2" width="2" height="1"/>
	<rect x="19" y="16" class="st2" width="9" height="1"/>
	<rect x="21" y="17" class="st2" width="5" height="1"/>
	<rect x="3" y="17" class="st2" width="8" height="1"/>
	<rect x="11" y="18" class="st2" width="1" height="1"/>
	<rect x="12" y="19" class="st4" width="1" height="1"/>
	<rect x="1" y="16" width="2" height="1"/>
	<rect x="28" y="11" width="2" height="1"/>
	<rect x="1" y="16" class="st4" width="2" height="1"/>
	<rect x="17" y="11" width="2" height="1"/>
	<rect x="19" y="1" class="st5" width="9" height="1"/>
	<rect x="28" y="2" class="st5" width="2" height="1"/>
	<rect x="17" y="2" class="st5" width="2" height="1"/>
	<rect x="16" y="3" class="st5" width="1" height="1"/>
	<rect x="15" y="4" class="st5" width="1" height="1"/>
	<rect x="14" y="5" class="st5" width="1" height="2"/>
	<rect x="13" y="7" class="st5" width="1" height="1"/>
	<rect x="28" y="2" class="st5" width="2" height="1"/>
	<rect x="30" y="3" class="st5" width="1" height="1"/>
	<rect x="31" y="4" class="st5" width="1" height="1"/>
	<rect x="32" y="5" class="st5" width="1" height="2"/>
	<rect x="33" y="7" class="st5" width="1" height="1"/>
	<rect x="35" y="11" class="st6" width="2" height="2"/>
	<rect x="21" y="19" class="st6" width="5" height="1"/>
	<rect x="26" y="18" class="st6" width="2" height="1"/>
	<rect x="19" y="18" class="st4" width="2" height="1"/>
	<rect x="13" y="14" class="st4" width="1" height="1"/>
	<rect x="22" y="7" class="st7" width="1" height="2"/>
	<rect x="23" y="9" class="st7" width="1" height="1"/>
	<rect x="24" y="7" class="st7" width="1" height="2"/>
	<rect x="13" y="10" class="st7" width="1" height="3"/>
	<rect x="14" y="9" class="st7" width="1" height="1"/>
	<rect x="14" y="13" class="st7" width="1" height="1"/>
	<rect x="33" y="10" class="st7" width="1" height="3"/>
	<rect x="32" y="9" class="st7" width="1" height="1"/>
	<rect x="32" y="13" class="st7" width="1" height="1"/>
	<rect x="30" y="20" class="st7" width="1" height="1"/>
	<rect x="28" y="21" class="st7" width="2" height="1"/>
	<rect x="19" y="22" class="st7" width="9" height="1"/>
	<rect x="17" y="21" class="st7" width="2" height="1"/>
	<rect x="16" y="20" class="st7" width="1" height="1"/>
	<rect x="31" y="15" class="st8" width="5" height="1"/>
	<rect x="30" y="14" class="st8" width="1" height="1"/>
	<rect x="32" y="19" class="st8" width="2" height="1"/>
	<rect x="34" y="18" class="st8" width="1" height="1"/>
	<rect x="35" y="15" class="st8" width="1" height="3"/>
	<rect x="31" y="18" class="st8" width="1" height="1"/>
	<rect x="30" y="17" class="st8" width="1" height="1"/>
	<rect x="29" y="15" class="st8" width="1" height="2"/>
	<rect x="16" y="14" class="st8" width="1" height="1"/>
	<rect x="17" y="15" class="st8" width="1" height="1"/>
	<rect x="17" y="16" class="st8" width="1" height="1"/>
	<rect x="15" y="18" class="st8" width="1" height="1"/>
	<rect x="16" y="17" class="st8" width="1" height="1"/>
	<rect x="13" y="19" class="st8" width="2" height="1"/>
	<rect x="12" y="18" class="st8" width="1" height="1"/>
	<rect x="11" y="15" class="st8" width="1" height="3"/>
	<rect x="11" y="15" class="st8" width="5" height="1"/>
	<rect x="15" y="18" class="st8" width="1" height="1"/>
	<rect x="12" y="18" class="st8" width="1" height="1"/>
	<rect x="13" y="19" class="st8" width="2" height="1"/>
	<rect x="25" y="12" class="st8" width="1" height="1"/>
	<rect x="24" y="13" class="st8" width="1" height="2"/>
	<rect x="25" y="15" class="st8" width="2" height="1"/>
	<rect x="27" y="14" class="st8" width="1" height="1"/>
	<polygon class="st8" points="26,13 26,13 26,14 	"/>
	<rect x="20" y="15" class="st8" width="2" height="1"/>
	<rect x="22" y="13" class="st8" width="1" height="2"/>
	<rect x="20" y="13" class="st8" width="1" height="1"/>
	<rect x="19" y="14" class="st8" width="1" height="1"/>
	<rect x="21" y="12" class="st8" width="1" height="1"/>
	<rect x="26" y="13" class="st8" width="1" height="1"/>
	<rect x="13" y="9" class="st9" width="1" height="1"/>
	<rect x="13" y="13" class="st9" width="1" height="1"/>
	<rect x="14" y="14" class="st9" width="2" height="1"/>
	<rect x="14" y="8" class="st9" width="2" height="1"/>
	<rect x="16" y="7" class="st9" width="1" height="1"/>
	<rect x="31" y="14" class="st9" width="2" height="1"/>
	<rect x="33" y="13" class="st9" width="1" height="1"/>
	<rect x="33" y="9" class="st9" width="1" height="1"/>
	<rect x="31" y="8" class="st9" width="2" height="1"/>
	<rect x="30" y="7" class="st9" width="1" height="1"/>
	<rect x="19" y="7" class="st9" width="3" height="1"/>
	<rect x="22" y="10" class="st9" width="3" height="3"/>
	<rect x="23" y="13" class="st9" width="1" height="2"/>
	<rect x="21" y="11" class="st9" width="1" height="1"/>
	<rect x="25" y="11" class="st9" width="1" height="1"/>
	<path class="st9" d="M24,9h2H24z"/>
	<rect x="25" y="6" class="st9" width="1" height="3"/>
	<rect x="20" y="8" class="st9" width="2" height="1"/>
	<rect x="21" y="9" class="st9" width="1" height="1"/>
	<rect x="24" y="9" class="st9" width="2" height="1"/>
	<rect x="22" y="9" class="st9" width="1" height="1"/>
	<rect x="23" y="7" class="st9" width="1" height="2"/>
	<rect x="24" y="6" class="st9" width="1" height="1"/>
	<rect x="21" y="6" class="st9" width="2" height="1"/>
	<rect x="26" y="7" class="st9" width="2" height="1"/>
	<rect x="26" y="8" class="st9" width="1" height="1"/>
	<rect x="15" y="19" class="st9" width="2" height="1"/>
	<rect x="30" y="19" class="st9" width="2" height="1"/>
	<rect x="17" y="20" class="st9" width="2" height="1"/>
	<rect x="28" y="20" class="st9" width="2" height="1"/>
	<rect x="19" y="21" class="st9" width="9" height="1"/>
	<rect x="3" y="16" class="st9" width="2" height="1"/>
	<rect x="5" y="16" class="st7" width="2" height="1"/>
	<rect x="33" y="14" class="st9" width="1" height="1"/>
	<rect x="10" y="15" class="st4" width="1" height="1"/>
	<rect x="8" y="15" class="st4" width="2" height="2"/>
	<rect x="10" y="16" class="st4" width="1" height="1"/>
	<rect x="16" y="18" class="st4" width="1" height="1"/>
	<rect x="25" y="13" class="st10" width="1" height="2"/>
	<rect x="21" y="13" class="st10" width="1" height="2"/>
	<rect x="20" y="14" class="st10" width="2" height="1"/>
	<rect x="25" y="14" class="st10" width="2" height="1"/>
	<rect x="30" y="15" class="st10" width="1" height="2"/>
	<rect x="31" y="17" class="st10" width="4" height="1"/>
	<rect x="31" y="16" class="st10" width="4" height="1"/>
	<rect x="12" y="16" class="st10" width="4" height="2"/>
	<rect x="16" y="15" class="st10" width="1" height="2"/>
	<rect x="13" y="18" class="st10" width="2" height="1"/>
	<rect x="32" y="18" class="st10" width="2" height="1"/>
	<rect x="19" y="18" class="st6" width="2" height="1"/>
	<rect x="5" y="16" class="st0" width="1" height="1"/>
	<rect x="7" y="14" class="st0" width="1" height="1"/>
	<rect x="8" y="14" class="st0" width="1" height="1"/>
	<rect x="8" y="13" class="st0" width="4" height="1"/>
	<rect x="8" y="12" class="st0" width="1" height="1"/>
	<rect x="9" y="9" class="st0" width="1" height="3"/>
	<rect x="10" y="8" class="st0" width="1" height="1"/>
	<rect x="11" y="7" class="st0" width="1" height="1"/>
	<rect x="12" y="6" class="st0" width="1" height="1"/>
	<rect x="11" y="8" class="st4" width="1" height="5"/>
	<rect x="10" y="9" class="st4" width="1" height="4"/>
	<rect x="9" y="12" class="st4" width="1" height="1"/>
	<rect x="6" y="17" class="st0" width="1" height="1"/>
	<rect x="7" y="17" class="st7" width="2" height="1"/>
	<rect x="9" y="18" class="st7" width="2" height="1"/>
	<rect x="11" y="20" class="st0" width="1" height="1"/>
	<rect x="9" y="19" class="st0" width="2" height="1"/>
	<rect x="11" y="19" class="st7" width="2" height="1"/>
	<rect x="7" y="16" class="st5" width="4" height="1"/>
	<rect x="9" y="14" class="st5" width="3" height="1"/>
	<rect x="8" y="15" class="st5" width="3" height="1"/>
	<rect x="9" y="17" class="st5" width="2" height="1"/>
	<rect x="11" y="18" class="st5" width="1" height="1"/>
	<rect x="10" y="9" class="st5" width="1" height="3"/>
	<rect x="11" y="8" class="st5" width="1" height="1"/>
	<rect x="11" y="8" class="st5" width="1" height="2"/>
	<rect x="12" y="6" class="st0" width="1" height="9"/>
</g>
</svg>
