<?xml version="1.0" encoding="utf-8"?>
<!-- Generator: Adobe Illustrator 24.2.3, SVG Export Plug-In . SVG Version: 6.00 Build 0)  -->
<svg version="1.1" xmlns="http://www.w3.org/2000/svg" xmlns:xlink="http://www.w3.org/1999/xlink" x="0px" y="0px"
	 viewBox="0 0 38 24" style="enable-background:new 0 0 38 24;" xml:space="preserve">
<style type="text/css">
	.st0{fill:#8B5D2D;}
	.st1{fill:#FFCA92;}
	.st2{fill:#944100;}
	.st3{fill:#FF6F47;}
	.st4{fill:#F2D3CA;}
	.st5{fill:#FFB37A;}
	.st6{fill:#F04E28;}
	.st7{fill:#FFFFFF;}
	.st8{fill:#A9BAE9;}
	.st9{fill:#1A2B54;}
	.st10{fill:#BF00FF;}
	.st11{display:none;}
</style>
<g id="Layer_5">
	<g>
		<g>
			<g>
				<g>
					<polygon points="38,12 38,13 37,13 37,12 37,11 38,11 					"/>
					<polygon points="37,13 37,14 36,14 35,14 34,14 33,14 33,13 34,13 35,13 36,13 					"/>
					<polygon points="37,12 37,13 36,13 35,13 34,13 33,13 33,12 32,12 31,12 31,11 32,11 32,10 33,10 34,10 34,11 35,11 36,11 
						37,11 					"/>
					<polygon points="37,10 37,11 36,11 35,11 34,11 34,10 35,10 36,10 					"/>
					<polygon points="35,9 35,10 34,10 34,9 34,8 34,7 34,6 35,6 35,7 35,8 					"/>
					<rect x="33" y="14" width="1" height="1"/>
					<polygon points="34,9 34,10 33,10 32,10 32,9 33,9 					"/>
					<polygon points="34,8 34,9 33,9 32,9 32,10 31,10 31,11 30,11 30,12 30,13 29,13 29,14 28,14 27,14 26,14 26,13 25,13 25,12 
						25,11 26,11 27,11 28,11 28,10 29,10 29,9 28,9 28,8 28,7 27,7 26,7 25,7 24,7 23,7 23,8 22,8 21,8 20,8 20,7 19,7 19,6 20,6 
						20,5 21,5 22,5 22,4 23,4 23,3 24,3 25,3 26,3 26,2 27,2 28,2 28,3 29,3 30,3 31,3 31,4 32,4 33,4 33,5 33,6 34,6 34,7 					
						"/>
					<polygon points="34,5 34,6 33,6 33,5 33,4 34,4 					"/>
					<polygon points="33,17 33,18 32,18 32,17 32,16 32,15 33,15 33,16 					"/>
					<polygon points="33,14 33,15 32,15 32,16 32,17 32,18 31,18 31,19 31,20 30,20 30,21 29,21 28,21 28,22 27,22 26,22 26,23 
						25,23 24,23 23,23 22,23 21,23 20,23 19,23 19,22 18,22 17,22 17,21 16,21 15,21 15,20 14,20 13,20 12,20 12,19 11,19 11,18 
						10,18 9,18 8,18 7,18 6,18 5,18 4,18 3,18 3,17 4,17 5,17 6,17 7,17 8,17 9,17 10,17 11,17 12,17 13,17 13,18 14,18 15,18 
						16,18 17,18 18,18 19,18 19,19 20,19 21,19 22,19 23,19 24,19 25,19 25,18 26,18 27,18 27,17 28,17 28,16 29,16 30,16 30,15 
						31,15 31,14 32,14 					"/>
					<polygon points="33,13 33,14 32,14 31,14 30,14 30,15 29,15 28,15 28,16 27,16 27,17 26,17 25,17 25,18 24,18 23,18 22,18 
						21,18 21,17 22,17 23,17 23,16 24,16 24,15 25,15 25,14 25,13 26,13 26,14 27,14 28,14 29,14 29,13 30,13 31,13 32,13 					"/>
					<polygon points="33,12 33,13 32,13 31,13 30,13 30,12 30,11 31,11 31,12 32,12 					"/>
					<rect x="32" y="3" width="1" height="1"/>
					<polygon points="32,19 32,20 31,20 31,19 31,18 32,18 					"/>
					<rect x="31" y="10" width="1" height="1"/>
					<rect x="31" y="3" width="1" height="1"/>
					<rect x="31" y="2" width="1" height="1"/>
					<rect x="30" y="20" width="1" height="1"/>
					<rect x="30" y="14" width="1" height="1"/>
					<polygon points="31,2 31,3 30,3 29,3 28,3 28,2 27,2 26,2 26,3 25,3 24,3 23,3 23,4 22,4 22,5 21,5 20,5 20,6 19,6 19,7 18,7 
						18,6 17,6 16,6 16,5 17,5 18,5 19,5 19,4 20,4 20,3 21,3 22,3 22,2 23,2 24,2 24,1 25,1 26,1 27,1 28,1 29,1 29,2 30,2 					
						"/>
					<polygon points="31,1 31,2 30,2 29,2 29,1 30,1 					"/>
					<polygon points="30,21 30,22 29,22 28,22 28,21 29,21 					"/>
					<polygon points="30,15 30,16 29,16 28,16 28,15 29,15 					"/>
					<polygon points="29,9 29,10 28,10 28,11 27,11 26,11 26,10 26,9 26,8 27,8 28,8 28,9 					"/>
					<polygon points="29,0 29,1 28,1 27,1 26,1 25,1 24,1 24,0 25,0 26,0 27,0 28,0 					"/>
					<polygon points="28,22 28,23 27,23 26,23 26,22 27,22 					"/>
					<rect x="27" y="16" width="1" height="1"/>
					<polygon points="28,7 28,8 27,8 26,8 26,9 25,9 25,10 26,10 26,11 25,11 25,12 24,12 24,11 23,11 23,10 22,10 22,9 21,9 21,8 
						22,8 23,8 23,7 24,7 25,7 26,7 27,7 					"/>
					<polygon points="27,17 27,18 26,18 25,18 25,17 26,17 					"/>
					<polygon points="26,23 26,24 25,24 24,24 23,24 22,24 21,24 20,24 19,24 19,23 20,23 21,23 22,23 23,23 24,23 25,23 					"/>
					<rect x="25" y="9" width="1" height="1"/>
					<polygon points="25,18 25,19 24,19 23,19 22,19 21,19 20,19 19,19 19,18 18,18 17,18 16,18 15,18 14,18 13,18 13,17 12,17 
						11,17 10,17 9,17 8,17 8,16 8,15 9,15 9,14 10,14 10,15 11,15 12,15 13,15 14,15 14,16 15,16 16,16 17,16 18,16 19,16 20,16 
						21,16 22,16 23,16 23,17 22,17 21,17 21,18 22,18 23,18 24,18 					"/>
					<rect x="24" y="14" width="1" height="1"/>
					<polygon points="25,13 25,14 24,14 24,13 24,12 25,12 					"/>
					<rect x="23" y="15" width="1" height="1"/>
					<rect x="23" y="14" width="1" height="1"/>
					<polygon points="24,13 24,14 23,14 23,15 22,15 21,15 20,15 19,15 18,15 17,15 16,15 15,15 14,15 14,14 13,14 12,14 11,14 
						10,14 10,13 9,13 8,13 8,12 7,12 7,11 6,11 6,10 7,10 8,10 8,11 9,11 9,12 10,12 11,12 11,13 12,13 13,13 14,13 15,13 16,13 
						16,14 17,14 18,14 19,14 20,14 20,13 21,13 22,13 23,13 23,12 24,12 					"/>
					<rect x="23" y="11" width="1" height="1"/>
					<polygon points="24,1 24,2 23,2 22,2 22,1 23,1 					"/>
					<polygon points="23,15 23,16 22,16 21,16 20,16 19,16 18,16 17,16 16,16 15,16 14,16 14,15 15,15 16,15 17,15 18,15 19,15 
						20,15 21,15 22,15 					"/>
					<path d="M23,12v1h-1h-1h-1v1h-1h-1h-1h-1v-1h-1h-1h-1h-1h-1v-1h-1H9v-1H8v-1H7H6V9h1h1V8h1V7h1h1V6h1h1h1h1v1h1h1h1v1h1h1v1h1
						v1h1v1h1V12z M19,10V9h-1v1H19z"/>
					<rect x="22" y="10" width="1" height="1"/>
					<rect x="21" y="9" width="1" height="1"/>
					<polygon points="22,2 22,3 21,3 20,3 20,2 21,2 					"/>
					<rect x="20" y="8" width="1" height="1"/>
					<polygon points="20,7 20,8 19,8 18,8 18,7 19,7 					"/>
					<rect x="19" y="3" width="1" height="1"/>
					<polygon points="19,22 19,23 18,23 17,23 17,22 18,22 					"/>
					<rect x="18" y="9" width="1" height="1"/>
					<polygon points="19,4 19,5 18,5 17,5 16,5 16,4 17,4 18,4 					"/>
					<polygon points="18,6 18,7 17,7 16,7 15,7 15,6 14,6 13,6 12,6 11,6 11,5 12,5 13,5 14,5 15,5 16,5 16,6 17,6 					"/>
					<polygon points="17,21 17,22 16,22 15,22 15,21 16,21 					"/>
					<polygon points="15,20 15,21 14,21 13,21 12,21 12,20 13,20 14,20 					"/>
					<polygon points="14,14 14,15 13,15 12,15 11,15 10,15 10,14 11,14 12,14 13,14 					"/>
					<rect x="11" y="19" width="1" height="1"/>
					<polygon points="11,18 11,19 10,19 9,19 8,19 7,19 6,19 5,19 4,19 3,19 3,18 4,18 5,18 6,18 7,18 8,18 9,18 10,18 					"/>
					<polygon points="11,6 11,7 10,7 9,7 9,6 10,6 					"/>
					<polygon points="10,13 10,14 9,14 9,15 8,15 8,14 8,13 9,13 					"/>
					<rect x="8" y="7" width="1" height="1"/>
					<polygon points="8,16 8,17 7,17 7,16 6,16 5,16 4,16 3,16 2,16 1,16 1,15 2,15 3,15 4,15 5,15 6,15 7,15 8,15 					"/>
					<rect x="7" y="12" width="1" height="1"/>
					<polygon points="8,8 8,9 7,9 6,9 6,8 7,8 					"/>
					<polygon points="7,16 7,17 6,17 5,17 5,16 6,16 					"/>
					<rect x="6" y="11" width="1" height="1"/>
					<polygon points="6,10 6,11 5,11 5,10 5,9 6,9 					"/>
					<polygon points="5,16 5,17 4,17 3,17 2,17 1,17 1,16 2,16 3,16 4,16 					"/>
					<polygon points="3,17 3,18 2,18 1,18 0,18 0,17 0,16 1,16 1,17 2,17 					"/>
				</g>
			</g>
		</g>
		<rect x="26" y="11" width="3" height="1"/>
		<rect x="25" y="10" width="1" height="1"/>
		<rect x="24" y="8" width="3" height="1"/>
		<rect x="25" y="7" width="3" height="1"/>
		<rect x="28" y="8" width="1" height="1"/>
		<rect x="29" y="7" width="1" height="1"/>
		<rect x="26" y="6" width="3" height="1"/>
		<rect x="28" y="7" width="1" height="1"/>
		<rect x="30" y="6" width="1" height="1"/>
		<rect x="26" y="7" width="3" height="4"/>
		<rect x="26" y="9" width="1" height="1"/>
		<rect x="28" y="9" width="1" height="2"/>
		<rect x="27" y="10" width="1" height="1"/>
		<rect x="27" y="9" width="1" height="1"/>
		<rect x="26" y="7" width="1" height="2"/>
		<rect x="27" y="8" width="1" height="1"/>
		<rect x="28" y="7" width="1" height="1"/>
		<rect x="22" y="3" width="1" height="1"/>
		<rect x="23" y="3" width="1" height="1"/>
		<rect x="21" y="4" width="1" height="2"/>
		<rect x="24" y="4" width="1" height="2"/>
		<rect x="22" y="6" width="2" height="1"/>
		<rect x="22" y="4" width="2" height="2"/>
	</g>
	<g>
		<g>
			<g>
				<g>
					<polygon class="st0" points="38,12 38,13 37,13 37,12 37,11 38,11 					"/>
					<polygon class="st0" points="37,13 37,14 36,14 35,14 34,14 33,14 33,13 34,13 35,13 36,13 					"/>
					<polygon class="st1" points="37,12 37,13 36,13 35,13 34,13 33,13 33,12 32,12 31,12 31,11 32,11 32,10 33,10 34,10 34,11 
						35,11 36,11 37,11 					"/>
					<polygon class="st0" points="37,10 37,11 36,11 35,11 34,11 34,10 35,10 36,10 					"/>
					<polygon class="st2" points="35,9 35,10 34,10 34,9 34,8 34,7 34,6 35,6 35,7 35,8 					"/>
					<rect x="33" y="14" class="st2" width="1" height="1"/>
					<polygon class="st0" points="34,9 34,10 33,10 32,10 32,9 33,9 					"/>
					<polygon class="st3" points="34,8 34,9 33,9 32,9 32,10 31,10 31,11 30,11 30,12 30,13 29,13 29,14 28,14 27,14 26,14 26,13 
						25,13 25,12 25,11 26,11 27,11 28,11 28,10 29,10 29,9 28,9 28,8 28,7 27,7 26,7 25,7 24,7 23,7 23,8 22,8 21,8 20,8 20,7 
						19,7 19,6 20,6 20,5 21,5 22,5 22,4 23,4 23,3 24,3 25,3 26,3 26,2 27,2 28,2 28,3 29,3 30,3 31,3 31,4 32,4 33,4 33,5 33,6 
						34,6 34,7 					"/>
					<polygon class="st2" points="34,5 34,6 33,6 33,5 33,4 34,4 					"/>
					<polygon class="st2" points="33,17 33,18 32,18 32,17 32,16 32,15 33,15 33,16 					"/>
					<polygon class="st4" points="33,14 33,15 32,15 32,16 32,17 32,18 31,18 31,19 31,20 30,20 30,21 29,21 28,21 28,22 27,22 
						26,22 26,23 25,23 24,23 23,23 22,23 21,23 20,23 19,23 19,22 18,22 17,22 17,21 16,21 15,21 15,20 14,20 13,20 12,20 12,19 
						11,19 11,18 10,18 9,18 8,18 7,18 6,18 5,18 4,18 3,18 3,17 4,17 5,17 6,17 7,17 8,17 9,17 10,17 11,17 12,17 13,17 13,18 
						14,18 15,18 16,18 17,18 18,18 19,18 19,19 20,19 21,19 22,19 23,19 24,19 25,19 25,18 26,18 27,18 27,17 28,17 28,16 29,16 
						30,16 30,15 31,15 31,14 32,14 					"/>
					<polygon class="st3" points="33,13 33,14 32,14 31,14 30,14 30,15 29,15 28,15 28,16 27,16 27,17 26,17 25,17 25,18 24,18 
						23,18 22,18 21,18 21,17 22,17 23,17 23,16 24,16 24,15 25,15 25,14 25,13 26,13 26,14 27,14 28,14 29,14 29,13 30,13 31,13 
						32,13 					"/>
					<polygon class="st0" points="33,12 33,13 32,13 31,13 30,13 30,12 30,11 31,11 31,12 32,12 					"/>
					<rect x="32" y="3" class="st2" width="1" height="1"/>
					<polygon class="st2" points="32,19 32,20 31,20 31,19 31,18 32,18 					"/>
					<rect x="31" y="10" class="st0" width="1" height="1"/>
					<rect x="31" y="3" class="st5" width="1" height="1"/>
					<rect x="31" y="2" class="st2" width="1" height="1"/>
					<rect x="30" y="20" class="st2" width="1" height="1"/>
					<rect x="30" y="14" class="st6" width="1" height="1"/>
					<polygon class="st5" points="31,2 31,3 30,3 29,3 28,3 28,2 27,2 26,2 26,3 25,3 24,3 23,3 23,4 22,4 22,5 21,5 20,5 20,6 
						19,6 19,7 18,7 18,6 17,6 16,6 16,5 17,5 18,5 19,5 19,4 20,4 20,3 21,3 22,3 22,2 23,2 24,2 24,1 25,1 26,1 27,1 28,1 29,1 
						29,2 30,2 					"/>
					<polygon class="st2" points="31,1 31,2 30,2 29,2 29,1 30,1 					"/>
					<polygon class="st2" points="30,21 30,22 29,22 28,22 28,21 29,21 					"/>
					<polygon class="st6" points="30,15 30,16 29,16 28,16 28,15 29,15 					"/>
					<polygon points="29,9 29,10 28,10 28,11 27,11 26,11 26,10 26,9 26,8 27,8 28,8 28,9 					"/>
					<polygon class="st2" points="29,0 29,1 28,1 27,1 26,1 25,1 24,1 24,0 25,0 26,0 27,0 28,0 					"/>
					<polygon class="st2" points="28,22 28,23 27,23 26,23 26,22 27,22 					"/>
					<rect x="27" y="16" class="st6" width="1" height="1"/>
					<polygon class="st3" points="28,7 28,8 27,8 26,8 26,9 25,9 25,10 26,10 26,11 25,11 25,12 24,12 24,11 23,11 23,10 22,10 
						22,9 21,9 21,8 22,8 23,8 23,7 24,7 25,7 26,7 27,7 					"/>
					<polygon class="st6" points="27,17 27,18 26,18 25,18 25,17 26,17 					"/>
					<polygon class="st2" points="26,23 26,24 25,24 24,24 23,24 22,24 21,24 20,24 19,24 19,23 20,23 21,23 22,23 23,23 24,23 
						25,23 					"/>
					<rect x="25" y="9" class="st6" width="1" height="1"/>
					<polygon class="st6" points="25,18 25,19 24,19 23,19 22,19 21,19 20,19 19,19 19,18 18,18 17,18 16,18 15,18 14,18 13,18 
						13,17 12,17 11,17 10,17 9,17 8,17 8,16 8,15 9,15 9,14 10,14 10,15 11,15 12,15 13,15 14,15 14,16 15,16 16,16 17,16 18,16 
						19,16 20,16 21,16 22,16 23,16 23,17 22,17 21,17 21,18 22,18 23,18 24,18 					"/>
					<rect x="24" y="14" class="st6" width="1" height="1"/>
					<polygon class="st2" points="25,13 25,14 24,14 24,13 24,12 25,12 					"/>
					<rect x="23" y="15" class="st6" width="1" height="1"/>
					<rect x="23" y="14" class="st2" width="1" height="1"/>
					<polygon class="st6" points="24,13 24,14 23,14 23,15 22,15 21,15 20,15 19,15 18,15 17,15 16,15 15,15 14,15 14,14 13,14 
						12,14 11,14 10,14 10,13 9,13 8,13 8,12 7,12 7,11 6,11 6,10 7,10 8,10 8,11 9,11 9,12 10,12 11,12 11,13 12,13 13,13 14,13 
						15,13 16,13 16,14 17,14 18,14 19,14 20,14 20,13 21,13 22,13 23,13 23,12 24,12 					"/>
					<rect x="23" y="11" class="st2" width="1" height="1"/>
					<polygon class="st2" points="24,1 24,2 23,2 22,2 22,1 23,1 					"/>
					<polygon class="st2" points="23,15 23,16 22,16 21,16 20,16 19,16 18,16 17,16 16,16 15,16 14,16 14,15 15,15 16,15 17,15 
						18,15 19,15 20,15 21,15 22,15 					"/>
					<path class="st5" d="M23,12v1h-1h-1h-1v1h-1h-1h-1h-1v-1h-1h-1h-1h-1h-1v-1h-1H9v-1H8v-1H7H6V9h1h1V8h1V7h1h1V6h1h1h1h1v1h1h1
						h1v1h1h1v1h1v1h1v1h1V12z M19,10V9h-1v1H19z"/>
					<rect x="22" y="10" class="st2" width="1" height="1"/>
					<rect x="21" y="9" class="st2" width="1" height="1"/>
					<polygon class="st2" points="22,2 22,3 21,3 20,3 20,2 21,2 					"/>
					<rect x="20" y="8" class="st2" width="1" height="1"/>
					<polygon class="st2" points="20,7 20,8 19,8 18,8 18,7 19,7 					"/>
					<rect x="19" y="3" class="st2" width="1" height="1"/>
					<polygon class="st2" points="19,22 19,23 18,23 17,23 17,22 18,22 					"/>
					<rect x="18" y="9" class="st5" width="1" height="1"/>
					<polygon class="st2" points="19,4 19,5 18,5 17,5 16,5 16,4 17,4 18,4 					"/>
					<polygon class="st2" points="18,6 18,7 17,7 16,7 15,7 15,6 14,6 13,6 12,6 11,6 11,5 12,5 13,5 14,5 15,5 16,5 16,6 17,6 
											"/>
					<polygon class="st2" points="17,21 17,22 16,22 15,22 15,21 16,21 					"/>
					<polygon class="st2" points="15,20 15,21 14,21 13,21 12,21 12,20 13,20 14,20 					"/>
					<polygon class="st2" points="14,14 14,15 13,15 12,15 11,15 10,15 10,14 11,14 12,14 13,14 					"/>
					<rect x="11" y="19" class="st2" width="1" height="1"/>
					<polygon class="st2" points="11,18 11,19 10,19 9,19 8,19 7,19 6,19 5,19 4,19 3,19 3,18 4,18 5,18 6,18 7,18 8,18 9,18 10,18 
											"/>
					<polygon class="st2" points="11,6 11,7 10,7 9,7 9,6 10,6 					"/>
					<polygon class="st2" points="10,13 10,14 9,14 9,15 8,15 8,14 8,13 9,13 					"/>
					<rect x="8" y="7" class="st2" width="1" height="1"/>
					<polygon class="st2" points="8,16 8,17 7,17 7,16 6,16 5,16 4,16 3,16 2,16 1,16 1,15 2,15 3,15 4,15 5,15 6,15 7,15 8,15 
											"/>
					<rect x="7" y="12" class="st2" width="1" height="1"/>
					<polygon class="st2" points="8,8 8,9 7,9 6,9 6,8 7,8 					"/>
					<polygon class="st6" points="7,16 7,17 6,17 5,17 5,16 6,16 					"/>
					<rect x="6" y="11" class="st2" width="1" height="1"/>
					<polygon class="st2" points="6,10 6,11 5,11 5,10 5,9 6,9 					"/>
					<polygon class="st3" points="5,16 5,17 4,17 3,17 2,17 1,17 1,16 2,16 3,16 4,16 					"/>
					<polygon class="st2" points="3,17 3,18 2,18 1,18 0,18 0,17 0,16 1,16 1,17 2,17 					"/>
				</g>
			</g>
		</g>
		<rect x="26" y="11" width="3" height="1"/>
		<rect x="25" y="10" width="1" height="1"/>
		<rect x="24" y="8" width="3" height="1"/>
		<rect x="25" y="7" width="3" height="1"/>
		<rect x="28" y="8" width="1" height="1"/>
		<rect x="29" y="7" width="1" height="1"/>
		<rect x="26" y="6" width="3" height="1"/>
		<rect x="28" y="7" width="1" height="1"/>
		<rect x="30" y="6" width="1" height="1"/>
		<rect x="26" y="7" class="st7" width="3" height="4"/>
		<rect x="26" y="9" class="st8" width="1" height="1"/>
		<rect x="28" y="9" class="st8" width="1" height="2"/>
		<rect x="27" y="10" class="st8" width="1" height="1"/>
		<rect x="27" y="9" width="1" height="1"/>
		<rect x="26" y="7" class="st9" width="1" height="2"/>
		<rect x="27" y="8" class="st9" width="1" height="1"/>
		<rect x="28" y="7" class="st9" width="1" height="1"/>
		<rect x="22" y="3" class="st10" width="1" height="1"/>
		<rect x="23" y="3" class="st10" width="1" height="1"/>
		<rect x="21" y="4" class="st10" width="1" height="2"/>
		<rect x="24" y="4" class="st10" width="1" height="2"/>
		<rect x="22" y="6" class="st10" width="2" height="1"/>
		<rect x="22" y="4" class="st1" width="2" height="2"/>
	</g>
</g>
<g id="Layer_2" class="st11">
</g>
</svg>
