<svg xmlns="http://www.w3.org/2000/svg" viewBox="0 -0.5 38 24" shape-rendering="crispEdges">
<metadata>Made with Pixels to Svg https://codepen.io/shshaw/pen/XbxvNj</metadata>
<path stroke="#ffffff" d="M0 0h22M24 0h1M30 0h8M0 1h21M23 1h1M29 1h9M0 2h22M31 2h1M33 2h5M0 3h17M18 3h1M32 3h1M34 3h4M0 4h15M16 4h1M32 4h1M34 4h4M0 5h12M14 5h1M35 5h3M0 6h12M35 6h3M0 7h10M11 7h2M34 7h1M36 7h2M0 8h9M10 8h2M36 8h2M0 9h8M9 9h1M34 9h1M36 9h2M0 10h10M36 10h1M0 11h9M0 12h7M0 13h8M36 13h2M0 14h1M2 14h2M5 14h1M7 14h2M36 14h2M0 15h1M2 15h2M6 15h1M9 15h1M35 15h3M3 16h1M8 16h1M32 16h1M34 16h4M0 17h3M32 17h6M0 18h2M4 18h1M32 18h6M0 19h6M9 19h1M21 19h1M23 19h1M29 19h1M32 19h6M0 20h10M13 20h2M22 20h1M25 20h1M30 20h1M32 20h6M0 21h13M14 21h3M29 21h9M0 22h17M19 22h2M27 22h1M30 22h8M0 23h18M26 23h2M29 23h9" />
<path stroke="#139603" d="M22 0h1" />
<path stroke="#003900" d="M23 0h1" />
<path stroke="#b66c28" d="M25 0h1" />
<path stroke="#00814f" d="M26 0h1" />
<path stroke="#ff8f4e" d="M27 0h1" />
<path stroke="#3ce500" d="M28 0h1" />
<path stroke="#1a6600" d="M29 0h1" />
<path stroke="#05070f" d="M21 1h1" />
<path stroke="#ffff2f" d="M22 1h1" />
<path stroke="#1e0000" d="M24 1h1M34 14h1" />
<path stroke="#65ffa1" d="M25 1h1" />
<path stroke="#ffff00" d="M26 1h1M29 2h1M25 4h1M33 5h1M32 6h1M15 7h1M29 7h2M32 7h1M32 8h1M23 9h1M28 9h1M17 10h1M27 10h1M13 11h1M24 11h1M30 11h1M25 12h1M12 13h1M34 13h1M27 14h1M31 15h1M7 18h1" />
<path stroke="#f2fa16" d="M27 1h1" />
<path stroke="#ffe9be" d="M28 1h1" />
<path stroke="#ffa7c4" d="M22 2h1" />
<path stroke="#ffdd85" d="M23 2h1" />
<path stroke="#ffc27d" d="M24 2h1" />
<path stroke="#feff3d" d="M25 2h1" />
<path stroke="#e0ffb1" d="M26 2h1" />
<path stroke="#d9e22f" d="M27 2h1" />
<path stroke="#ffb40f" d="M28 2h1" />
<path stroke="#220000" d="M30 2h1" />
<path stroke="#8d2800" d="M32 2h1" />
<path stroke="#566400" d="M17 3h1" />
<path stroke="#faf063" d="M19 3h1" />
<path stroke="#ffff2b" d="M20 3h1" />
<path stroke="#fff307" d="M21 3h1" />
<path stroke="#f3e700" d="M22 3h1" />
<path stroke="#ffd000" d="M23 3h1" />
<path stroke="#dffe3c" d="M24 3h1" />
<path stroke="#b3dd00" d="M25 3h1" />
<path stroke="#fddd2c" d="M26 3h1" />
<path stroke="#ad8512" d="M27 3h1" />
<path stroke="#ffd428" d="M28 3h1" />
<path stroke="#ffff3f" d="M29 3h1M11 13h1" />
<path stroke="#feff85" d="M30 3h1" />
<path stroke="#d3dd3a" d="M31 3h1" />
<path stroke="#800130" d="M33 3h1" />
<path stroke="#701a00" d="M15 4h1" />
<path stroke="#001d00" d="M17 4h1" />
<path stroke="#e6ffa5" d="M18 4h1" />
<path stroke="#dbd294" d="M19 4h1" />
<path stroke="#f4ff8e" d="M20 4h1" />
<path stroke="#fbdd09" d="M21 4h1" />
<path stroke="#ffd100" d="M22 4h1M14 16h1M19 19h1" />
<path stroke="#ffa48e" d="M23 4h1" />
<path stroke="#e1b100" d="M24 4h1" />
<path stroke="#ffbc00" d="M26 4h1" />
<path stroke="#bfff00" d="M27 4h1" />
<path stroke="#fff86b" d="M28 4h1" />
<path stroke="#ff9b44" d="M29 4h1" />
<path stroke="#cbf500" d="M30 4h1" />
<path stroke="#fff000" d="M31 4h1M29 14h1" />
<path stroke="#002e0d" d="M33 4h1" />
<path stroke="#004d00" d="M12 5h1M1 14h1" />
<path stroke="#f5ff89" d="M13 5h1" />
<path stroke="#1b1700" d="M15 5h1" />
<path stroke="#ffffa1" d="M16 5h1" />
<path stroke="#ff875d" d="M17 5h1" />
<path stroke="#ff9c63" d="M18 5h1" />
<path stroke="#eee400" d="M19 5h1" />
<path stroke="#f2f900" d="M20 5h1" />
<path stroke="#e6b47c" d="M21 5h1" />
<path stroke="#f9ff00" d="M22 5h1" />
<path stroke="#e7cc01" d="M23 5h1" />
<path stroke="#c7fe17" d="M24 5h1" />
<path stroke="#ffeb11" d="M25 5h1" />
<path stroke="#ffff1a" d="M26 5h1M23 12h1M26 13h1" />
<path stroke="#ffd119" d="M27 5h1" />
<path stroke="#fac111" d="M28 5h1" />
<path stroke="#ddd336" d="M29 5h1" />
<path stroke="#ffd360" d="M30 5h1" />
<path stroke="#fafa19" d="M31 5h1" />
<path stroke="#a0ff20" d="M32 5h1" />
<path stroke="#004400" d="M34 5h1M19 20h1" />
<path stroke="#ffffb7" d="M12 6h1" />
<path stroke="#ffffcd" d="M13 6h1" />
<path stroke="#090a00" d="M14 6h1" />
<path stroke="#ffff55" d="M15 6h1" />
<path stroke="#6bc300" d="M16 6h1" />
<path stroke="#ffdfa2" d="M17 6h1" />
<path stroke="#fff48d" d="M18 6h1" />
<path stroke="#ffff24" d="M19 6h1" />
<path stroke="#f0ff00" d="M20 6h1" />
<path stroke="#ffe70b" d="M21 6h1" />
<path stroke="#ffff22" d="M22 6h1M26 17h1" />
<path stroke="#fffc00" d="M23 6h1" />
<path stroke="#fffd34" d="M24 6h1" />
<path stroke="#defe15" d="M25 6h1" />
<path stroke="#cf9100" d="M26 6h1" />
<path stroke="#c96500" d="M27 6h1" />
<path stroke="#ff8700" d="M28 6h1" />
<path stroke="#ffa47a" d="M29 6h1" />
<path stroke="#d7c700" d="M30 6h1" />
<path stroke="#f5f938" d="M31 6h1" />
<path stroke="#26002a" d="M33 6h1" />
<path stroke="#ff7442" d="M34 6h1" />
<path stroke="#291e34" d="M10 7h1" />
<path stroke="#ffff23" d="M13 7h1M30 9h1M20 10h1" />
<path stroke="#ffffb4" d="M14 7h1" />
<path stroke="#ffd800" d="M16 7h1" />
<path stroke="#bfff77" d="M17 7h1" />
<path stroke="#ffef00" d="M18 7h1" />
<path stroke="#e0ff1b" d="M19 7h1" />
<path stroke="#ebff00" d="M20 7h1" />
<path stroke="#e6a900" d="M21 7h1" />
<path stroke="#e9853f" d="M22 7h1" />
<path stroke="#f9c000" d="M23 7h1" />
<path stroke="#f0b100" d="M24 7h1" />
<path stroke="#ffa433" d="M25 7h1" />
<path stroke="#fffa00" d="M26 7h1" />
<path stroke="#ffff29" d="M27 7h1" />
<path stroke="#b1ff00" d="M28 7h1" />
<path stroke="#f49300" d="M31 7h1" />
<path stroke="#893207" d="M33 7h1" />
<path stroke="#610548" d="M35 7h1" />
<path stroke="#ecff57" d="M9 8h1" />
<path stroke="#ff7202" d="M12 8h1" />
<path stroke="#ffd30c" d="M13 8h1" />
<path stroke="#ffd132" d="M14 8h1" />
<path stroke="#ff7f00" d="M15 8h1" />
<path stroke="#aaf13f" d="M16 8h1" />
<path stroke="#ffff09" d="M17 8h1" />
<path stroke="#b5ce37" d="M18 8h1" />
<path stroke="#fff74a" d="M19 8h1" />
<path stroke="#e4ff00" d="M20 8h1" />
<path stroke="#ffd831" d="M21 8h1" />
<path stroke="#cecb03" d="M22 8h1" />
<path stroke="#ffde00" d="M23 8h1" />
<path stroke="#b6fa00" d="M24 8h1" />
<path stroke="#ffb940" d="M25 8h1" />
<path stroke="#001900" d="M26 8h1" />
<path stroke="#000017" d="M27 8h1" />
<path stroke="#0b0000" d="M28 8h1" />
<path stroke="#000015" d="M29 8h1M14 12h1" />
<path stroke="#ffe716" d="M30 8h1" />
<path stroke="#ffd31f" d="M31 8h1" />
<path stroke="#250a00" d="M33 8h1" />
<path stroke="#ffd112" d="M34 8h1" />
<path stroke="#890000" d="M35 8h1" />
<path stroke="#521513" d="M8 9h1" />
<path stroke="#ffd99f" d="M10 9h1" />
<path stroke="#ecff00" d="M11 9h1" />
<path stroke="#ebfff5" d="M12 9h1" />
<path stroke="#ffc700" d="M13 9h1" />
<path stroke="#ced700" d="M14 9h1" />
<path stroke="#ffc500" d="M15 9h1" />
<path stroke="#ffc400" d="M16 9h1" />
<path stroke="#ffa46f" d="M17 9h1" />
<path stroke="#ffff27" d="M18 9h1" />
<path stroke="#fffe86" d="M19 9h1" />
<path stroke="#fff600" d="M20 9h1" />
<path stroke="#cca008" d="M21 9h1" />
<path stroke="#e7d412" d="M22 9h1" />
<path stroke="#d9d714" d="M24 9h1" />
<path stroke="#ffea00" d="M25 9h1" />
<path stroke="#000000" d="M26 9h2M10 13h1M5 17h1M31 18h1M10 19h1" />
<path stroke="#ffff07" d="M29 9h1" />
<path stroke="#ff4b00" d="M31 9h1" />
<path stroke="#edff00" d="M32 9h1" />
<path stroke="#802f00" d="M33 9h1" />
<path stroke="#596641" d="M35 9h1" />
<path stroke="#ffd553" d="M10 10h1" />
<path stroke="#ffbece" d="M11 10h1" />
<path stroke="#d1c100" d="M12 10h1" />
<path stroke="#ffc100" d="M13 10h2" />
<path stroke="#ffe11a" d="M15 10h1" />
<path stroke="#ffa100" d="M16 10h1M24 10h1" />
<path stroke="#ffab6f" d="M18 10h1" />
<path stroke="#d9ff00" d="M19 10h1" />
<path stroke="#ffff3b" d="M21 10h1" />
<path stroke="#fcf231" d="M22 10h1" />
<path stroke="#c0b854" d="M23 10h1" />
<path stroke="#c5ff08" d="M25 10h1" />
<path stroke="#fcfe00" d="M26 10h1" />
<path stroke="#0f002a" d="M28 10h1" />
<path stroke="#d1ff06" d="M29 10h1" />
<path stroke="#fff12e" d="M30 10h1" />
<path stroke="#ff6407" d="M31 10h1" />
<path stroke="#ff5200" d="M32 10h1" />
<path stroke="#264f00" d="M33 10h1" />
<path stroke="#4c365d" d="M34 10h1" />
<path stroke="#fb6600" d="M35 10h1" />
<path stroke="#f10000" d="M37 10h1" />
<path stroke="#ff7900" d="M9 11h1" />
<path stroke="#fffcb6" d="M10 11h1" />
<path stroke="#aeb69d" d="M11 11h1" />
<path stroke="#ffd300" d="M12 11h1" />
<path stroke="#ff8a42" d="M14 11h1" />
<path stroke="#1ea001" d="M15 11h1" />
<path stroke="#f3bb00" d="M16 11h1" />
<path stroke="#ffef22" d="M17 11h1" />
<path stroke="#f3be00" d="M18 11h1" />
<path stroke="#cea500" d="M19 11h1" />
<path stroke="#491400" d="M20 11h1" />
<path stroke="#8a1800" d="M21 11h1" />
<path stroke="#486400" d="M22 11h1" />
<path stroke="#ff3a05" d="M23 11h1" />
<path stroke="#ede409" d="M25 11h1" />
<path stroke="#00001e" d="M26 11h1" />
<path stroke="#fff100" d="M27 11h1" />
<path stroke="#e1ff19" d="M28 11h1" />
<path stroke="#010000" d="M29 11h1" />
<path stroke="#15043b" d="M31 11h1" />
<path stroke="#ff6a04" d="M32 11h1" />
<path stroke="#fea70e" d="M33 11h1" />
<path stroke="#efb500" d="M34 11h1" />
<path stroke="#fff300" d="M35 11h1" />
<path stroke="#b99e00" d="M36 11h1" />
<path stroke="#3a5577" d="M37 11h1" />
<path stroke="#994724" d="M7 12h1" />
<path stroke="#000a00" d="M8 12h1" />
<path stroke="#fffed2" d="M9 12h1" />
<path stroke="#dfb789" d="M10 12h1" />
<path stroke="#ffff05" d="M11 12h1" />
<path stroke="#ffa600" d="M12 12h1" />
<path stroke="#fff200" d="M13 12h1" />
<path stroke="#833c26" d="M15 12h1" />
<path stroke="#f4e2a5" d="M16 12h1" />
<path stroke="#001507" d="M17 12h1" />
<path stroke="#ffffa3" d="M18 12h1" />
<path stroke="#ffc1ce" d="M19 12h1" />
<path stroke="#fffb00" d="M20 12h1" />
<path stroke="#ffc26c" d="M21 12h1" />
<path stroke="#ffe800" d="M22 12h1" />
<path stroke="#ffe000" d="M24 12h1" />
<path stroke="#ffff32" d="M26 12h1" />
<path stroke="#85ff1b" d="M27 12h1" />
<path stroke="#ff6c00" d="M28 12h1" />
<path stroke="#ff7a22" d="M29 12h1" />
<path stroke="#484016" d="M30 12h1" />
<path stroke="#ede500" d="M31 12h1" />
<path stroke="#ffff04" d="M32 12h1" />
<path stroke="#ffff1b" d="M33 12h1" />
<path stroke="#f30000" d="M34 12h1" />
<path stroke="#ff5715" d="M35 12h1" />
<path stroke="#1b0000" d="M36 12h1" />
<path stroke="#ac4600" d="M37 12h1" />
<path stroke="#ffe13f" d="M8 13h1" />
<path stroke="#828100" d="M9 13h1" />
<path stroke="#ffffaf" d="M13 13h1" />
<path stroke="#dbff2c" d="M14 13h1" />
<path stroke="#1a5700" d="M15 13h1" />
<path stroke="#5c1e00" d="M16 13h1" />
<path stroke="#ffff92" d="M17 13h1" />
<path stroke="#005800" d="M18 13h1" />
<path stroke="#ff9931" d="M19 13h1" />
<path stroke="#fffb7c" d="M20 13h1" />
<path stroke="#feb190" d="M21 13h1" />
<path stroke="#e3ff4c" d="M22 13h1" />
<path stroke="#ffad00" d="M23 13h1" />
<path stroke="#cdff00" d="M24 13h1" />
<path stroke="#ffcf30" d="M25 13h1" />
<path stroke="#fff700" d="M27 13h1" />
<path stroke="#ffd700" d="M28 13h1" />
<path stroke="#f6c217" d="M29 13h1" />
<path stroke="#ffffab" d="M30 13h1" />
<path stroke="#490000" d="M31 13h1" />
<path stroke="#fce655" d="M32 13h1" />
<path stroke="#3f0000" d="M33 13h1" />
<path stroke="#891c16" d="M35 13h1" />
<path stroke="#008102" d="M4 14h1" />
<path stroke="#210000" d="M6 14h1" />
<path stroke="#bc0500" d="M9 14h1" />
<path stroke="#1c0000" d="M10 14h1" />
<path stroke="#a1e662" d="M11 14h1" />
<path stroke="#ffd93f" d="M12 14h1M11 18h1" />
<path stroke="#953100" d="M13 14h1" />
<path stroke="#fff2b2" d="M14 14h1" />
<path stroke="#ffb31d" d="M15 14h1" />
<path stroke="#feffc2" d="M16 14h1" />
<path stroke="#e8ac31" d="M17 14h1" />
<path stroke="#ff78b0" d="M18 14h1" />
<path stroke="#ffff38" d="M19 14h1" />
<path stroke="#ffff72" d="M20 14h1" />
<path stroke="#7cbe00" d="M21 14h1" />
<path stroke="#ffcf17" d="M22 14h1" />
<path stroke="#ffff8f" d="M23 14h1" />
<path stroke="#ec5d1d" d="M24 14h1" />
<path stroke="#3e210e" d="M25 14h1" />
<path stroke="#ff7104" d="M26 14h1" />
<path stroke="#c5c277" d="M28 14h1" />
<path stroke="#ff7400" d="M30 14h1" />
<path stroke="#fffffc" d="M31 14h1" />
<path stroke="#897f00" d="M32 14h1" />
<path stroke="#ffe126" d="M33 14h1" />
<path stroke="#340000" d="M35 14h1" />
<path stroke="#ffe74a" d="M1 15h1" />
<path stroke="#fbff00" d="M4 15h1" />
<path stroke="#ffe100" d="M5 15h1" />
<path stroke="#c3ff9d" d="M7 15h1" />
<path stroke="#2e0006" d="M8 15h1" />
<path stroke="#ffff62" d="M10 15h1M16 17h1" />
<path stroke="#f2ffa6" d="M11 15h1" />
<path stroke="#e2fd85" d="M12 15h1" />
<path stroke="#feff0b" d="M13 15h1" />
<path stroke="#bbffdd" d="M14 15h1" />
<path stroke="#fffeb6" d="M15 15h1" />
<path stroke="#ffef82" d="M16 15h1" />
<path stroke="#f2e096" d="M17 15h1" />
<path stroke="#fffe42" d="M18 15h1" />
<path stroke="#fae77c" d="M19 15h1" />
<path stroke="#9bf06a" d="M20 15h1" />
<path stroke="#e97838" d="M21 15h1" />
<path stroke="#b0ab00" d="M22 15h1" />
<path stroke="#135517" d="M23 15h1" />
<path stroke="#505516" d="M24 15h1" />
<path stroke="#bbdd24" d="M25 15h1" />
<path stroke="#ff9818" d="M26 15h1" />
<path stroke="#f64b00" d="M27 15h1" />
<path stroke="#effa00" d="M28 15h1" />
<path stroke="#ff99ff" d="M29 15h1" />
<path stroke="#92dcae" d="M30 15h1" />
<path stroke="#41000e" d="M32 15h1" />
<path stroke="#003000" d="M33 15h1" />
<path stroke="#5df628" d="M34 15h1" />
<path stroke="#026911" d="M0 16h1" />
<path stroke="#fbc122" d="M1 16h1" />
<path stroke="#325c00" d="M2 16h1" />
<path stroke="#062100" d="M4 16h1" />
<path stroke="#151f00" d="M5 16h1" />
<path stroke="#271c00" d="M6 16h1" />
<path stroke="#ff9600" d="M7 16h1" />
<path stroke="#ffaf0e" d="M9 16h1" />
<path stroke="#fff747" d="M10 16h1" />
<path stroke="#9ffe49" d="M11 16h1" />
<path stroke="#ff8f6a" d="M12 16h1" />
<path stroke="#ffffac" d="M13 16h1" />
<path stroke="#fff3a7" d="M15 16h1" />
<path stroke="#d3de42" d="M16 16h1" />
<path stroke="#ffb42e" d="M17 16h1" />
<path stroke="#e16b1b" d="M18 16h1" />
<path stroke="#fffcab" d="M19 16h1" />
<path stroke="#e8cd00" d="M20 16h1" />
<path stroke="#fdffe8" d="M21 16h1" />
<path stroke="#ffa8b9" d="M22 16h1" />
<path stroke="#8fae0b" d="M23 16h1" />
<path stroke="#ffc99a" d="M24 16h1" />
<path stroke="#00005f" d="M25 16h1" />
<path stroke="#df8900" d="M26 16h1" />
<path stroke="#ddffff" d="M27 16h1" />
<path stroke="#f3ff00" d="M28 16h1" />
<path stroke="#ffffd7" d="M29 16h1" />
<path stroke="#fff9b9" d="M30 16h1" />
<path stroke="#ffff84" d="M31 16h1" />
<path stroke="#e18d66" d="M33 16h1" />
<path stroke="#fff900" d="M3 17h1" />
<path stroke="#fffdff" d="M4 17h1" />
<path stroke="#ffffe5" d="M6 17h1" />
<path stroke="#ffff2c" d="M7 17h1" />
<path stroke="#bdd0b1" d="M8 17h1" />
<path stroke="#ffffe2" d="M9 17h1" />
<path stroke="#c7ee35" d="M10 17h1" />
<path stroke="#88e6b3" d="M11 17h1" />
<path stroke="#ffff3e" d="M12 17h1" />
<path stroke="#d1f200" d="M13 17h1" />
<path stroke="#ff8764" d="M14 17h1" />
<path stroke="#daffa3" d="M15 17h1" />
<path stroke="#cad16d" d="M17 17h1" />
<path stroke="#8bc97e" d="M18 17h1" />
<path stroke="#f3ff61" d="M19 17h1" />
<path stroke="#e3b201" d="M20 17h1" />
<path stroke="#ff2a00" d="M21 17h1" />
<path stroke="#aabf00" d="M22 17h1" />
<path stroke="#feee00" d="M23 17h1" />
<path stroke="#ffff76" d="M24 17h1" />
<path stroke="#f6ff36" d="M25 17h1" />
<path stroke="#edffb8" d="M27 17h1" />
<path stroke="#a5b8ff" d="M28 17h1" />
<path stroke="#fffd42" d="M29 17h1" />
<path stroke="#ff3dbc" d="M30 17h1" />
<path stroke="#ffeef6" d="M31 17h1" />
<path stroke="#9b9e00" d="M2 18h1" />
<path stroke="#002d00" d="M3 18h1" />
<path stroke="#ffffec" d="M5 18h1" />
<path stroke="#1d5d00" d="M6 18h1" />
<path stroke="#ffffb0" d="M8 18h1" />
<path stroke="#3b0000" d="M9 18h1" />
<path stroke="#ffffe3" d="M10 18h1" />
<path stroke="#ffd792" d="M12 18h1" />
<path stroke="#9ad326" d="M13 18h1" />
<path stroke="#ffa800" d="M14 18h1" />
<path stroke="#6c8c00" d="M15 18h1" />
<path stroke="#ffd0ff" d="M16 18h1" />
<path stroke="#fcffd9" d="M17 18h1" />
<path stroke="#e56900" d="M18 18h1" />
<path stroke="#2ba003" d="M19 18h1" />
<path stroke="#97c03c" d="M20 18h1" />
<path stroke="#ee1200" d="M21 18h1" />
<path stroke="#492b00" d="M22 18h1" />
<path stroke="#e0e900" d="M23 18h1" />
<path stroke="#ddb5a6" d="M24 18h1" />
<path stroke="#f9f41d" d="M25 18h1" />
<path stroke="#a6af00" d="M26 18h1" />
<path stroke="#f1ffc8" d="M27 18h1" />
<path stroke="#e7e6f7" d="M28 18h1" />
<path stroke="#f3dfca" d="M29 18h1" />
<path stroke="#ffffc1" d="M30 18h1" />
<path stroke="#798200" d="M6 19h1" />
<path stroke="#720000" d="M7 19h1" />
<path stroke="#5fa615" d="M8 19h1" />
<path stroke="#000026" d="M11 19h1" />
<path stroke="#ffffd4" d="M12 19h1" />
<path stroke="#fce100" d="M13 19h1" />
<path stroke="#2d831a" d="M14 19h1" />
<path stroke="#ffb622" d="M15 19h1" />
<path stroke="#7bff00" d="M16 19h1" />
<path stroke="#43a6ae" d="M17 19h1" />
<path stroke="#f97b17" d="M18 19h1" />
<path stroke="#c0a100" d="M20 19h1" />
<path stroke="#febf00" d="M22 19h1" />
<path stroke="#f4e7ff" d="M24 19h1" />
<path stroke="#dbf69c" d="M25 19h1" />
<path stroke="#f3e4ff" d="M26 19h1" />
<path stroke="#ffff8d" d="M27 19h1" />
<path stroke="#f73daf" d="M28 19h1" />
<path stroke="#b3ec9d" d="M30 19h1" />
<path stroke="#ffffd5" d="M31 19h1" />
<path stroke="#6c6517" d="M10 20h1" />
<path stroke="#ffff1c" d="M11 20h1" />
<path stroke="#5f5e00" d="M12 20h1" />
<path stroke="#420000" d="M15 20h1" />
<path stroke="#2d0000" d="M16 20h1" />
<path stroke="#fad800" d="M17 20h1" />
<path stroke="#e0ff0c" d="M18 20h1" />
<path stroke="#ffd0c9" d="M20 20h1" />
<path stroke="#7f0700" d="M21 20h1" />
<path stroke="#ffc7ff" d="M23 20h1" />
<path stroke="#a5ddb5" d="M24 20h1" />
<path stroke="#ffffd9" d="M26 20h1" />
<path stroke="#e1ffff" d="M27 20h1" />
<path stroke="#147f00" d="M28 20h1" />
<path stroke="#204300" d="M29 20h1" />
<path stroke="#746400" d="M31 20h1" />
<path stroke="#413e00" d="M13 21h1" />
<path stroke="#1a0000" d="M17 21h1" />
<path stroke="#8c3f49" d="M18 21h1" />
<path stroke="#332e00" d="M19 21h1" />
<path stroke="#ffd7ff" d="M20 21h1" />
<path stroke="#eadeb9" d="M21 21h1" />
<path stroke="#fbffff" d="M22 21h1" />
<path stroke="#e0ffff" d="M23 21h1" />
<path stroke="#ebe9c2" d="M24 21h1" />
<path stroke="#bdddc6" d="M25 21h1" />
<path stroke="#ffd2ff" d="M26 21h1" />
<path stroke="#0a0000" d="M27 21h1" />
<path stroke="#f1ffff" d="M28 21h1" />
<path stroke="#f9ffff" d="M17 22h1" />
<path stroke="#d30600" d="M18 22h1" />
<path stroke="#ffff98" d="M21 22h1" />
<path stroke="#104600" d="M22 22h1" />
<path stroke="#ffffbd" d="M23 22h1" />
<path stroke="#c9fdff" d="M24 22h1" />
<path stroke="#fffa6e" d="M25 22h1" />
<path stroke="#83ffff" d="M26 22h1" />
<path stroke="#ec4902" d="M28 22h1" />
<path stroke="#586200" d="M29 22h1" />
<path stroke="#003400" d="M18 23h1" />
<path stroke="#881800" d="M19 23h1" />
<path stroke="#2e4200" d="M20 23h1" />
<path stroke="#240800" d="M21 23h1" />
<path stroke="#e7ffc1" d="M22 23h1" />
<path stroke="#629300" d="M23 23h1" />
<path stroke="#110000" d="M24 23h1" />
<path stroke="#d094fa" d="M25 23h1" />
<path stroke="#000030" d="M28 23h1" />
</svg>