<svg xmlns="http://www.w3.org/2000/svg" viewBox="0 -0.5 38 24" shape-rendering="crispEdges">
<metadata>Made with Pixels to Svg https://codepen.io/shshaw/pen/XbxvNj</metadata>
<path stroke="#ffffff" d="M0 0h21M28 0h10M0 1h21M22 1h1M28 1h1M31 1h7M0 2h20M21 2h1M32 2h1M34 2h4M0 3h18M32 3h6M0 4h11M12 4h1M16 4h2M33 4h5M0 5h10M11 5h1M13 5h3M35 5h3M0 6h8M10 6h1M36 6h2M0 7h6M7 7h1M9 7h1M36 7h2M0 8h4M36 8h2M0 9h7M36 9h2M0 10h4M6 10h1M0 11h5M7 11h1M0 12h6M37 12h1M0 13h8M33 13h1M35 13h1M0 14h2M4 14h2M8 14h1M35 14h3M1 15h1M3 15h1M8 15h1M32 15h1M34 15h4M5 16h1M28 16h1M33 16h5M0 17h1M2 17h1M12 17h1M32 17h6M0 18h3M4 18h2M8 18h1M10 18h1M17 18h1M34 18h4M0 19h3M5 19h1M8 19h4M16 19h1M31 19h7M0 20h12M13 20h3M21 20h1M30 20h8M0 21h13M15 21h1M18 21h1M20 21h1M27 21h1M29 21h2M32 21h6M0 22h14M28 22h2M31 22h7M0 23h19M26 23h12" />
<path stroke="#cb510b" d="M21 0h1" />
<path stroke="#570000" d="M22 0h1" />
<path stroke="#2f2500" d="M23 0h1" />
<path stroke="#ffff80" d="M24 0h1" />
<path stroke="#5c5200" d="M25 0h1" />
<path stroke="#af3509" d="M26 0h1" />
<path stroke="#0c2400" d="M27 0h1" />
<path stroke="#83bc00" d="M21 1h1" />
<path stroke="#ffffcf" d="M23 1h1" />
<path stroke="#fff192" d="M24 1h1" />
<path stroke="#ffffd7" d="M25 1h1" />
<path stroke="#030014" d="M26 1h1" />
<path stroke="#d68100" d="M27 1h1" />
<path stroke="#e59a73" d="M29 1h1" />
<path stroke="#ffff34" d="M30 1h1" />
<path stroke="#000000" d="M20 2h1M26 8h1M20 9h1M27 9h1M25 10h1M27 10h1M3 18h1M28 20h1M14 21h1" />
<path stroke="#125c00" d="M22 2h1" />
<path stroke="#c4f000" d="M23 2h1" />
<path stroke="#ff8f20" d="M24 2h1" />
<path stroke="#86f300" d="M25 2h1" />
<path stroke="#ffcaf6" d="M26 2h1" />
<path stroke="#f1ff00" d="M27 2h1" />
<path stroke="#f2ff37" d="M28 2h1" />
<path stroke="#fff000" d="M29 2h1" />
<path stroke="#ff7a07" d="M30 2h1" />
<path stroke="#950b00" d="M31 2h1" />
<path stroke="#76a927" d="M33 2h1" />
<path stroke="#ffffb9" d="M18 3h1" />
<path stroke="#140c00" d="M19 3h1" />
<path stroke="#000f00" d="M20 3h1" />
<path stroke="#e0ff98" d="M21 3h1" />
<path stroke="#bad800" d="M22 3h1" />
<path stroke="#ffcb00" d="M23 3h1M29 10h1" />
<path stroke="#cdffa4" d="M24 3h1" />
<path stroke="#f8fc45" d="M25 3h1" />
<path stroke="#ffea00" d="M26 3h1" />
<path stroke="#ffa86a" d="M27 3h1" />
<path stroke="#f56f00" d="M28 3h1" />
<path stroke="#b7c500" d="M29 3h1" />
<path stroke="#ffff86" d="M30 3h1" />
<path stroke="#233900" d="M31 3h1" />
<path stroke="#4c4a00" d="M11 4h1" />
<path stroke="#380000" d="M13 4h1" />
<path stroke="#007e00" d="M14 4h1" />
<path stroke="#450a48" d="M15 4h1" />
<path stroke="#2d2b00" d="M18 4h1" />
<path stroke="#ffd890" d="M19 4h1" />
<path stroke="#ffff45" d="M20 4h1" />
<path stroke="#ffff42" d="M21 4h1" />
<path stroke="#ffbf00" d="M22 4h1" />
<path stroke="#ffff69" d="M23 4h1" />
<path stroke="#ebf400" d="M24 4h1" />
<path stroke="#f3c000" d="M25 4h1" />
<path stroke="#f5ba00" d="M26 4h1" />
<path stroke="#aec723" d="M27 4h1" />
<path stroke="#e1be05" d="M28 4h1" />
<path stroke="#ffaf00" d="M29 4h1" />
<path stroke="#d2a000" d="M30 4h1" />
<path stroke="#ffff00" d="M31 4h1M29 5h1M28 6h1M25 7h1M27 8h1M29 8h1M33 8h1M25 9h1M28 9h1M32 9h1M28 12h1M32 12h1M31 13h1M22 14h1M33 14h1M5 15h1M7 15h1M17 15h1M19 15h1M21 15h1M27 16h1M27 17h1" />
<path stroke="#2a2017" d="M32 4h1" />
<path stroke="#2c0000" d="M10 5h1" />
<path stroke="#001500" d="M12 5h1" />
<path stroke="#4d9400" d="M16 5h1" />
<path stroke="#ffac00" d="M17 5h1" />
<path stroke="#d1ff6a" d="M18 5h1" />
<path stroke="#ffcc48" d="M19 5h1" />
<path stroke="#e86200" d="M20 5h1" />
<path stroke="#bfe680" d="M21 5h1" />
<path stroke="#ddb000" d="M22 5h1" />
<path stroke="#ffff21" d="M23 5h1" />
<path stroke="#ffb806" d="M24 5h1" />
<path stroke="#b4f900" d="M25 5h1" />
<path stroke="#ffeb00" d="M26 5h1" />
<path stroke="#d5d916" d="M27 5h1" />
<path stroke="#ffb034" d="M28 5h1" />
<path stroke="#ff6000" d="M30 5h1" />
<path stroke="#ffff11" d="M31 5h1" />
<path stroke="#ffef00" d="M32 5h1" />
<path stroke="#dc9a19" d="M33 5h1" />
<path stroke="#304d00" d="M34 5h1" />
<path stroke="#003b00" d="M8 6h1" />
<path stroke="#640038" d="M9 6h1" />
<path stroke="#892900" d="M11 6h1" />
<path stroke="#604700" d="M12 6h1" />
<path stroke="#ffff9e" d="M13 6h1" />
<path stroke="#ffa04b" d="M14 6h1" />
<path stroke="#f6f99f" d="M15 6h1" />
<path stroke="#5f0813" d="M16 6h1" />
<path stroke="#ffff96" d="M17 6h1" />
<path stroke="#f5675d" d="M18 6h1" />
<path stroke="#f5fc74" d="M19 6h1" />
<path stroke="#9ecca8" d="M20 6h1" />
<path stroke="#d4ff2b" d="M21 6h1" />
<path stroke="#f8bc00" d="M22 6h1" />
<path stroke="#d2d400" d="M23 6h1" />
<path stroke="#ffb047" d="M24 6h1" />
<path stroke="#fffc00" d="M25 6h1M3 16h1" />
<path stroke="#ffff0d" d="M26 6h1" />
<path stroke="#ffff08" d="M27 6h1" />
<path stroke="#ff5605" d="M29 6h1" />
<path stroke="#fbb90d" d="M30 6h1" />
<path stroke="#f9e200" d="M31 6h1" />
<path stroke="#4d5000" d="M32 6h1" />
<path stroke="#f2c825" d="M33 6h1" />
<path stroke="#ffff3e" d="M34 6h1M27 12h1" />
<path stroke="#655f00" d="M35 6h1" />
<path stroke="#446c00" d="M6 7h1" />
<path stroke="#fffffa" d="M8 7h1" />
<path stroke="#8ffb60" d="M10 7h1" />
<path stroke="#ffee56" d="M11 7h1" />
<path stroke="#ffffb1" d="M12 7h1" />
<path stroke="#def5a0" d="M13 7h1" />
<path stroke="#f4e500" d="M14 7h1" />
<path stroke="#185600" d="M15 7h1" />
<path stroke="#ffe271" d="M16 7h1" />
<path stroke="#410500" d="M17 7h1" />
<path stroke="#ffff8b" d="M18 7h1" />
<path stroke="#e7e6b7" d="M19 7h1" />
<path stroke="#ffa4b5" d="M20 7h1" />
<path stroke="#ffc900" d="M21 7h1" />
<path stroke="#ffed00" d="M22 7h1" />
<path stroke="#c7ed00" d="M23 7h1" />
<path stroke="#ffee00" d="M24 7h1" />
<path stroke="#000026" d="M26 7h1" />
<path stroke="#ffe909" d="M27 7h1" />
<path stroke="#ffa700" d="M28 7h1" />
<path stroke="#e2ff1c" d="M29 7h1" />
<path stroke="#e7f305" d="M30 7h1" />
<path stroke="#bfff00" d="M31 7h1" />
<path stroke="#ff852b" d="M32 7h1" />
<path stroke="#c3f900" d="M33 7h1" />
<path stroke="#4a530b" d="M34 7h1" />
<path stroke="#241040" d="M35 7h1" />
<path stroke="#9a0b00" d="M4 8h1" />
<path stroke="#ffff22" d="M5 8h1" />
<path stroke="#feffc3" d="M6 8h1" />
<path stroke="#004700" d="M7 8h1" />
<path stroke="#47000f" d="M8 8h1" />
<path stroke="#fff571" d="M9 8h1" />
<path stroke="#ffb768" d="M10 8h1" />
<path stroke="#d7e3bf" d="M11 8h1" />
<path stroke="#ddcb92" d="M12 8h1" />
<path stroke="#ecd54e" d="M13 8h1" />
<path stroke="#ff9a9b" d="M14 8h1" />
<path stroke="#ffffd4" d="M15 8h1" />
<path stroke="#d5ff7e" d="M16 8h1" />
<path stroke="#630020" d="M17 8h1" />
<path stroke="#ffff5a" d="M18 8h1" />
<path stroke="#c4803b" d="M19 8h1" />
<path stroke="#ffff10" d="M20 8h1" />
<path stroke="#ffff27" d="M21 8h1" />
<path stroke="#ff8d18" d="M22 8h1" />
<path stroke="#ffc915" d="M23 8h1" />
<path stroke="#e3ff00" d="M24 8h1" />
<path stroke="#faff0c" d="M25 8h1" />
<path stroke="#9c8f00" d="M28 8h1" />
<path stroke="#ff9104" d="M30 8h1" />
<path stroke="#ffdf5b" d="M31 8h1" />
<path stroke="#e5fc00" d="M32 8h1" />
<path stroke="#7a002e" d="M34 8h1" />
<path stroke="#846800" d="M35 8h1" />
<path stroke="#ffff91" d="M7 9h1" />
<path stroke="#8eff45" d="M8 9h1" />
<path stroke="#ffd06c" d="M9 9h1" />
<path stroke="#fff5bc" d="M10 9h1" />
<path stroke="#dba6a2" d="M11 9h1" />
<path stroke="#f8ff85" d="M12 9h1" />
<path stroke="#fffe95" d="M13 9h1" />
<path stroke="#ffa773" d="M14 9h1" />
<path stroke="#b7ff5c" d="M15 9h1" />
<path stroke="#ff9090" d="M16 9h1" />
<path stroke="#85b9b4" d="M17 9h1" />
<path stroke="#ffdf34" d="M18 9h1" />
<path stroke="#ffffbe" d="M19 9h1" />
<path stroke="#71a800" d="M21 9h1" />
<path stroke="#00190a" d="M22 9h1" />
<path stroke="#68992f" d="M23 9h1" />
<path stroke="#ffb200" d="M24 9h1M21 12h1M30 13h1" />
<path stroke="#ffda00" d="M26 9h1" />
<path stroke="#ffb500" d="M29 9h1" />
<path stroke="#b4ff1a" d="M30 9h1" />
<path stroke="#feb800" d="M31 9h1" />
<path stroke="#ff1400" d="M33 9h1" />
<path stroke="#143300" d="M34 9h1" />
<path stroke="#707455" d="M35 9h1" />
<path stroke="#0b4f00" d="M4 10h1" />
<path stroke="#f8eedc" d="M5 10h1" />
<path stroke="#ae8020" d="M7 10h1" />
<path stroke="#e7ff00" d="M8 10h1" />
<path stroke="#f2a41b" d="M9 10h1" />
<path stroke="#fffdd3" d="M10 10h1" />
<path stroke="#ff9eaa" d="M11 10h1" />
<path stroke="#ffa996" d="M12 10h1" />
<path stroke="#fffc49" d="M13 10h1" />
<path stroke="#a6b540" d="M14 10h1" />
<path stroke="#faffb6" d="M15 10h1" />
<path stroke="#ffc323" d="M16 10h1" />
<path stroke="#ffff90" d="M17 10h1" />
<path stroke="#ffff6c" d="M18 10h1" />
<path stroke="#bdff64" d="M19 10h1" />
<path stroke="#ffff38" d="M20 10h1M20 11h1" />
<path stroke="#471800" d="M21 10h1" />
<path stroke="#fff651" d="M22 10h1" />
<path stroke="#00941f" d="M23 10h1" />
<path stroke="#ffff56" d="M24 10h1" />
<path stroke="#c1fc38" d="M26 10h1" />
<path stroke="#ffff2a" d="M28 10h1" />
<path stroke="#ff0000" d="M30 10h1M25 22h1" />
<path stroke="#ff8800" d="M31 10h1" />
<path stroke="#ff1d00" d="M32 10h1" />
<path stroke="#003a2f" d="M33 10h1" />
<path stroke="#ee8200" d="M34 10h1" />
<path stroke="#820000" d="M35 10h1" />
<path stroke="#51007a" d="M36 10h1" />
<path stroke="#ff8f02" d="M37 10h1" />
<path stroke="#887200" d="M5 11h1" />
<path stroke="#c6b156" d="M6 11h1" />
<path stroke="#a70021" d="M8 11h1" />
<path stroke="#e8ffbf" d="M9 11h1" />
<path stroke="#f6a900" d="M10 11h1" />
<path stroke="#e5eee3" d="M11 11h1" />
<path stroke="#a5e52c" d="M12 11h1" />
<path stroke="#ebfc99" d="M13 11h1" />
<path stroke="#ff9d90" d="M14 11h1" />
<path stroke="#ffb92a" d="M15 11h1" />
<path stroke="#ffff39" d="M16 11h1" />
<path stroke="#c3e884" d="M17 11h1" />
<path stroke="#f28c7d" d="M18 11h1" />
<path stroke="#d0ccb8" d="M19 11h1" />
<path stroke="#f8cbdc" d="M21 11h1" />
<path stroke="#ffbe45" d="M22 11h1" />
<path stroke="#ffd900" d="M23 11h1" />
<path stroke="#fff500" d="M24 11h1M10 15h1" />
<path stroke="#00003f" d="M25 11h1" />
<path stroke="#ffff0f" d="M26 11h1M26 17h1" />
<path stroke="#cfaa00" d="M27 11h1" />
<path stroke="#eced1b" d="M28 11h1" />
<path stroke="#eeac0f" d="M29 11h1" />
<path stroke="#ffff04" d="M30 11h1" />
<path stroke="#42000e" d="M31 11h1" />
<path stroke="#973a11" d="M32 11h1" />
<path stroke="#005436" d="M33 11h1" />
<path stroke="#d20000" d="M34 11h1" />
<path stroke="#c2fb21" d="M35 11h1" />
<path stroke="#ff3300" d="M36 11h1" />
<path stroke="#000f1d" d="M37 11h1" />
<path stroke="#ffc80c" d="M6 12h1" />
<path stroke="#95d500" d="M7 12h1" />
<path stroke="#ff3700" d="M8 12h1" />
<path stroke="#a86d02" d="M9 12h1" />
<path stroke="#fff92e" d="M10 12h1" />
<path stroke="#c76f00" d="M11 12h1" />
<path stroke="#e4ff91" d="M12 12h1" />
<path stroke="#fff904" d="M13 12h1" />
<path stroke="#dcfc9d" d="M14 12h1" />
<path stroke="#ffca00" d="M15 12h1" />
<path stroke="#fffbf3" d="M16 12h1" />
<path stroke="#ffff26" d="M17 12h1" />
<path stroke="#d6f237" d="M18 12h1" />
<path stroke="#ffcced" d="M19 12h1" />
<path stroke="#aa9328" d="M20 12h1" />
<path stroke="#fff3e1" d="M22 12h1" />
<path stroke="#fffd4d" d="M23 12h1" />
<path stroke="#ffb900" d="M24 12h1" />
<path stroke="#ffeb06" d="M25 12h1" />
<path stroke="#8cff00" d="M26 12h1" />
<path stroke="#5e2200" d="M29 12h1" />
<path stroke="#faff02" d="M30 12h1" />
<path stroke="#b40012" d="M31 12h1" />
<path stroke="#ff0900" d="M33 12h1" />
<path stroke="#f86600" d="M34 12h1" />
<path stroke="#f17600" d="M35 12h1" />
<path stroke="#ff5905" d="M36 12h1" />
<path stroke="#d4ff00" d="M8 13h1" />
<path stroke="#fefc00" d="M9 13h1" />
<path stroke="#ffe137" d="M10 13h1" />
<path stroke="#493105" d="M11 13h1" />
<path stroke="#7f6400" d="M12 13h1" />
<path stroke="#ffffea" d="M13 13h1" />
<path stroke="#ffd9ae" d="M14 13h1" />
<path stroke="#c3fc25" d="M15 13h1" />
<path stroke="#ff6300" d="M16 13h1" />
<path stroke="#ffff88" d="M17 13h1" />
<path stroke="#cf8600" d="M18 13h1" />
<path stroke="#ffff81" d="M19 13h1" />
<path stroke="#c18c00" d="M20 13h1" />
<path stroke="#ffff92" d="M21 13h1M25 20h1" />
<path stroke="#000035" d="M22 13h1" />
<path stroke="#359c00" d="M23 13h1" />
<path stroke="#ffff1f" d="M24 13h1" />
<path stroke="#bcc700" d="M25 13h1" />
<path stroke="#ffff29" d="M26 13h1" />
<path stroke="#e37113" d="M27 13h1" />
<path stroke="#ffbb00" d="M28 13h1" />
<path stroke="#fcff00" d="M29 13h1" />
<path stroke="#6b0063" d="M32 13h1" />
<path stroke="#1a0900" d="M34 13h1" />
<path stroke="#d86b0a" d="M36 13h1" />
<path stroke="#614c00" d="M37 13h1" />
<path stroke="#7d1332" d="M2 14h1" />
<path stroke="#7a0000" d="M3 14h1" />
<path stroke="#171712" d="M6 14h1" />
<path stroke="#210000" d="M7 14h1" />
<path stroke="#aa6703" d="M9 14h1" />
<path stroke="#502300" d="M10 14h1" />
<path stroke="#fdd500" d="M11 14h1" />
<path stroke="#1ca17b" d="M12 14h1" />
<path stroke="#ffc600" d="M13 14h1" />
<path stroke="#00d30f" d="M14 14h1" />
<path stroke="#113b01" d="M15 14h1" />
<path stroke="#fff900" d="M16 14h1" />
<path stroke="#b1ff8b" d="M17 14h1" />
<path stroke="#fef4d1" d="M18 14h1" />
<path stroke="#ffa000" d="M19 14h1" />
<path stroke="#4f1500" d="M20 14h1" />
<path stroke="#000d2b" d="M21 14h1" />
<path stroke="#240a00" d="M23 14h1" />
<path stroke="#cc6f17" d="M24 14h1" />
<path stroke="#ecff17" d="M25 14h1" />
<path stroke="#ffff15" d="M26 14h1" />
<path stroke="#d59601" d="M27 14h1" />
<path stroke="#e2ed00" d="M28 14h1" />
<path stroke="#d0ba37" d="M29 14h1" />
<path stroke="#ecffff" d="M30 14h1M24 17h1" />
<path stroke="#ffff71" d="M31 14h1M16 17h1" />
<path stroke="#c1f3ff" d="M32 14h1" />
<path stroke="#070000" d="M34 14h1" />
<path stroke="#dd9800" d="M0 15h1" />
<path stroke="#ffff19" d="M2 15h1" />
<path stroke="#fede31" d="M4 15h1" />
<path stroke="#560000" d="M6 15h1" />
<path stroke="#b3cc32" d="M9 15h1" />
<path stroke="#840008" d="M11 15h1" />
<path stroke="#5d5000" d="M12 15h1" />
<path stroke="#2d9600" d="M13 15h1" />
<path stroke="#f4bc25" d="M14 15h1" />
<path stroke="#ffed11" d="M15 15h1" />
<path stroke="#512517" d="M16 15h1" />
<path stroke="#e6c700" d="M18 15h1" />
<path stroke="#000827" d="M20 15h1" />
<path stroke="#f06e21" d="M22 15h1" />
<path stroke="#ffe708" d="M23 15h1" />
<path stroke="#ffd104" d="M24 15h1" />
<path stroke="#fa4e19" d="M25 15h1" />
<path stroke="#fff637" d="M26 15h1" />
<path stroke="#c82f37" d="M27 15h1" />
<path stroke="#e3f000" d="M28 15h1" />
<path stroke="#feceff" d="M29 15h1" />
<path stroke="#ede200" d="M30 15h1" />
<path stroke="#973200" d="M31 15h1" />
<path stroke="#120e00" d="M33 15h1" />
<path stroke="#629c04" d="M0 16h1" />
<path stroke="#144c00" d="M1 16h1" />
<path stroke="#440020" d="M2 16h1" />
<path stroke="#013f00" d="M4 16h1" />
<path stroke="#eba0ff" d="M6 16h1" />
<path stroke="#ff7b01" d="M7 16h1" />
<path stroke="#deffff" d="M8 16h1" />
<path stroke="#c66cb0" d="M9 16h1" />
<path stroke="#e7d632" d="M10 16h1" />
<path stroke="#f9ff00" d="M11 16h1" />
<path stroke="#df8800" d="M12 16h1" />
<path stroke="#ff2c00" d="M13 16h1" />
<path stroke="#e8a000" d="M14 16h1" />
<path stroke="#e0ff71" d="M15 16h1" />
<path stroke="#5e0000" d="M16 16h1" />
<path stroke="#ffc307" d="M17 16h1" />
<path stroke="#fff920" d="M18 16h1" />
<path stroke="#e9ff21" d="M19 16h1" />
<path stroke="#f70004" d="M20 16h1" />
<path stroke="#efff00" d="M21 16h1M15 17h1" />
<path stroke="#ffaa29" d="M22 16h1" />
<path stroke="#494713" d="M23 16h1" />
<path stroke="#ffca15" d="M24 16h1" />
<path stroke="#ffe528" d="M25 16h1" />
<path stroke="#e2ff00" d="M26 16h1" />
<path stroke="#e6a8ad" d="M29 16h1" />
<path stroke="#d5e0ff" d="M30 16h1" />
<path stroke="#c4f1ad" d="M31 16h1" />
<path stroke="#ffe0ff" d="M32 16h1" />
<path stroke="#b42500" d="M1 17h1" />
<path stroke="#a8fdff" d="M3 17h1" />
<path stroke="#a084dd" d="M4 17h1" />
<path stroke="#9bee00" d="M5 17h1" />
<path stroke="#f3fc3a" d="M6 17h1" />
<path stroke="#ffd7a9" d="M7 17h1" />
<path stroke="#dfc500" d="M8 17h1" />
<path stroke="#a8ffff" d="M9 17h1" />
<path stroke="#143200" d="M10 17h1" />
<path stroke="#f9c3ff" d="M11 17h1" />
<path stroke="#7bfeff" d="M13 17h1" />
<path stroke="#ffb6ff" d="M14 17h1" />
<path stroke="#e1a300" d="M17 17h1" />
<path stroke="#c39a5b" d="M18 17h1" />
<path stroke="#ffff09" d="M19 17h1" />
<path stroke="#e9ffd2" d="M20 17h1" />
<path stroke="#dee214" d="M21 17h1" />
<path stroke="#c5ae00" d="M22 17h1" />
<path stroke="#ffd200" d="M23 17h1" />
<path stroke="#9ff626" d="M25 17h1" />
<path stroke="#ffe9ff" d="M28 17h1" />
<path stroke="#ffff7c" d="M29 17h1" />
<path stroke="#dde6ec" d="M30 17h1" />
<path stroke="#ffaa74" d="M31 17h1" />
<path stroke="#004500" d="M6 18h1" />
<path stroke="#ffbcff" d="M7 18h1" />
<path stroke="#8c0000" d="M9 18h1" />
<path stroke="#edff97" d="M11 18h1" />
<path stroke="#667600" d="M12 18h1" />
<path stroke="#ffe9f3" d="M13 18h1" />
<path stroke="#ffc158" d="M14 18h1" />
<path stroke="#b0ffff" d="M15 18h1" />
<path stroke="#bfb4c2" d="M16 18h1" />
<path stroke="#a4c100" d="M18 18h1" />
<path stroke="#fff649" d="M19 18h1" />
<path stroke="#ef9400" d="M20 18h1" />
<path stroke="#ff77ff" d="M21 18h1" />
<path stroke="#d2f900" d="M22 18h1" />
<path stroke="#ffeeff" d="M23 18h1" />
<path stroke="#efffe9" d="M24 18h1" />
<path stroke="#ff8520" d="M25 18h1" />
<path stroke="#e8c2ff" d="M26 18h1" />
<path stroke="#ffffe7" d="M27 18h1" />
<path stroke="#88d9ff" d="M28 18h1" />
<path stroke="#d0ff79" d="M29 18h1" />
<path stroke="#cdffa6" d="M30 18h1" />
<path stroke="#e0edff" d="M31 18h1" />
<path stroke="#441200" d="M32 18h1" />
<path stroke="#c17036" d="M33 18h1" />
<path stroke="#668900" d="M3 19h1" />
<path stroke="#9b001a" d="M4 19h1" />
<path stroke="#685126" d="M6 19h1" />
<path stroke="#ad4000" d="M7 19h1" />
<path stroke="#f8fff4" d="M12 19h1" />
<path stroke="#74b3ff" d="M13 19h1" />
<path stroke="#ffbcd1" d="M14 19h1" />
<path stroke="#f9bab1" d="M15 19h1" />
<path stroke="#e3b3f9" d="M17 19h1" />
<path stroke="#ffffd0" d="M18 19h1" />
<path stroke="#f6a600" d="M19 19h1" />
<path stroke="#839dff" d="M20 19h1" />
<path stroke="#ffff48" d="M21 19h1" />
<path stroke="#ffe8ff" d="M22 19h1" />
<path stroke="#f6df00" d="M23 19h1" />
<path stroke="#d9b71f" d="M24 19h1" />
<path stroke="#fff1a1" d="M25 19h1" />
<path stroke="#ffc38b" d="M26 19h1" />
<path stroke="#e0ffde" d="M27 19h1" />
<path stroke="#fbffb4" d="M28 19h1" />
<path stroke="#d4ffff" d="M29 19h1" />
<path stroke="#db7ac4" d="M30 19h1" />
<path stroke="#536108" d="M12 20h1" />
<path stroke="#178100" d="M16 20h1" />
<path stroke="#ffffec" d="M17 20h1" />
<path stroke="#f6ff97" d="M18 20h1" />
<path stroke="#fff3e4" d="M19 20h1" />
<path stroke="#8babff" d="M20 20h1" />
<path stroke="#f9ff66" d="M22 20h1" />
<path stroke="#c6bccb" d="M23 20h1" />
<path stroke="#d7efff" d="M24 20h1" />
<path stroke="#eff4a5" d="M26 20h1" />
<path stroke="#ff4aba" d="M27 20h1" />
<path stroke="#f8ffff" d="M29 20h1" />
<path stroke="#f6b300" d="M13 21h1" />
<path stroke="#2b2400" d="M16 21h1" />
<path stroke="#2a9000" d="M17 21h1" />
<path stroke="#000500" d="M19 21h1" />
<path stroke="#c4ffe2" d="M21 21h1" />
<path stroke="#ffefff" d="M22 21h1" />
<path stroke="#f8ffcc" d="M23 21h1" />
<path stroke="#d16ed9" d="M24 21h1" />
<path stroke="#bfc2ff" d="M25 21h1" />
<path stroke="#fddfb7" d="M26 21h1" />
<path stroke="#074d00" d="M28 21h1" />
<path stroke="#473504" d="M31 21h1" />
<path stroke="#415700" d="M14 22h1" />
<path stroke="#1b1c00" d="M15 22h1" />
<path stroke="#67d300" d="M16 22h1" />
<path stroke="#4c0000" d="M17 22h1" />
<path stroke="#6b5a00" d="M18 22h1" />
<path stroke="#402f00" d="M19 22h1" />
<path stroke="#ffedff" d="M20 22h1" />
<path stroke="#615e00" d="M21 22h1" />
<path stroke="#ff8be8" d="M22 22h1" />
<path stroke="#fffaff" d="M23 22h1" />
<path stroke="#e8fcff" d="M24 22h1" />
<path stroke="#057400" d="M26 22h1" />
<path stroke="#e23a00" d="M27 22h1" />
<path stroke="#767122" d="M30 22h1" />
<path stroke="#52590d" d="M19 23h1" />
<path stroke="#3b0000" d="M20 23h1" />
<path stroke="#f8e89f" d="M21 23h1" />
<path stroke="#2b2100" d="M22 23h1" />
<path stroke="#fdffaf" d="M23 23h1" />
<path stroke="#b8ffff" d="M24 23h1" />
<path stroke="#019600" d="M25 23h1" />
</svg>