<svg xmlns="http://www.w3.org/2000/svg" viewBox="0 -0.5 38 24" shape-rendering="crispEdges">
<metadata>Made with Pixels to Svg https://codepen.io/shshaw/pen/XbxvNj</metadata>
<path stroke="#001d00" d="M22 0h1" />
<path stroke="#565600" d="M24 0h1" />
<path stroke="#ffe49f" d="M25 0h1" />
<path stroke="#002000" d="M26 0h1" />
<path stroke="#8e1300" d="M27 0h1" />
<path stroke="#ffe17c" d="M28 0h1" />
<path stroke="#3c2c00" d="M29 0h1" />
<path stroke="#a75d00" d="M19 1h1" />
<path stroke="#ffb8e1" d="M22 1h1" />
<path stroke="#300d05" d="M24 1h1" />
<path stroke="#fff24c" d="M25 1h1" />
<path stroke="#ffdfff" d="M26 1h1" />
<path stroke="#ffcb00" d="M27 1h1" />
<path stroke="#ffff7c" d="M28 1h1" />
<path stroke="#ffff78" d="M29 1h1" />
<path stroke="#bb8419" d="M18 2h1" />
<path stroke="#844100" d="M20 2h1" />
<path stroke="#ffff19" d="M22 2h1" />
<path stroke="#fff315" d="M23 2h1" />
<path stroke="#041400" d="M24 2h1" />
<path stroke="#ffff02" d="M25 2h1" />
<path stroke="#fcadec" d="M26 2h1" />
<path stroke="#ffa9ae" d="M27 2h1" />
<path stroke="#ffd700" d="M28 2h1M29 15h1" />
<path stroke="#ffff76" d="M29 2h1M18 4h1" />
<path stroke="#1b002d" d="M30 2h1" />
<path stroke="#fdef49" d="M31 2h1" />
<path stroke="#514c00" d="M16 3h1" />
<path stroke="#002e00" d="M18 3h1" />
<path stroke="#7b0014" d="M19 3h1" />
<path stroke="#ffffd1" d="M20 3h1" />
<path stroke="#000000" d="M21 3h1M26 10h1M29 10h1M11 13h1M14 20h1M28 20h1" />
<path stroke="#ffe4c1" d="M22 3h1" />
<path stroke="#bfffff" d="M23 3h1" />
<path stroke="#ffb600" d="M24 3h1" />
<path stroke="#6fdb00" d="M25 3h1" />
<path stroke="#aca400" d="M26 3h1" />
<path stroke="#ff9a00" d="M27 3h1" />
<path stroke="#f6aa00" d="M28 3h1" />
<path stroke="#f9f900" d="M29 3h1" />
<path stroke="#d2ff96" d="M30 3h1" />
<path stroke="#851b02" d="M31 3h1" />
<path stroke="#03962a" d="M32 3h1" />
<path stroke="#2dc030" d="M33 3h1" />
<path stroke="#ffff99" d="M16 4h1" />
<path stroke="#ffe18c" d="M19 4h1" />
<path stroke="#00323d" d="M20 4h1" />
<path stroke="#fffff0" d="M21 4h1" />
<path stroke="#be7b00" d="M22 4h1" />
<path stroke="#fff000" d="M23 4h1" />
<path stroke="#9cd62f" d="M24 4h1" />
<path stroke="#ffae00" d="M25 4h1" />
<path stroke="#ff7a1a" d="M26 4h1" />
<path stroke="#f7ff00" d="M27 4h1" />
<path stroke="#efca00" d="M28 4h1" />
<path stroke="#ff901a" d="M29 4h1" />
<path stroke="#ffff00" d="M30 4h1M28 5h1M24 6h2M20 7h1M31 7h1M33 8h1M25 9h1M20 10h1M30 10h1M22 11h1M29 11h1M22 12h1M28 12h1M10 13h1M29 13h1M26 14h1M25 15h1M3 16h1M26 16h1M11 18h1" />
<path stroke="#e0ff19" d="M31 4h1" />
<path stroke="#ffce00" d="M32 4h1" />
<path stroke="#7db837" d="M34 4h1" />
<path stroke="#370000" d="M14 5h1M22 22h1" />
<path stroke="#634700" d="M15 5h1" />
<path stroke="#003d18" d="M16 5h1" />
<path stroke="#ffff6e" d="M17 5h1" />
<path stroke="#fdff47" d="M18 5h1" />
<path stroke="#a6d789" d="M19 5h1" />
<path stroke="#ffbb6f" d="M20 5h1" />
<path stroke="#fffb00" d="M21 5h1" />
<path stroke="#ffff10" d="M22 5h1" />
<path stroke="#ffe600" d="M23 5h1" />
<path stroke="#eaf000" d="M24 5h1" />
<path stroke="#ff8d0c" d="M25 5h1" />
<path stroke="#fffb07" d="M26 5h1" />
<path stroke="#ffff24" d="M27 5h1" />
<path stroke="#fff700" d="M29 5h1" />
<path stroke="#dbc513" d="M30 5h1" />
<path stroke="#d2e122" d="M31 5h1" />
<path stroke="#bf6c00" d="M32 5h1" />
<path stroke="#335d00" d="M33 5h1" />
<path stroke="#005d00" d="M11 6h1" />
<path stroke="#ffff30" d="M12 6h1" />
<path stroke="#ffff4b" d="M13 6h1" />
<path stroke="#fffda4" d="M14 6h1" />
<path stroke="#fff7ff" d="M15 6h1" />
<path stroke="#ffcfa7" d="M16 6h1" />
<path stroke="#ffc114" d="M17 6h1" />
<path stroke="#ffe49c" d="M18 6h1" />
<path stroke="#fcbc0e" d="M19 6h1" />
<path stroke="#ffe03c" d="M20 6h1" />
<path stroke="#d3ae0a" d="M21 6h1" />
<path stroke="#ffab62" d="M22 6h1" />
<path stroke="#f2c500" d="M23 6h1" />
<path stroke="#ff9409" d="M26 6h1" />
<path stroke="#c5f01e" d="M27 6h1" />
<path stroke="#d9a000" d="M28 6h1" />
<path stroke="#ffd00f" d="M29 6h1" />
<path stroke="#dcd600" d="M30 6h1" />
<path stroke="#ffd500" d="M31 6h1M17 15h1" />
<path stroke="#a5ff09" d="M32 6h1" />
<path stroke="#ff5000" d="M33 6h1" />
<path stroke="#8f6100" d="M35 6h1" />
<path stroke="#534c2e" d="M9 7h1" />
<path stroke="#540000" d="M10 7h1" />
<path stroke="#ffebff" d="M12 7h1" />
<path stroke="#007900" d="M13 7h1" />
<path stroke="#005900" d="M14 7h1" />
<path stroke="#fffb5d" d="M15 7h1" />
<path stroke="#ffe184" d="M16 7h1" />
<path stroke="#ffc080" d="M17 7h1" />
<path stroke="#cbff00" d="M18 7h1" />
<path stroke="#ffda9c" d="M19 7h1" />
<path stroke="#ffc716" d="M21 7h1" />
<path stroke="#d4fa06" d="M22 7h1" />
<path stroke="#ffe514" d="M23 7h1" />
<path stroke="#7fe100" d="M24 7h1" />
<path stroke="#00001a" d="M25 7h1" />
<path stroke="#f8d500" d="M26 7h1" />
<path stroke="#eab700" d="M27 7h1" />
<path stroke="#ffeb2d" d="M28 7h1" />
<path stroke="#e8ff00" d="M29 7h1" />
<path stroke="#f7f600" d="M30 7h1" />
<path stroke="#ffff37" d="M32 7h1" />
<path stroke="#264f27" d="M33 7h1" />
<path stroke="#ba4b00" d="M35 7h1" />
<path stroke="#ffff91" d="M10 8h1M21 16h1" />
<path stroke="#fc9c9f" d="M11 8h1" />
<path stroke="#ffff51" d="M12 8h1" />
<path stroke="#e1ff09" d="M13 8h1" />
<path stroke="#ffff50" d="M14 8h1" />
<path stroke="#d6a500" d="M15 8h1" />
<path stroke="#eabc00" d="M16 8h1" />
<path stroke="#facc00" d="M17 8h1" />
<path stroke="#d7a200" d="M18 8h1" />
<path stroke="#ffff3e" d="M19 8h1" />
<path stroke="#dffc00" d="M20 8h1" />
<path stroke="#ffdf08" d="M21 8h1" />
<path stroke="#ffd200" d="M22 8h1" />
<path stroke="#d3f42f" d="M23 8h1" />
<path stroke="#ffe40a" d="M24 8h1" />
<path stroke="#00000f" d="M25 8h1" />
<path stroke="#fcff0b" d="M26 8h1" />
<path stroke="#ffb81e" d="M27 8h1" />
<path stroke="#f2e200" d="M28 8h1" />
<path stroke="#e65323" d="M29 8h1" />
<path stroke="#f8ff39" d="M30 8h1" />
<path stroke="#ffb400" d="M31 8h1" />
<path stroke="#432233" d="M32 8h1" />
<path stroke="#b6ff00" d="M34 8h1" />
<path stroke="#352c04" d="M8 9h1" />
<path stroke="#f8ff5f" d="M10 9h1" />
<path stroke="#1c1d00" d="M11 9h1" />
<path stroke="#ffc200" d="M12 9h1" />
<path stroke="#ff7700" d="M13 9h1" />
<path stroke="#ff9103" d="M14 9h1" />
<path stroke="#faf728" d="M15 9h1" />
<path stroke="#f9a400" d="M16 9h1" />
<path stroke="#d8c52c" d="M17 9h1" />
<path stroke="#ffb501" d="M18 9h1" />
<path stroke="#ffad40" d="M19 9h1" />
<path stroke="#c6e547" d="M20 9h1" />
<path stroke="#ffea00" d="M21 9h1" />
<path stroke="#fff710" d="M22 9h1" />
<path stroke="#ffeb00" d="M23 9h1" />
<path stroke="#ecaa01" d="M24 9h1" />
<path stroke="#000017" d="M26 9h1" />
<path stroke="#003200" d="M27 9h1" />
<path stroke="#ffff0d" d="M28 9h1M13 12h1" />
<path stroke="#ffcc18" d="M29 9h1" />
<path stroke="#b9ce00" d="M30 9h1" />
<path stroke="#c4ff00" d="M31 9h1" />
<path stroke="#c53e0b" d="M32 9h1" />
<path stroke="#294220" d="M33 9h1" />
<path stroke="#035100" d="M35 9h1" />
<path stroke="#4b8300" d="M8 10h1" />
<path stroke="#d51e07" d="M9 10h1" />
<path stroke="#c6ff00" d="M10 10h1" />
<path stroke="#bbdf84" d="M11 10h1" />
<path stroke="#99ff53" d="M12 10h1" />
<path stroke="#d2ee2a" d="M13 10h1" />
<path stroke="#ffa510" d="M14 10h1" />
<path stroke="#fed519" d="M15 10h1" />
<path stroke="#ff9f00" d="M16 10h1" />
<path stroke="#fccf26" d="M17 10h1" />
<path stroke="#b6f500" d="M18 10h1" />
<path stroke="#ff857a" d="M19 10h1" />
<path stroke="#ffff0f" d="M21 10h1" />
<path stroke="#ffc300" d="M22 10h1" />
<path stroke="#fc9922" d="M23 10h1" />
<path stroke="#ffc400" d="M24 10h1" />
<path stroke="#ffe300" d="M25 10h1" />
<path stroke="#28002a" d="M27 10h1" />
<path stroke="#000100" d="M28 10h1" />
<path stroke="#ff0018" d="M31 10h1" />
<path stroke="#f02100" d="M32 10h1" />
<path stroke="#5a0100" d="M33 10h1" />
<path stroke="#b8bc37" d="M34 10h1" />
<path stroke="#ef2823" d="M35 10h1" />
<path stroke="#997c00" d="M36 10h1" />
<path stroke="#5e1d00" d="M37 10h1" />
<path stroke="#6a2f00" d="M7 11h1" />
<path stroke="#f7ffa5" d="M9 11h1" />
<path stroke="#fbc33b" d="M10 11h1" />
<path stroke="#f1fdb9" d="M11 11h1" />
<path stroke="#dc9e6d" d="M12 11h1" />
<path stroke="#ff9d02" d="M13 11h1" />
<path stroke="#fff135" d="M14 11h1" />
<path stroke="#ffc900" d="M15 11h1" />
<path stroke="#ff9c00" d="M16 11h1" />
<path stroke="#ffc803" d="M17 11h1" />
<path stroke="#e7d700" d="M18 11h1" />
<path stroke="#f3ff0a" d="M19 11h1" />
<path stroke="#540700" d="M20 11h1" />
<path stroke="#a00277" d="M21 11h1" />
<path stroke="#ffc600" d="M23 11h1" />
<path stroke="#ff872a" d="M24 11h1" />
<path stroke="#ff8b00" d="M25 11h1" />
<path stroke="#f5ff3f" d="M26 11h1" />
<path stroke="#f4f302" d="M27 11h1" />
<path stroke="#dcff00" d="M28 11h1" />
<path stroke="#001100" d="M30 11h1" />
<path stroke="#ffff04" d="M31 11h1" />
<path stroke="#431800" d="M32 11h1" />
<path stroke="#ff7e1e" d="M33 11h1" />
<path stroke="#1b1100" d="M34 11h1" />
<path stroke="#ff8549" d="M35 11h1" />
<path stroke="#006a00" d="M36 11h1" />
<path stroke="#5b4334" d="M37 11h1" />
<path stroke="#7d8c35" d="M8 12h1" />
<path stroke="#3e0000" d="M9 12h1" />
<path stroke="#fafd3a" d="M10 12h1" />
<path stroke="#f9ffff" d="M11 12h1" />
<path stroke="#ffdb00" d="M12 12h1" />
<path stroke="#a24100" d="M14 12h1" />
<path stroke="#cff9c1" d="M15 12h1" />
<path stroke="#ffed6a" d="M16 12h1" />
<path stroke="#ff7e00" d="M17 12h1" />
<path stroke="#c1ff00" d="M18 12h1" />
<path stroke="#e7b04f" d="M19 12h1" />
<path stroke="#ff8172" d="M20 12h1" />
<path stroke="#f6ff4c" d="M21 12h1" />
<path stroke="#000400" d="M23 12h1" />
<path stroke="#ff8905" d="M24 12h1" />
<path stroke="#b6e20e" d="M25 12h1" />
<path stroke="#fbde00" d="M26 12h1" />
<path stroke="#ffb500" d="M27 12h1M12 20h1" />
<path stroke="#110000" d="M29 12h1" />
<path stroke="#fff900" d="M30 12h1M18 19h1" />
<path stroke="#ffe400" d="M31 12h1" />
<path stroke="#1e004b" d="M32 12h1" />
<path stroke="#ff3400" d="M33 12h1" />
<path stroke="#ff7e14" d="M34 12h1" />
<path stroke="#002214" d="M35 12h1" />
<path stroke="#5a3200" d="M37 12h1" />
<path stroke="#ff5c3e" d="M6 13h1" />
<path stroke="#9b7800" d="M7 13h1" />
<path stroke="#5c0700" d="M8 13h1" />
<path stroke="#ffff94" d="M9 13h1" />
<path stroke="#eaff00" d="M12 13h1" />
<path stroke="#ffdeb2" d="M13 13h1" />
<path stroke="#daffbe" d="M14 13h1" />
<path stroke="#fa98a6" d="M15 13h1" />
<path stroke="#366b18" d="M16 13h1" />
<path stroke="#ffffb1" d="M17 13h1" />
<path stroke="#4f2358" d="M18 13h1" />
<path stroke="#b5ff94" d="M19 13h1" />
<path stroke="#ffff53" d="M20 13h1" />
<path stroke="#4a7600" d="M21 13h1" />
<path stroke="#810441" d="M22 13h1" />
<path stroke="#566f1b" d="M23 13h1" />
<path stroke="#e7e50b" d="M24 13h1" />
<path stroke="#dbba00" d="M25 13h1" />
<path stroke="#99a100" d="M26 13h1" />
<path stroke="#ffff14" d="M27 13h1" />
<path stroke="#ee9849" d="M28 13h1" />
<path stroke="#1a1a00" d="M30 13h1" />
<path stroke="#f1c6ff" d="M31 13h1" />
<path stroke="#ffffff" d="M32 13h1M33 14h1M5 16h1M32 16h1M17 18h1M31 18h1M20 19h1M24 20h1M16 21h1M18 21h1M28 21h1" />
<path stroke="#530000" d="M33 13h1" />
<path stroke="#bc0500" d="M35 13h1" />
<path stroke="#6f0600" d="M37 13h1" />
<path stroke="#58ae22" d="M0 14h1" />
<path stroke="#00781f" d="M3 14h1" />
<path stroke="#248500" d="M5 14h1" />
<path stroke="#2e8005" d="M7 14h1" />
<path stroke="#feebac" d="M8 14h1" />
<path stroke="#103200" d="M9 14h1" />
<path stroke="#590200" d="M10 14h1" />
<path stroke="#d5fffd" d="M11 14h1" />
<path stroke="#6f2275" d="M12 14h1" />
<path stroke="#d8ba60" d="M13 14h1" />
<path stroke="#c6ff5a" d="M14 14h1" />
<path stroke="#caff4d" d="M15 14h1" />
<path stroke="#d6805a" d="M16 14h1" />
<path stroke="#ffbb48" d="M17 14h1" />
<path stroke="#fff308" d="M18 14h1" />
<path stroke="#ffbf7f" d="M19 14h1" />
<path stroke="#bfdca2" d="M20 14h1" />
<path stroke="#ffc2c4" d="M21 14h1" />
<path stroke="#ffff01" d="M22 14h1" />
<path stroke="#fdfd00" d="M23 14h1" />
<path stroke="#faf83d" d="M24 14h1" />
<path stroke="#272d00" d="M25 14h1" />
<path stroke="#ffd519" d="M27 14h1" />
<path stroke="#f7ff0f" d="M28 14h1" />
<path stroke="#ffe731" d="M29 14h1" />
<path stroke="#a0ffff" d="M30 14h1" />
<path stroke="#3d8e21" d="M31 14h1" />
<path stroke="#ffdf6b" d="M32 14h1" />
<path stroke="#a90000" d="M34 14h1" />
<path stroke="#001014" d="M35 14h1" />
<path stroke="#3b3400" d="M36 14h1" />
<path stroke="#30b600" d="M2 15h1" />
<path stroke="#ffe806" d="M3 15h1" />
<path stroke="#6f001f" d="M4 15h1" />
<path stroke="#c50000" d="M5 15h1" />
<path stroke="#817a00" d="M6 15h1" />
<path stroke="#935300" d="M7 15h1" />
<path stroke="#004000" d="M8 15h1" />
<path stroke="#ffffbb" d="M9 15h1" />
<path stroke="#a9ff58" d="M10 15h1" />
<path stroke="#ffd567" d="M11 15h1" />
<path stroke="#ffcf4b" d="M12 15h1" />
<path stroke="#d9ff50" d="M13 15h1" />
<path stroke="#ffff5a" d="M14 15h1" />
<path stroke="#fee848" d="M15 15h1" />
<path stroke="#ebe353" d="M16 15h1" />
<path stroke="#ffff3c" d="M18 15h1" />
<path stroke="#ffc64d" d="M19 15h1" />
<path stroke="#f1c900" d="M20 15h1" />
<path stroke="#e2d900" d="M21 15h1" />
<path stroke="#d8fa0f" d="M22 15h1" />
<path stroke="#c91939" d="M23 15h1" />
<path stroke="#ecb800" d="M24 15h1" />
<path stroke="#ff8900" d="M26 15h1" />
<path stroke="#ffcb22" d="M27 15h1" />
<path stroke="#c3ffce" d="M28 15h1" />
<path stroke="#ffdff0" d="M30 15h1" />
<path stroke="#985a11" d="M31 15h1" />
<path stroke="#3f2200" d="M33 15h1" />
<path stroke="#7b590a" d="M1 16h1" />
<path stroke="#7a3c00" d="M2 16h1" />
<path stroke="#fff5ff" d="M4 16h1" />
<path stroke="#790000" d="M6 16h1" />
<path stroke="#37d200" d="M7 16h1" />
<path stroke="#fffffc" d="M8 16h1M6 18h1" />
<path stroke="#ffb11c" d="M9 16h1" />
<path stroke="#e6e16e" d="M10 16h1" />
<path stroke="#ffdd6d" d="M11 16h1" />
<path stroke="#ffd28a" d="M12 16h1" />
<path stroke="#e4dd85" d="M13 16h1" />
<path stroke="#ffff9f" d="M14 16h1" />
<path stroke="#fee778" d="M15 16h1" />
<path stroke="#ffffb8" d="M16 16h1" />
<path stroke="#ffe56b" d="M17 16h1" />
<path stroke="#fbfb8c" d="M18 16h1" />
<path stroke="#dcfe35" d="M19 16h1" />
<path stroke="#c8f472" d="M20 16h1" />
<path stroke="#ffe814" d="M22 16h1" />
<path stroke="#ffde93" d="M23 16h1" />
<path stroke="#9b6900" d="M24 16h1" />
<path stroke="#edcb00" d="M25 16h1" />
<path stroke="#ffaa00" d="M27 16h1" />
<path stroke="#fe7f00" d="M28 16h1" />
<path stroke="#f5fcff" d="M29 16h1" />
<path stroke="#fff28d" d="M30 16h1" />
<path stroke="#101600" d="M31 16h1" />
<path stroke="#201800" d="M33 16h1" />
<path stroke="#a54f00" d="M1 17h1" />
<path stroke="#bc5a00" d="M2 17h1" />
<path stroke="#e1fdff" d="M3 17h1" />
<path stroke="#efa31b" d="M4 17h1" />
<path stroke="#247e00" d="M5 17h1" />
<path stroke="#eeff4f" d="M6 17h1" />
<path stroke="#1e0100" d="M7 17h1" />
<path stroke="#98b400" d="M8 17h1" />
<path stroke="#ff4100" d="M9 17h1" />
<path stroke="#ffff4e" d="M10 17h1" />
<path stroke="#c6ff97" d="M11 17h1" />
<path stroke="#d7fb71" d="M12 17h1" />
<path stroke="#ffff63" d="M13 17h1" />
<path stroke="#fdeb00" d="M14 17h1" />
<path stroke="#fffb50" d="M15 17h1" />
<path stroke="#ffefbc" d="M16 17h1" />
<path stroke="#faff23" d="M17 17h1" />
<path stroke="#aa77be" d="M18 17h1" />
<path stroke="#e0be00" d="M19 17h1" />
<path stroke="#f6fe3b" d="M20 17h1" />
<path stroke="#ff9d00" d="M21 17h1" />
<path stroke="#343200" d="M22 17h1" />
<path stroke="#b08005" d="M23 17h1" />
<path stroke="#ff7900" d="M24 17h1M18 18h1" />
<path stroke="#f0ff17" d="M25 17h1" />
<path stroke="#daffff" d="M26 17h1" />
<path stroke="#b0ffd4" d="M27 17h1" />
<path stroke="#ffd4ff" d="M28 17h1" />
<path stroke="#ffff61" d="M29 17h1" />
<path stroke="#fbff98" d="M30 17h1" />
<path stroke="#feff8a" d="M31 17h1" />
<path stroke="#ffffdf" d="M32 17h1" />
<path stroke="#71862f" d="M1 18h1" />
<path stroke="#004c1c" d="M2 18h1" />
<path stroke="#546200" d="M3 18h1" />
<path stroke="#fbf7ff" d="M4 18h1" />
<path stroke="#ff73e4" d="M5 18h1" />
<path stroke="#b7ff00" d="M7 18h1" />
<path stroke="#0f3c10" d="M8 18h1" />
<path stroke="#abff00" d="M9 18h1" />
<path stroke="#ffffd6" d="M10 18h1" />
<path stroke="#ff2f16" d="M12 18h1" />
<path stroke="#99e000" d="M13 18h1" />
<path stroke="#fff55f" d="M14 18h1" />
<path stroke="#ffda9e" d="M15 18h1" />
<path stroke="#c5ff02" d="M16 18h1" />
<path stroke="#7dff00" d="M19 18h1" />
<path stroke="#8b004c" d="M20 18h1" />
<path stroke="#5a6100" d="M21 18h1" />
<path stroke="#ff7405" d="M22 18h1" />
<path stroke="#feff00" d="M23 18h1" />
<path stroke="#a6ffff" d="M24 18h1" />
<path stroke="#b6ee00" d="M25 18h1" />
<path stroke="#a9ff96" d="M26 18h1" />
<path stroke="#f6fff8" d="M27 18h1" />
<path stroke="#ffb26f" d="M28 18h1" />
<path stroke="#a0d9ff" d="M29 18h1" />
<path stroke="#8f0005" d="M30 18h1" />
<path stroke="#5c4800" d="M32 18h1" />
<path stroke="#000e00" d="M11 19h1" />
<path stroke="#edf200" d="M12 19h1" />
<path stroke="#f6cca7" d="M13 19h1" />
<path stroke="#008500" d="M14 19h1" />
<path stroke="#b4ff00" d="M15 19h1" />
<path stroke="#fbf1c6" d="M16 19h1" />
<path stroke="#a57900" d="M17 19h1" />
<path stroke="#8c0000" d="M19 19h1" />
<path stroke="#e04f00" d="M21 19h1" />
<path stroke="#fab7ff" d="M22 19h1" />
<path stroke="#d53eb0" d="M23 19h1" />
<path stroke="#ffffda" d="M24 19h1" />
<path stroke="#6dcfff" d="M25 19h1" />
<path stroke="#ffff79" d="M26 19h1" />
<path stroke="#e7dfda" d="M27 19h1" />
<path stroke="#ffebd7" d="M28 19h1" />
<path stroke="#ffffbd" d="M29 19h1M20 23h1" />
<path stroke="#74016a" d="M30 19h1" />
<path stroke="#122d00" d="M31 19h1" />
<path stroke="#ffff3f" d="M15 20h1" />
<path stroke="#df8d00" d="M16 20h1" />
<path stroke="#cae6ff" d="M17 20h1" />
<path stroke="#a2a700" d="M18 20h1" />
<path stroke="#e4ff00" d="M19 20h1" />
<path stroke="#f7dece" d="M20 20h1" />
<path stroke="#faffff" d="M21 20h1" />
<path stroke="#cdf2be" d="M22 20h1" />
<path stroke="#fffcc6" d="M23 20h1" />
<path stroke="#e5ff98" d="M25 20h1" />
<path stroke="#f5f2b3" d="M26 20h1" />
<path stroke="#ffffb0" d="M27 20h1" />
<path stroke="#b4fff4" d="M31 20h1" />
<path stroke="#69a200" d="M13 21h1" />
<path stroke="#d28a2b" d="M14 21h1" />
<path stroke="#200000" d="M15 21h1" />
<path stroke="#535500" d="M17 21h1" />
<path stroke="#fffff5" d="M19 21h1" />
<path stroke="#ff90f1" d="M20 21h1" />
<path stroke="#b8ffff" d="M21 21h1" />
<path stroke="#b0ffec" d="M22 21h1" />
<path stroke="#e5ffc1" d="M23 21h1" />
<path stroke="#e146a6" d="M24 21h1" />
<path stroke="#cdfff3" d="M25 21h1" />
<path stroke="#ffffe7" d="M26 21h1" />
<path stroke="#080000" d="M27 21h1" />
<path stroke="#a01900" d="M30 21h1" />
<path stroke="#037400" d="M31 21h1" />
<path stroke="#670002" d="M16 22h1" />
<path stroke="#2bcf00" d="M17 22h1" />
<path stroke="#420000" d="M18 22h1" />
<path stroke="#9cffc5" d="M19 22h1" />
<path stroke="#d99eff" d="M20 22h1" />
<path stroke="#224700" d="M21 22h1" />
<path stroke="#ffd1ff" d="M23 22h1" />
<path stroke="#e5a1a3" d="M24 22h1" />
<path stroke="#fff8ff" d="M25 22h1" />
<path stroke="#ffc0ff" d="M26 22h1" />
<path stroke="#0cbd00" d="M27 22h1" />
<path stroke="#436000" d="M28 22h1" />
<path stroke="#1d0000" d="M19 23h1" />
<path stroke="#d4ffe2" d="M21 23h1" />
<path stroke="#004b00" d="M22 23h1" />
<path stroke="#f2ffff" d="M23 23h1" />
<path stroke="#f2f3e1" d="M24 23h1" />
</svg>