<svg xmlns="http://www.w3.org/2000/svg" viewBox="0 -0.5 38 24" shape-rendering="crispEdges">
<metadata>Made with Pixels to Svg https://codepen.io/shshaw/pen/XbxvNj</metadata>
<path stroke="#7e4f00" d="M21 0h1" />
<path stroke="#1b3600" d="M23 0h1" />
<path stroke="#ffff31" d="M24 0h1" />
<path stroke="#e8e8b5" d="M25 0h1" />
<path stroke="#f0fae8" d="M26 0h1" />
<path stroke="#f1c197" d="M27 0h1" />
<path stroke="#4b0000" d="M28 0h1" />
<path stroke="#006e00" d="M29 0h1" />
<path stroke="#702900" d="M20 1h1" />
<path stroke="#ffffff" d="M23 1h1M7 16h1M28 16h1M5 17h1M21 18h1M30 18h1M12 19h1M14 19h1M16 19h1M28 20h2M18 21h1M22 22h1" />
<path stroke="#403d00" d="M24 1h1" />
<path stroke="#3c4300" d="M25 1h1" />
<path stroke="#ffa900" d="M26 1h1M32 6h1M20 9h1" />
<path stroke="#d9ff50" d="M27 1h1" />
<path stroke="#be0000" d="M28 1h1" />
<path stroke="#341400" d="M29 1h1" />
<path stroke="#ffc8c6" d="M30 1h1" />
<path stroke="#fffba1" d="M22 2h1" />
<path stroke="#ffb3ad" d="M23 2h1" />
<path stroke="#ff5300" d="M24 2h1" />
<path stroke="#ffff65" d="M25 2h1" />
<path stroke="#feef00" d="M26 2h1" />
<path stroke="#cb7463" d="M27 2h1" />
<path stroke="#ffff00" d="M28 2h1M23 3h1M33 4h1M20 5h1M31 5h1M27 6h1M23 7h1M26 7h1M32 7h1M34 7h1M30 8h1M12 10h1M23 10h1M31 10h1M11 11h1M14 11h1M26 11h1M26 14h1M28 14h1M12 15h1M16 16h1M22 16h1M0 17h1M2 17h1" />
<path stroke="#001000" d="M29 2h1" />
<path stroke="#ff8b1d" d="M30 2h1" />
<path stroke="#c9ff70" d="M32 2h1" />
<path stroke="#7c5802" d="M17 3h1" />
<path stroke="#fffab1" d="M20 3h1" />
<path stroke="#e9ff28" d="M21 3h1" />
<path stroke="#ede403" d="M22 3h1" />
<path stroke="#ffb000" d="M24 3h1M29 5h1" />
<path stroke="#f8ff23" d="M25 3h1" />
<path stroke="#ff8700" d="M26 3h1" />
<path stroke="#ffec00" d="M27 3h1" />
<path stroke="#ffb06c" d="M28 3h1" />
<path stroke="#faffb1" d="M29 3h1" />
<path stroke="#ff4b00" d="M30 3h1" />
<path stroke="#ffff01" d="M31 3h1" />
<path stroke="#ffff1e" d="M17 4h1" />
<path stroke="#633a21" d="M18 4h1" />
<path stroke="#fffba8" d="M19 4h1" />
<path stroke="#dbd800" d="M20 4h1" />
<path stroke="#ff7500" d="M21 4h1" />
<path stroke="#cac50b" d="M22 4h1" />
<path stroke="#b8dc14" d="M23 4h1" />
<path stroke="#ffd900" d="M24 4h1" />
<path stroke="#ffdc00" d="M25 4h1" />
<path stroke="#ffe500" d="M26 4h1" />
<path stroke="#85f72a" d="M27 4h1" />
<path stroke="#bebc00" d="M28 4h1" />
<path stroke="#ffee1b" d="M29 4h1" />
<path stroke="#fff900" d="M30 4h1M23 9h1" />
<path stroke="#ffff7d" d="M31 4h1M25 8h1" />
<path stroke="#555d00" d="M32 4h1" />
<path stroke="#440400" d="M13 5h1" />
<path stroke="#ffff3b" d="M15 5h1" />
<path stroke="#ffdc61" d="M16 5h1" />
<path stroke="#ffb68e" d="M17 5h1" />
<path stroke="#00210e" d="M18 5h1" />
<path stroke="#d6b668" d="M19 5h1" />
<path stroke="#dab30b" d="M21 5h1" />
<path stroke="#ff7700" d="M22 5h1" />
<path stroke="#ddff1a" d="M23 5h1" />
<path stroke="#c0a700" d="M24 5h1" />
<path stroke="#c5ef11" d="M25 5h1" />
<path stroke="#ffe766" d="M26 5h1" />
<path stroke="#ffe54c" d="M27 5h1" />
<path stroke="#ffd800" d="M28 5h1" />
<path stroke="#ddd307" d="M30 5h1" />
<path stroke="#fe7f00" d="M32 5h1" />
<path stroke="#ffd127" d="M33 5h1" />
<path stroke="#ffd203" d="M34 5h1" />
<path stroke="#05021f" d="M11 6h1" />
<path stroke="#ffc860" d="M12 6h1" />
<path stroke="#ffda6e" d="M13 6h1" />
<path stroke="#002b45" d="M14 6h1" />
<path stroke="#ffff63" d="M15 6h1M24 17h1" />
<path stroke="#89ff41" d="M16 6h1" />
<path stroke="#e5ff6f" d="M17 6h1" />
<path stroke="#ffffa9" d="M18 6h1" />
<path stroke="#ffff02" d="M19 6h1" />
<path stroke="#dad200" d="M20 6h1" />
<path stroke="#caca00" d="M21 6h1" />
<path stroke="#fffd09" d="M22 6h1" />
<path stroke="#e8d335" d="M23 6h1" />
<path stroke="#ffe32d" d="M24 6h1" />
<path stroke="#ff7b12" d="M25 6h1" />
<path stroke="#fff800" d="M26 6h1" />
<path stroke="#db9100" d="M28 6h1" />
<path stroke="#f9693b" d="M29 6h1" />
<path stroke="#ffff04" d="M30 6h1M20 17h1" />
<path stroke="#ff4e00" d="M31 6h1" />
<path stroke="#ecff00" d="M33 6h1" />
<path stroke="#f3ff16" d="M11 7h1" />
<path stroke="#f2ff65" d="M12 7h1" />
<path stroke="#899e15" d="M13 7h1" />
<path stroke="#ffff62" d="M14 7h1" />
<path stroke="#ffbeb8" d="M15 7h1" />
<path stroke="#9cb600" d="M16 7h1" />
<path stroke="#ffff42" d="M17 7h1" />
<path stroke="#fff500" d="M18 7h1M28 7h1" />
<path stroke="#fffe90" d="M19 7h1" />
<path stroke="#ffff5e" d="M20 7h1" />
<path stroke="#eaa43f" d="M21 7h1" />
<path stroke="#fffd00" d="M22 7h1M13 9h1M33 12h1" />
<path stroke="#ff843c" d="M24 7h1" />
<path stroke="#ceff00" d="M25 7h1" />
<path stroke="#000000" d="M27 7h1M25 9h1M27 9h1M26 10h1M4 15h1M15 20h1M23 23h1" />
<path stroke="#ffff19" d="M29 7h1" />
<path stroke="#ffef00" d="M30 7h1" />
<path stroke="#fff83c" d="M31 7h1" />
<path stroke="#ffc700" d="M33 7h1" />
<path stroke="#ffebaa" d="M10 8h1" />
<path stroke="#e4eedd" d="M11 8h1" />
<path stroke="#ffc226" d="M12 8h1" />
<path stroke="#ffff70" d="M13 8h1" />
<path stroke="#e6ff00" d="M14 8h1" />
<path stroke="#ffd9b7" d="M15 8h1" />
<path stroke="#8fffff" d="M16 8h1" />
<path stroke="#e4d000" d="M17 8h1" />
<path stroke="#fb9f1f" d="M18 8h1" />
<path stroke="#f5c300" d="M19 8h1" />
<path stroke="#d89600" d="M20 8h1" />
<path stroke="#caff00" d="M21 8h1" />
<path stroke="#ffb700" d="M22 8h1" />
<path stroke="#ecd22c" d="M23 8h1" />
<path stroke="#ffd555" d="M24 8h1" />
<path stroke="#000019" d="M26 8h1" />
<path stroke="#ffff57" d="M27 8h1" />
<path stroke="#db3a00" d="M28 8h1" />
<path stroke="#fe9d00" d="M29 8h1" />
<path stroke="#007047" d="M31 8h1" />
<path stroke="#ffcf00" d="M32 8h1" />
<path stroke="#070000" d="M33 8h1" />
<path stroke="#002100" d="M34 8h1" />
<path stroke="#ec6f00" d="M35 8h1" />
<path stroke="#ffffe2" d="M10 9h1" />
<path stroke="#f6b400" d="M11 9h1" />
<path stroke="#ffff2d" d="M12 9h1" />
<path stroke="#ffcc00" d="M14 9h1" />
<path stroke="#ffc400" d="M15 9h1" />
<path stroke="#f9ff00" d="M16 9h1M23 12h1" />
<path stroke="#ffa953" d="M17 9h1" />
<path stroke="#aeff0e" d="M18 9h1" />
<path stroke="#ff9800" d="M19 9h1M33 10h1" />
<path stroke="#f1f515" d="M21 9h1" />
<path stroke="#ffd506" d="M22 9h1" />
<path stroke="#ffff52" d="M24 9h1M14 16h1" />
<path stroke="#3f000b" d="M26 9h1" />
<path stroke="#ffff32" d="M28 9h1M19 18h1" />
<path stroke="#eafe4f" d="M29 9h1" />
<path stroke="#612700" d="M30 9h1" />
<path stroke="#fc4011" d="M31 9h1" />
<path stroke="#ffc93a" d="M32 9h1" />
<path stroke="#000a00" d="M33 9h1" />
<path stroke="#feec00" d="M34 9h1" />
<path stroke="#006f1b" d="M35 9h1" />
<path stroke="#2c400f" d="M36 9h1" />
<path stroke="#9a9300" d="M7 10h1" />
<path stroke="#000c00" d="M10 10h1" />
<path stroke="#ffff7f" d="M11 10h1" />
<path stroke="#3b4f04" d="M13 10h1" />
<path stroke="#f0ff02" d="M14 10h1" />
<path stroke="#ffffb1" d="M15 10h1" />
<path stroke="#ffff8f" d="M16 10h1" />
<path stroke="#900000" d="M17 10h1" />
<path stroke="#c6ff00" d="M18 10h1" />
<path stroke="#ffffa5" d="M19 10h1" />
<path stroke="#240000" d="M20 10h1" />
<path stroke="#8c0000" d="M21 10h1" />
<path stroke="#9fff00" d="M22 10h1" />
<path stroke="#ffff47" d="M24 10h1" />
<path stroke="#000034" d="M25 10h1" />
<path stroke="#000039" d="M27 10h1" />
<path stroke="#ffff35" d="M28 10h1" />
<path stroke="#001900" d="M29 10h1" />
<path stroke="#ffff0d" d="M30 10h1" />
<path stroke="#ff4f00" d="M32 10h1" />
<path stroke="#00203c" d="M34 10h1" />
<path stroke="#ff9d00" d="M35 10h1" />
<path stroke="#102300" d="M6 11h1" />
<path stroke="#bd5c00" d="M7 11h1" />
<path stroke="#b7ff82" d="M9 11h1" />
<path stroke="#050200" d="M10 11h1" />
<path stroke="#ffac00" d="M12 11h1" />
<path stroke="#fcff65" d="M13 11h1" />
<path stroke="#3a091e" d="M15 11h1" />
<path stroke="#843b01" d="M16 11h1" />
<path stroke="#049000" d="M17 11h1" />
<path stroke="#ffaa9e" d="M18 11h1" />
<path stroke="#fff02d" d="M19 11h1" />
<path stroke="#ffd8b1" d="M20 11h1" />
<path stroke="#298500" d="M21 11h1" />
<path stroke="#ffff03" d="M22 11h1" />
<path stroke="#773846" d="M23 11h1" />
<path stroke="#059e00" d="M24 11h1" />
<path stroke="#ffff33" d="M25 11h1M12 13h1" />
<path stroke="#ffff28" d="M27 11h1" />
<path stroke="#fff300" d="M28 11h1" />
<path stroke="#fffd0b" d="M29 11h1" />
<path stroke="#dcb702" d="M30 11h1" />
<path stroke="#c4a40a" d="M31 11h1" />
<path stroke="#e06515" d="M32 11h1" />
<path stroke="#f14c0d" d="M33 11h1" />
<path stroke="#f5ff01" d="M34 11h1" />
<path stroke="#ff5900" d="M35 11h1" />
<path stroke="#493600" d="M36 11h1" />
<path stroke="#720000" d="M7 12h1" />
<path stroke="#ffc658" d="M8 12h1" />
<path stroke="#ffdb4e" d="M9 12h1" />
<path stroke="#cbf97e" d="M10 12h1" />
<path stroke="#c8ff0e" d="M11 12h1" />
<path stroke="#b4ff49" d="M12 12h1" />
<path stroke="#140047" d="M13 12h1" />
<path stroke="#00002f" d="M14 12h1" />
<path stroke="#ffff2e" d="M15 12h1" />
<path stroke="#ffe3d0" d="M16 12h1" />
<path stroke="#fffa00" d="M17 12h1" />
<path stroke="#e7f962" d="M18 12h1" />
<path stroke="#271576" d="M19 12h1" />
<path stroke="#005f00" d="M20 12h1" />
<path stroke="#270008" d="M21 12h1" />
<path stroke="#75663f" d="M22 12h1" />
<path stroke="#ffaf14" d="M24 12h1" />
<path stroke="#e6b330" d="M25 12h1" />
<path stroke="#ffc334" d="M26 12h1" />
<path stroke="#ffd500" d="M27 12h1" />
<path stroke="#ff4a00" d="M28 12h1" />
<path stroke="#f0ff22" d="M29 12h1" />
<path stroke="#ff9700" d="M30 12h1" />
<path stroke="#fff209" d="M31 12h1" />
<path stroke="#7c0500" d="M32 12h1" />
<path stroke="#ffba00" d="M34 12h1" />
<path stroke="#9f5700" d="M35 12h1" />
<path stroke="#ffb61b" d="M36 12h1" />
<path stroke="#ff6900" d="M37 12h1" />
<path stroke="#6a4616" d="M5 13h1" />
<path stroke="#bcf423" d="M6 13h1" />
<path stroke="#ffff9e" d="M7 13h1" />
<path stroke="#6b0f00" d="M8 13h1" />
<path stroke="#fefdff" d="M9 13h1" />
<path stroke="#ffb46a" d="M10 13h1" />
<path stroke="#e2b336" d="M11 13h1" />
<path stroke="#dec386" d="M13 13h1" />
<path stroke="#ffff64" d="M14 13h1" />
<path stroke="#fffc6e" d="M15 13h1" />
<path stroke="#ff4a14" d="M16 13h1" />
<path stroke="#a8ffa9" d="M17 13h1" />
<path stroke="#d7c74f" d="M18 13h1" />
<path stroke="#ffff54" d="M19 13h1" />
<path stroke="#ff75aa" d="M20 13h1" />
<path stroke="#ffffa3" d="M21 13h1" />
<path stroke="#f2ff9a" d="M22 13h1" />
<path stroke="#b5dfe3" d="M23 13h1" />
<path stroke="#b66600" d="M24 13h1" />
<path stroke="#ffff45" d="M25 13h1" />
<path stroke="#b7a300" d="M26 13h1" />
<path stroke="#f8eb08" d="M27 13h1" />
<path stroke="#b7ff3e" d="M28 13h1" />
<path stroke="#3e0800" d="M29 13h1" />
<path stroke="#ffff3f" d="M30 13h1" />
<path stroke="#61006a" d="M31 13h1" />
<path stroke="#96672f" d="M32 13h1" />
<path stroke="#06005e" d="M34 13h1" />
<path stroke="#ffd926" d="M35 13h1" />
<path stroke="#424241" d="M37 13h1" />
<path stroke="#7e2b00" d="M0 14h1" />
<path stroke="#007611" d="M4 14h1" />
<path stroke="#ffcca8" d="M6 14h1" />
<path stroke="#fffff1" d="M7 14h1" />
<path stroke="#ffff84" d="M8 14h1" />
<path stroke="#b9aa81" d="M9 14h1" />
<path stroke="#ffcfbb" d="M10 14h1" />
<path stroke="#faffc6" d="M11 14h1" />
<path stroke="#ffb100" d="M12 14h1" />
<path stroke="#ffee11" d="M13 14h1" />
<path stroke="#fff413" d="M14 14h1" />
<path stroke="#e8e01a" d="M15 14h1" />
<path stroke="#ffa2a5" d="M16 14h1" />
<path stroke="#ff7200" d="M17 14h1" />
<path stroke="#ffe196" d="M18 14h1" />
<path stroke="#bdbb00" d="M19 14h1" />
<path stroke="#e0ff8a" d="M20 14h1" />
<path stroke="#fff7b2" d="M21 14h1" />
<path stroke="#e8e300" d="M22 14h1" />
<path stroke="#d1b400" d="M23 14h1" />
<path stroke="#ffb806" d="M24 14h1" />
<path stroke="#09023c" d="M25 14h1" />
<path stroke="#ffb64b" d="M27 14h1" />
<path stroke="#f6ff00" d="M29 14h1" />
<path stroke="#ffff79" d="M30 14h1M5 15h1" />
<path stroke="#ffffde" d="M31 14h1" />
<path stroke="#370001" d="M32 14h1" />
<path stroke="#d74d00" d="M34 14h1" />
<path stroke="#7f0123" d="M35 14h1" />
<path stroke="#008b00" d="M36 14h1" />
<path stroke="#ffff0c" d="M0 15h1" />
<path stroke="#4f380b" d="M1 15h1" />
<path stroke="#fffe1c" d="M2 15h1" />
<path stroke="#931412" d="M3 15h1" />
<path stroke="#d5ffb5" d="M6 15h1" />
<path stroke="#880000" d="M7 15h1" />
<path stroke="#960000" d="M8 15h1" />
<path stroke="#fffffe" d="M9 15h1" />
<path stroke="#a5e700" d="M10 15h1" />
<path stroke="#ffffa4" d="M11 15h1" />
<path stroke="#ffe7e1" d="M13 15h1" />
<path stroke="#6ecd00" d="M14 15h1" />
<path stroke="#a8d91f" d="M15 15h1" />
<path stroke="#e8a800" d="M16 15h1" />
<path stroke="#ff5500" d="M17 15h1" />
<path stroke="#ffff7a" d="M18 15h1" />
<path stroke="#ffffb2" d="M19 15h1" />
<path stroke="#64e100" d="M20 15h1" />
<path stroke="#ffa825" d="M21 15h1" />
<path stroke="#ffd200" d="M22 15h1" />
<path stroke="#ffe700" d="M23 15h1" />
<path stroke="#9fcd1d" d="M24 15h1" />
<path stroke="#ffe100" d="M25 15h1" />
<path stroke="#e8ff00" d="M26 15h1" />
<path stroke="#e4d700" d="M27 15h1" />
<path stroke="#e3d200" d="M28 15h1" />
<path stroke="#f4c4ff" d="M29 15h1" />
<path stroke="#f4ff00" d="M30 15h1" />
<path stroke="#582618" d="M31 15h1" />
<path stroke="#802e00" d="M0 16h1" />
<path stroke="#1e7f00" d="M1 16h1" />
<path stroke="#f15826" d="M2 16h1" />
<path stroke="#70e985" d="M3 16h1" />
<path stroke="#ffffee" d="M4 16h1M23 22h1" />
<path stroke="#574f00" d="M5 16h1" />
<path stroke="#ffebff" d="M6 16h1M29 18h1" />
<path stroke="#ab5b00" d="M8 16h1" />
<path stroke="#d8b400" d="M9 16h1" />
<path stroke="#802000" d="M10 16h1" />
<path stroke="#090000" d="M11 16h1" />
<path stroke="#f6fe00" d="M12 16h1" />
<path stroke="#1d0000" d="M13 16h1" />
<path stroke="#ffae00" d="M15 16h1" />
<path stroke="#002300" d="M17 16h1" />
<path stroke="#cfe200" d="M18 16h1" />
<path stroke="#390002" d="M19 16h1" />
<path stroke="#690000" d="M20 16h1" />
<path stroke="#b0e50e" d="M21 16h1" />
<path stroke="#cfe900" d="M23 16h1" />
<path stroke="#e2f83f" d="M24 16h1" />
<path stroke="#e9d900" d="M25 16h1" />
<path stroke="#ffea00" d="M26 16h1" />
<path stroke="#f0d9e3" d="M27 16h1" />
<path stroke="#f9d263" d="M29 16h1" />
<path stroke="#feffff" d="M30 16h1" />
<path stroke="#b52e00" d="M31 16h1" />
<path stroke="#00b700" d="M32 16h1" />
<path stroke="#4a2600" d="M3 17h1" />
<path stroke="#f4ebc4" d="M4 17h1" />
<path stroke="#4f0000" d="M6 17h1" />
<path stroke="#f8ffc9" d="M7 17h1" />
<path stroke="#ede1ff" d="M8 17h1" />
<path stroke="#786600" d="M9 17h1" />
<path stroke="#fdffff" d="M10 17h1" />
<path stroke="#eee43a" d="M11 17h1" />
<path stroke="#e5c8ea" d="M12 17h1" />
<path stroke="#f27bff" d="M13 17h1" />
<path stroke="#3abfae" d="M14 17h1" />
<path stroke="#fff9ff" d="M15 17h1" />
<path stroke="#11924c" d="M16 17h1" />
<path stroke="#9edf00" d="M17 17h1" />
<path stroke="#8f2100" d="M18 17h1" />
<path stroke="#000245" d="M19 17h1" />
<path stroke="#ffffe7" d="M21 17h1" />
<path stroke="#352b00" d="M22 17h1" />
<path stroke="#b30219" d="M23 17h1" />
<path stroke="#c9ff00" d="M25 17h1" />
<path stroke="#baf8cf" d="M26 17h1" />
<path stroke="#bcf7ff" d="M27 17h1" />
<path stroke="#ffb1a5" d="M28 17h1" />
<path stroke="#c4fce3" d="M29 17h1" />
<path stroke="#beffdc" d="M30 17h1" />
<path stroke="#ffc8ff" d="M2 18h1" />
<path stroke="#bedbff" d="M3 18h1" />
<path stroke="#ffdac3" d="M4 18h1" />
<path stroke="#a24600" d="M5 18h1" />
<path stroke="#002b00" d="M6 18h1" />
<path stroke="#698d00" d="M7 18h1" />
<path stroke="#bdf3e0" d="M8 18h1" />
<path stroke="#6f1500" d="M11 18h1" />
<path stroke="#22a200" d="M12 18h1" />
<path stroke="#005a00" d="M13 18h1" />
<path stroke="#fff1bf" d="M14 18h1" />
<path stroke="#3d5000" d="M15 18h1" />
<path stroke="#ecffff" d="M16 18h1" />
<path stroke="#ffffc8" d="M17 18h1M24 23h1" />
<path stroke="#eeb6dc" d="M18 18h1" />
<path stroke="#c1c7ff" d="M20 18h1" />
<path stroke="#fffcb9" d="M22 18h1" />
<path stroke="#ffffdc" d="M23 18h1" />
<path stroke="#f9ddf9" d="M24 18h1" />
<path stroke="#f9f6e7" d="M25 18h1" />
<path stroke="#ffcd90" d="M26 18h1" />
<path stroke="#9cc95d" d="M27 18h1" />
<path stroke="#ffc493" d="M28 18h1" />
<path stroke="#ffffb0" d="M31 18h1" />
<path stroke="#d9cede" d="M32 18h1" />
<path stroke="#724500" d="M4 19h1" />
<path stroke="#325000" d="M5 19h1" />
<path stroke="#4d5169" d="M11 19h1" />
<path stroke="#00a200" d="M13 19h1" />
<path stroke="#fadbfa" d="M15 19h1" />
<path stroke="#fffcc3" d="M17 19h1" />
<path stroke="#71dfff" d="M18 19h1" />
<path stroke="#dc7900" d="M19 19h1" />
<path stroke="#fffead" d="M20 19h1" />
<path stroke="#ffffc7" d="M21 19h1" />
<path stroke="#e9d9b6" d="M22 19h1" />
<path stroke="#d78451" d="M23 19h1" />
<path stroke="#dcf016" d="M24 19h1" />
<path stroke="#9df7af" d="M25 19h1" />
<path stroke="#fffbd0" d="M26 19h1" />
<path stroke="#b1deff" d="M27 19h1" />
<path stroke="#fffd90" d="M28 19h1" />
<path stroke="#ffffe3" d="M29 19h1M14 20h1" />
<path stroke="#456700" d="M11 20h1" />
<path stroke="#fff0e6" d="M12 20h1" />
<path stroke="#ffd5ec" d="M13 20h1" />
<path stroke="#dfff7f" d="M16 20h1" />
<path stroke="#ffffb8" d="M17 20h1" />
<path stroke="#ffef7b" d="M18 20h1" />
<path stroke="#d0ffcf" d="M19 20h1" />
<path stroke="#d3be8b" d="M20 20h1" />
<path stroke="#ffb4ff" d="M21 20h1" />
<path stroke="#ffdbf1" d="M22 20h1" />
<path stroke="#a9f2bc" d="M23 20h1" />
<path stroke="#fdff9b" d="M24 20h1" />
<path stroke="#f5d2fe" d="M25 20h1" />
<path stroke="#e5ffff" d="M26 20h1" />
<path stroke="#ffccf7" d="M27 20h1" />
<path stroke="#5d4700" d="M30 20h1" />
<path stroke="#ac391b" d="M31 20h1" />
<path stroke="#ffdeff" d="M16 21h1" />
<path stroke="#d9ff83" d="M19 21h1" />
<path stroke="#fffaff" d="M20 21h1" />
<path stroke="#e6ffff" d="M21 21h1" />
<path stroke="#ffab70" d="M22 21h1" />
<path stroke="#eeffca" d="M23 21h1" />
<path stroke="#ff9bb4" d="M24 21h1" />
<path stroke="#7cff9a" d="M25 21h1" />
<path stroke="#ffd394" d="M26 21h1" />
<path stroke="#530000" d="M28 21h1" />
<path stroke="#45dc00" d="M29 21h1" />
<path stroke="#570900" d="M17 22h1" />
<path stroke="#9affeb" d="M20 22h1" />
<path stroke="#220000" d="M21 22h1" />
<path stroke="#eaa4af" d="M24 22h1" />
<path stroke="#ffe7ff" d="M25 22h1" />
<path stroke="#7db105" d="M27 22h1" />
<path stroke="#aa6c00" d="M17 23h1" />
<path stroke="#fff8eb" d="M20 23h1" />
<path stroke="#5c2800" d="M21 23h1" />
<path stroke="#055d00" d="M22 23h1" />
<path stroke="#401500" d="M26 23h1" />
</svg>