<svg xmlns="http://www.w3.org/2000/svg" viewBox="0 -0.5 81 81" shape-rendering="crispEdges">
<metadata>Made with Pixels to Svg https://codepen.io/shshaw/pen/XbxvNj</metadata>
<path stroke="rgba(111,98,0,0.15294117647058825)" d="M27 3h1" />
<path stroke="rgba(110,95,0,0.3803921568627451)" d="M28 3h1" />
<path stroke="rgba(111,96,0,0.35294117647058826)" d="M29 3h1M23 6h1" />
<path stroke="rgba(114,97,0,0.11372549019607843)" d="M30 3h1" />
<path stroke="rgba(109,96,0,0.30196078431372547)" d="M31 3h1" />
<path stroke="rgba(109,96,0,0.3764705882352941)" d="M25 4h1" />
<path stroke="rgba(110,94,0,0.5294117647058824)" d="M26 4h1" />
<path stroke="rgba(114,98,2,0.5019607843137255)" d="M27 4h1" />
<path stroke="rgba(154,138,35,0.42745098039215684)" d="M28 4h1" />
<path stroke="rgba(236,217,93,0.47058823529411764)" d="M29 4h1" />
<path stroke="rgba(110,97,2,0.5176470588235295)" d="M30 4h1" />
<path stroke="rgba(149,132,29,0.41568627450980394)" d="M31 4h1" />
<path stroke="rgba(112,97,0,0.4745098039215686)" d="M32 4h1" />
<path stroke="rgba(133,111,0,0.09019607843137255)" d="M33 4h1" />
<path stroke="rgba(112,92,0,0.09803921568627451)" d="M34 4h1" />
<path stroke="rgba(112,93,0,0.1607843137254902)" d="M24 5h1M37 7h1" />
<path stroke="rgba(138,122,21,0.43529411764705883)" d="M25 5h1" />
<path stroke="rgba(232,214,89,0.4823529411764706)" d="M26 5h1" />
<path stroke="rgba(255,235,96,0.5411764705882353)" d="M27 5h1M16 16h1" />
<path stroke="rgba(255,227,55,0.5411764705882353)" d="M28 5h1" />
<path stroke="rgba(255,233,89,0.5411764705882353)" d="M29 5h1" />
<path stroke="rgba(255,235,100,0.5411764705882353)" d="M30 5h1M22 10h1" />
<path stroke="rgba(255,229,63,0.5411764705882353)" d="M31 5h1" />
<path stroke="rgba(209,190,59,0.4588235294117647)" d="M32 5h1" />
<path stroke="rgba(135,118,9,0.45098039215686275)" d="M33 5h1" />
<path stroke="rgba(140,121,0,0.3137254901960784)" d="M34 5h1" />
<path stroke="rgba(111,93,0,0.2784313725490196)" d="M35 5h1" />
<path stroke="rgba(112,96,2,0.5098039215686274)" d="M24 6h1" />
<path stroke="rgba(253,235,115,0.5372549019607843)" d="M25 6h1" />
<path stroke="rgba(255,237,126,0.5411764705882353)" d="M26 6h1" />
<path stroke="rgba(255,225,33,0.5411764705882353)" d="M27 6h1" />
<path stroke="rgba(255,218,0,0.5411764705882353)" d="M28 6h1" />
<path stroke="rgba(255,224,17,0.5411764705882353)" d="M29 6h1M32 6h1M20 14h1" />
<path stroke="rgba(255,220,0,0.5411764705882353)" d="M30 6h2M32 7h1M25 8h2M23 11h1M22 12h1M23 14h1M19 15h3M18 16h1M17 17h1" />
<path stroke="rgba(255,222,0,0.5411764705882353)" d="M33 6h1M27 7h5M33 7h1M27 8h7M25 9h9M24 10h7M32 10h2M24 11h5M33 11h1M23 12h5M22 13h5M21 14h2M18 17h1M31 17h2" />
<path stroke="rgba(220,192,0,0.49019607843137253)" d="M34 6h1" />
<path stroke="rgba(111,94,0,0.5411764705882353)" d="M35 6h1M14 19h1M16 19h1M23 23h1M11 24h1M33 26h1M14 27h1M30 27h1M11 28h1" />
<path stroke="rgba(102,102,0,0.0196078431372549)" d="M37 6h1M18 10h1M30 28h1" />
<path stroke="rgba(127,64,0,0.01568627450980392)" d="M21 7h1" />
<path stroke="rgba(109,96,0,0.3215686274509804)" d="M22 7h1" />
<path stroke="rgba(123,107,9,0.43137254901960786)" d="M23 7h1" />
<path stroke="rgba(255,235,105,0.5411764705882353)" d="M24 7h1M19 12h1M25 18h1M22 20h1M13 23h1" />
<path stroke="rgba(255,227,59,0.5411764705882353)" d="M25 7h1" />
<path stroke="rgba(255,224,26,0.5411764705882353)" d="M26 7h1" />
<path stroke="rgba(207,57,57,0.9019607843137255)" d="M34 7h3M34 8h5M34 9h6M34 10h7M34 11h8M34 12h9M27 13h17M24 14h21M22 15h24M21 16h24M20 17h7M34 17h10M19 18h6M34 18h9M18 19h5M34 19h8M18 20h4M34 20h7M18 21h4M34 21h6M17 22h4M34 22h5M17 23h4M34 23h3M17 24h4M16 25h4M16 26h4M16 27h4M16 28h4M16 29h4M16 30h4" />
<path stroke="rgba(109,94,0,0.19215686274509805)" d="M21 8h1" />
<path stroke="rgba(137,121,20,0.4392156862745098)" d="M22 8h1" />
<path stroke="rgba(232,214,88,0.48627450980392156)" d="M23 8h1" />
<path stroke="rgba(255,233,92,0.5411764705882353)" d="M24 8h1" />
<path stroke="rgba(110,95,0,0.9019607843137255)" d="M61 8h5M59 9h2M66 9h2M57 10h2M68 10h1M56 11h1M69 11h1M53 12h3M70 12h1M51 13h2M70 13h1M49 14h2M71 14h1M48 15h1M71 15h1M47 16h1M71 16h1M46 17h1M71 17h1M46 18h1M46 19h1M45 20h1M51 20h10M45 21h6M61 21h1M44 22h2M61 22h1M70 22h1M38 23h7M61 23h1M69 23h1M37 24h1M42 24h1M60 24h1M69 24h1M38 25h2M43 25h2M59 25h1M69 25h1M40 26h7M58 26h1M68 26h1M45 27h3M56 27h2M68 27h1M48 28h8M67 28h1M52 29h2M65 29h2M24 30h5M54 30h2M63 30h2M22 31h2M29 31h2M56 31h7M20 32h2M31 32h1M19 33h1M32 33h1M16 34h3M33 34h1M11 35h5M33 35h1M9 36h2M15 36h3M34 36h1M8 37h1M18 37h2M34 37h1M6 38h2M20 38h1M34 38h1M5 39h1M21 39h1M34 39h1M5 40h1M22 40h1M6 41h1M23 41h1M7 42h1M24 42h1M8 43h2M24 43h1M8 44h1M10 44h4M23 44h1M33 44h1M1 45h7M14 45h9M32 45h1M0 46h1M7 46h1M32 46h1M0 47h3M32 47h1M3 48h8M31 48h1M11 49h1M31 49h1M12 50h3M30 50h1M15 51h2M28 51h2M17 52h2M26 52h2M19 53h7" />
<path stroke="rgba(110,95,0,0.5372549019607843)" d="M21 9h1" />
<path stroke="rgba(255,235,107,0.5411764705882353)" d="M22 9h1M16 15h1M23 20h1" />
<path stroke="rgba(255,238,127,0.5411764705882353)" d="M23 9h1" />
<path stroke="rgba(255,224,20,0.5411764705882353)" d="M24 9h1" />
<path stroke="rgba(127,0,0,0.00784313725490196)" d="M40 9h1" />
<path stroke="rgba(255,235,106,0.9019607843137255)" d="M61 9h5M59 10h4M65 10h3M57 11h3M68 11h1M56 12h3M53 13h4M51 14h5M49 15h5M48 16h3M47 17h2M47 18h1M47 19h1M51 21h9M46 22h14M45 23h14M44 24h14M46 25h10M48 26h7M24 31h5M22 32h4M28 32h3M20 33h3M31 33h1M19 34h3M16 35h4M11 36h4M18 36h1M9 37h9M8 38h12M6 39h15M8 40h14M10 41h13M11 42h12M16 43h4" />
<path stroke="rgba(112,96,0,0.25098039215686274)" d="M19 10h1" />
<path stroke="rgba(110,95,0,0.4627450980392157)" d="M20 10h1" />
<path stroke="rgba(190,171,58,0.41568627450980394)" d="M21 10h1" />
<path stroke="rgba(255,225,39,0.5411764705882353)" d="M23 10h1" />
<path stroke="rgba(253,220,0,0.5372549019607843)" d="M31 10h1" />
<path stroke="rgba(106,53,0,0.11372549019607843)" d="M41 10h1" />
<path stroke="rgba(255,221,0,0.9019607843137255)" d="M63 10h2M60 11h8M59 12h11M57 13h13M56 14h15M54 15h17M51 16h12M65 16h6M49 17h13M66 17h3M48 18h15M65 18h3M48 19h19M47 20h4M61 20h6M62 21h8M62 22h4M62 23h3M38 24h1M62 24h1M26 32h2M23 33h8M22 34h11M20 35h13M19 36h15M20 37h14M21 38h5M28 38h6M22 39h3M29 39h3M23 40h3M28 40h3M9 41h1M24 41h6M25 42h5M25 43h8M9 44h1M24 44h5M8 45h6M23 45h5M1 46h1M13 46h13M20 47h4" />
<path stroke="rgba(110,95,0,0.2627450980392157)" d="M18 11h1" />
<path stroke="rgba(124,109,11,0.4588235294117647)" d="M19 11h1" />
<path stroke="rgba(188,170,57,0.43529411764705883)" d="M20 11h1" />
<path stroke="rgba(253,235,110,0.5372549019607843)" d="M21 11h1" />
<path stroke="rgba(255,227,50,0.5411764705882353)" d="M22 11h1" />
<path stroke="rgba(124,109,0,0.4117647058823529)" d="M29 11h1" />
<path stroke="rgba(9,9,0,0.4627450980392157)" d="M30 11h1" />
<path stroke="rgba(175,153,0,0.4392156862745098)" d="M31 11h1" />
<path stroke="rgba(186,161,0,0.4470588235294118)" d="M32 11h1" />
<path stroke="rgba(111,94,0,0.4235294117647059)" d="M17 12h1" />
<path stroke="rgba(110,96,0,0.49019607843137253)" d="M18 12h1" />
<path stroke="rgba(255,237,113,0.5411764705882353)" d="M20 12h1M19 13h1M18 14h1M17 15h1M14 22h1" />
<path stroke="rgba(255,237,115,0.5411764705882353)" d="M21 12h1" />
<path stroke="rgba(253,220,0,0.5411764705882353)" d="M28 12h1" />
<path stroke="rgba(31,29,0,0.4196078431372549)" d="M29 12h1" />
<path stroke="rgba(0,0,0,0.5411764705882353)" d="M30 12h2" />
<path stroke="rgba(149,127,0,0.41568627450980394)" d="M32 12h1" />
<path stroke="rgba(255,224,0,0.5411764705882353)" d="M33 12h1M31 18h1M31 19h1" />
<path stroke="rgba(112,97,0,0.19607843137254902)" d="M16 13h1M12 21h1" />
<path stroke="rgba(144,127,26,0.4235294117647059)" d="M17 13h1" />
<path stroke="rgba(249,230,102,0.5215686274509804)" d="M18 13h1" />
<path stroke="rgba(255,231,76,0.5411764705882353)" d="M20 13h1" />
<path stroke="rgba(255,222,11,0.5411764705882353)" d="M21 13h1" />
<path stroke="rgba(111,96,0,0.3333333333333333)" d="M15 14h1M9 25h1" />
<path stroke="rgba(115,101,4,0.48627450980392156)" d="M16 14h1" />
<path stroke="rgba(249,228,102,0.5215686274509804)" d="M17 14h1" />
<path stroke="rgba(255,233,94,0.5411764705882353)" d="M19 14h1" />
<path stroke="rgba(106,85,0,0.047058823529411764)" d="M14 15h1" />
<path stroke="rgba(115,99,2,0.48627450980392156)" d="M15 15h1" />
<path stroke="rgba(255,222,15,0.5411764705882353)" d="M18 15h1" />
<path stroke="rgba(111,96,0,0.396078431372549)" d="M14 16h1" />
<path stroke="rgba(235,214,90,0.49019607843137253)" d="M15 16h1" />
<path stroke="rgba(255,227,52,0.5411764705882353)" d="M17 16h1" />
<path stroke="rgba(248,214,0,0.5411764705882353)" d="M19 16h1" />
<path stroke="rgba(185,159,0,0.5411764705882353)" d="M20 16h1" />
<path stroke="rgba(0,0,0,0.9019607843137255)" d="M63 16h2M63 17h3M63 18h2M40 34h4M77 34h2M39 35h2M44 35h2M49 35h4M58 35h7M67 35h5M75 35h5M38 36h2M45 36h1M48 36h2M52 36h1M57 36h2M63 36h2M67 36h1M71 36h1M75 36h1M79 36h1M38 37h1M45 37h2M48 37h1M52 37h1M57 37h2M67 37h1M71 37h1M75 37h1M79 37h1M26 38h2M39 38h1M45 38h2M48 38h1M52 38h1M58 38h1M67 38h1M71 38h1M75 38h1M26 39h3M39 39h1M45 39h1M48 39h1M51 39h2M58 39h1M61 39h2M67 39h1M75 39h3M26 40h2M39 40h1M44 40h2M48 40h1M50 40h2M58 40h5M67 40h4M77 40h4M39 41h2M43 41h2M48 41h1M50 41h5M58 41h1M70 41h3M80 41h1M39 42h5M48 42h1M54 42h2M58 42h1M72 42h1M80 42h1M39 43h1M48 43h1M55 43h1M58 43h1M64 43h2M72 43h1M80 43h1M39 44h1M48 44h1M54 44h2M57 44h9M67 44h2M71 44h2M75 44h1M79 44h2M39 45h1M48 45h1M54 45h1M67 45h4M75 45h5M39 46h1M38 48h42M37 49h1M80 49h1M37 50h1M80 50h1M33 51h2M37 51h1M46 51h3M80 51h1M32 52h2M37 52h1M45 52h2M48 52h1M51 52h4M61 52h3M67 52h4M80 52h1M32 53h2M37 53h1M45 53h1M48 53h1M51 53h1M54 53h1M56 53h2M60 53h1M63 53h1M66 53h1M80 53h1M5 54h2M9 54h2M12 54h2M30 54h2M33 54h2M37 54h1M45 54h3M51 54h1M53 54h6M60 54h1M64 54h1M66 54h1M80 54h1M4 55h1M10 55h1M13 55h2M21 55h2M30 55h3M34 55h1M37 55h1M47 55h2M51 55h3M55 55h1M58 55h1M60 55h1M66 55h5M80 55h1M3 56h2M10 56h1M17 56h2M22 56h1M30 56h1M32 56h1M37 56h1M46 56h1M48 56h2M51 56h1M55 56h4M60 56h1M66 56h2M80 56h1M3 57h1M10 57h1M12 57h1M16 57h2M22 57h1M25 57h2M30 57h3M37 57h1M46 57h1M48 57h2M51 57h1M55 57h1M58 57h1M60 57h2M63 57h2M66 57h1M80 57h1M3 58h1M10 58h1M12 58h1M16 58h1M22 58h1M24 58h2M37 58h1M46 58h3M58 58h1M61 58h4M66 58h2M70 58h1M80 58h1M4 59h1M7 59h2M10 59h1M12 59h2M16 59h2M19 59h1M22 59h7M37 59h1M68 59h3M80 59h1M4 60h4M10 60h1M13 60h1M17 60h3M22 60h1M28 60h1M37 60h1M80 60h1M22 61h1M27 61h2M37 61h1M80 61h1M38 62h42M14 63h2M14 64h3M13 65h2M16 65h1M12 66h2M16 66h2M21 66h8M12 67h1M17 67h1M24 67h1M38 67h6M60 67h2M24 68h1M28 68h1M37 68h4M42 68h2M45 68h1M48 68h1M52 68h1M55 68h1M59 68h4M24 69h1M27 69h4M40 69h1M44 69h2M48 69h1M51 69h2M54 69h3M59 69h1M62 69h1M24 70h1M27 70h1M30 70h1M40 70h1M44 70h1M48 70h1M51 70h4M56 70h1M59 70h1M62 70h1M24 71h1M27 71h1M30 71h1M40 71h1M44 71h1M48 71h1M51 71h1M53 71h1M56 71h1M59 71h1M62 71h1M24 72h1M27 72h1M30 72h1M40 72h1M44 72h1M48 72h1M51 72h1M53 72h1M56 72h1M59 72h4M24 73h1M27 73h1M30 73h1M37 73h1M40 73h1M44 73h1M48 73h1M51 73h1M56 73h1M59 73h1M24 74h1M27 74h2M30 74h1M37 74h1M39 74h2M44 74h2M47 74h2M51 74h1M56 74h1M59 74h1M24 75h1M28 75h3M37 75h3M45 75h3M56 75h1M59 75h1M59 76h1" />
<path stroke="rgba(109,91,0,0.054901960784313725)" d="M13 17h1" />
<path stroke="rgba(123,108,11,0.4549019607843137)" d="M14 17h1" />
<path stroke="rgba(255,237,120,0.5411764705882353)" d="M15 17h1" />
<path stroke="rgba(255,224,22,0.5411764705882353)" d="M16 17h1" />
<path stroke="rgba(174,150,0,0.5411764705882353)" d="M19 17h1" />
<path stroke="rgba(237,222,111,0.5411764705882353)" d="M27 17h1" />
<path stroke="rgba(216,190,7,0.5372549019607843)" d="M28 17h1" />
<path stroke="rgba(109,94,0,0.5411764705882353)" d="M29 17h1" />
<path stroke="rgba(243,213,0,0.5019607843137255)" d="M30 17h1" />
<path stroke="rgba(249,220,15,0.5411764705882353)" d="M33 17h1" />
<path stroke="rgba(223,194,0,0.9019607843137255)" d="M62 17h1M46 20h1M60 21h1M60 22h1M59 23h2M43 24h1M58 24h2M61 24h1M45 25h1M56 25h3M60 25h1M47 26h1M55 26h3M59 26h1M48 27h8M25 39h1M6 40h2M7 41h2M8 42h3M23 42h1M10 43h6M20 43h4M14 44h9" />
<path stroke="rgba(108,50,0,0.9019607843137255)" d="M69 17h2M68 18h1M71 18h3M67 19h1M74 19h1M67 20h3M74 20h1M70 21h4M32 39h2M31 40h1M34 40h3M30 41h1M37 41h1M30 42h3M37 42h1M33 43h4" />
<path stroke="rgba(111,94,0,0.3411764705882353)" d="M13 18h1" />
<path stroke="rgba(144,127,24,0.41568627450980394)" d="M14 18h1" />
<path stroke="rgba(255,235,87,0.5411764705882353)" d="M15 18h1" />
<path stroke="rgba(246,212,0,0.5411764705882353)" d="M16 18h1" />
<path stroke="rgba(192,166,0,0.5411764705882353)" d="M17 18h1" />
<path stroke="rgba(135,116,0,0.5411764705882353)" d="M18 18h1" />
<path stroke="rgba(251,231,96,0.5411764705882353)" d="M26 18h1" />
<path stroke="rgba(237,212,52,0.5411764705882353)" d="M27 18h1" />
<path stroke="rgba(220,190,0,0.5411764705882353)" d="M28 18h1" />
<path stroke="rgba(115,100,0,0.45098039215686275)" d="M29 18h1" />
<path stroke="rgba(157,135,0,0.40784313725490196)" d="M30 18h1" />
<path stroke="rgba(255,222,2,0.5411764705882353)" d="M32 18h1" />
<path stroke="rgba(242,220,68,0.5411764705882353)" d="M33 18h1" />
<path stroke="rgba(255,119,0,0.9019607843137255)" d="M69 18h2M68 19h6M70 20h4M32 40h2M31 41h6M33 42h4" />
<path stroke="rgba(112,96,0,0.12549019607843137)" d="M13 19h1" />
<path stroke="rgba(133,116,13,0.5411764705882353)" d="M15 19h1" />
<path stroke="rgba(139,120,7,0.5411764705882353)" d="M17 19h1" />
<path stroke="rgba(255,237,109,0.5411764705882353)" d="M23 19h1" />
<path stroke="rgba(255,238,116,0.5411764705882353)" d="M24 19h1M22 21h1M15 22h1" />
<path stroke="rgba(255,242,126,0.5411764705882353)" d="M25 19h1" />
<path stroke="rgba(233,205,33,0.5411764705882353)" d="M26 19h1" />
<path stroke="rgba(218,188,0,0.5411764705882353)" d="M27 19h1" />
<path stroke="rgba(222,192,0,0.5411764705882353)" d="M28 19h1" />
<path stroke="rgba(151,131,0,0.403921568627451)" d="M29 19h1" />
<path stroke="rgba(159,137,0,0.40784313725490196)" d="M30 19h1" />
<path stroke="rgba(251,220,26,0.5411764705882353)" d="M32 19h1" />
<path stroke="rgba(240,227,148,0.5411764705882353)" d="M33 19h1" />
<path stroke="rgba(109,95,0,0.48627450980392156)" d="M13 20h1" />
<path stroke="rgba(153,137,28,0.5411764705882353)" d="M14 20h1" />
<path stroke="rgba(196,177,59,0.5411764705882353)" d="M15 20h1" />
<path stroke="rgba(251,233,102,0.5411764705882353)" d="M16 20h1" />
<path stroke="rgba(255,237,116,0.5411764705882353)" d="M17 20h1" />
<path stroke="rgba(238,214,57,0.5411764705882353)" d="M24 20h1" />
<path stroke="rgba(229,203,22,0.5411764705882353)" d="M25 20h1" />
<path stroke="rgba(216,188,6,0.5411764705882353)" d="M26 20h1M23 22h1" />
<path stroke="rgba(168,148,2,0.5411764705882353)" d="M27 20h1" />
<path stroke="rgba(126,109,0,0.5411764705882353)" d="M28 20h1" />
<path stroke="rgba(110,96,0,0.5019607843137255)" d="M29 20h1" />
<path stroke="rgba(233,203,7,0.5411764705882353)" d="M30 20h1" />
<path stroke="rgba(251,224,20,0.5411764705882353)" d="M31 20h1" />
<path stroke="rgba(235,214,78,0.5411764705882353)" d="M32 20h1" />
<path stroke="rgba(238,235,212,0.5411764705882353)" d="M33 20h1" />
<path stroke="rgba(152,138,28,0.42745098039215684)" d="M13 21h1" />
<path stroke="rgba(255,237,111,0.5411764705882353)" d="M14 21h1M17 21h1" />
<path stroke="rgba(255,237,107,0.5411764705882353)" d="M15 21h2" />
<path stroke="rgba(249,227,89,0.5411764705882353)" d="M23 21h1M14 23h1" />
<path stroke="rgba(218,187,0,0.5411764705882353)" d="M24 21h1" />
<path stroke="rgba(220,188,0,0.5411764705882353)" d="M25 21h1" />
<path stroke="rgba(118,103,6,0.5411764705882353)" d="M26 21h1" />
<path stroke="rgba(137,118,0,0.5411764705882353)" d="M27 21h1" />
<path stroke="rgba(182,158,0,0.5372549019607843)" d="M28 21h1" />
<path stroke="rgba(220,192,0,0.5372549019607843)" d="M29 21h1" />
<path stroke="rgba(248,218,31,0.5411764705882353)" d="M30 21h1" />
<path stroke="rgba(240,224,107,0.5411764705882353)" d="M31 21h1" />
<path stroke="rgba(238,237,209,0.5411764705882353)" d="M32 21h1" />
<path stroke="rgba(238,235,205,0.5411764705882353)" d="M33 21h1M33 22h1M32 23h2M30 24h3M29 25h3M29 26h1" />
<path stroke="rgba(111,95,0,0.5058823529411764)" d="M12 22h1M7 27h1M21 27h1" />
<path stroke="rgba(245,225,82,0.5254901960784314)" d="M13 22h1" />
<path stroke="rgba(251,229,89,0.5411764705882353)" d="M16 22h1" />
<path stroke="rgba(242,216,46,0.5411764705882353)" d="M21 22h1" />
<path stroke="rgba(231,201,6,0.5411764705882353)" d="M22 22h1" />
<path stroke="rgba(174,157,43,0.5411764705882353)" d="M24 22h1" />
<path stroke="rgba(129,115,9,0.5411764705882353)" d="M25 22h1" />
<path stroke="rgba(177,153,0,0.5411764705882353)" d="M26 22h1" />
<path stroke="rgba(227,200,17,0.5411764705882353)" d="M27 22h1" />
<path stroke="rgba(233,205,30,0.5411764705882353)" d="M28 22h1" />
<path stroke="rgba(238,214,55,0.5411764705882353)" d="M29 22h1" />
<path stroke="rgba(237,220,96,0.5411764705882353)" d="M30 22h1" />
<path stroke="rgba(237,231,188,0.5411764705882353)" d="M31 22h1" />
<path stroke="rgba(238,235,207,0.5411764705882353)" d="M32 22h1" />
<path stroke="rgba(251,223,39,0.9019607843137255)" d="M66 22h1M29 44h1" />
<path stroke="rgba(244,218,45,0.9019607843137255)" d="M67 22h1M30 44h1" />
<path stroke="rgba(239,235,205,0.9019607843137255)" d="M68 22h2M67 23h2M65 24h4M40 25h3M64 25h5M62 26h6M58 27h10M56 28h11M54 29h1M56 29h9M56 30h6M31 44h2M30 45h2M28 46h4M3 47h4M27 47h5M11 48h8M25 48h6M12 49h19M15 50h15M17 51h1M19 51h9M19 52h6" />
<path stroke="rgba(108,96,0,0.1568627450980392)" d="M11 23h1" />
<path stroke="rgba(168,149,34,0.41568627450980394)" d="M12 23h1" />
<path stroke="rgba(238,212,50,0.5411764705882353)" d="M15 23h1" />
<path stroke="rgba(225,196,6,0.5411764705882353)" d="M16 23h1" />
<path stroke="rgba(172,153,33,0.5411764705882353)" d="M21 23h1" />
<path stroke="rgba(129,115,22,0.5411764705882353)" d="M22 23h1" />
<path stroke="rgba(131,118,43,0.5411764705882353)" d="M24 23h1" />
<path stroke="rgba(174,163,76,0.5411764705882353)" d="M25 23h1" />
<path stroke="rgba(224,192,0,0.5411764705882353)" d="M26 23h1" />
<path stroke="rgba(240,224,116,0.5411764705882353)" d="M27 23h1" />
<path stroke="rgba(242,231,161,0.5411764705882353)" d="M28 23h1" />
<path stroke="rgba(238,233,192,0.5411764705882353)" d="M29 23h1" />
<path stroke="rgba(238,237,220,0.5411764705882353)" d="M30 23h1" />
<path stroke="rgba(238,237,211,0.5411764705882353)" d="M31 23h1" />
<path stroke="rgba(243,220,71,0.9019607843137255)" d="M65 23h1M64 24h1M28 45h1M27 46h1" />
<path stroke="rgba(239,220,83,0.9019607843137255)" d="M66 23h1M29 45h1" />
<path stroke="rgba(150,136,25,0.47843137254901963)" d="M12 24h1" />
<path stroke="rgba(187,166,28,0.5411764705882353)" d="M13 24h1" />
<path stroke="rgba(203,176,0,0.5411764705882353)" d="M14 24h1" />
<path stroke="rgba(164,142,0,0.5411764705882353)" d="M15 24h1" />
<path stroke="rgba(124,107,6,0.5411764705882353)" d="M16 24h1" />
<path stroke="rgba(131,120,43,0.5411764705882353)" d="M21 24h1" />
<path stroke="rgba(176,168,120,0.5411764705882353)" d="M22 24h1" />
<path stroke="rgba(218,212,181,0.5411764705882353)" d="M23 24h1" />
<path stroke="rgba(225,222,192,0.5411764705882353)" d="M24 24h1M21 25h1" />
<path stroke="rgba(231,225,188,0.5411764705882353)" d="M25 24h1" />
<path stroke="rgba(238,233,187,0.5411764705882353)" d="M26 24h1" />
<path stroke="rgba(240,238,220,0.5411764705882353)" d="M27 24h1" />
<path stroke="rgba(244,242,231,0.5411764705882353)" d="M28 24h1" />
<path stroke="rgba(240,237,209,0.5411764705882353)" d="M29 24h1M24 25h1" />
<path stroke="rgba(236,232,201,0.5333333333333333)" d="M33 24h1" />
<path stroke="rgba(164,152,84,0.42745098039215684)" d="M34 24h1" />
<path stroke="rgba(113,98,2,0.40784313725490196)" d="M35 24h1" />
<path stroke="rgba(248,220,33,0.9019607843137255)" d="M39 24h3M2 46h3" />
<path stroke="rgba(253,221,16,0.9019607843137255)" d="M63 24h1M26 46h1M19 47h1" />
<path stroke="rgba(109,91,0,0.10980392156862745)" d="M8 25h1" />
<path stroke="rgba(111,95,0,0.5137254901960784)" d="M10 25h1" />
<path stroke="rgba(111,97,0,0.48627450980392156)" d="M11 25h1" />
<path stroke="rgba(147,131,21,0.4823529411764706)" d="M12 25h1" />
<path stroke="rgba(205,181,31,0.5411764705882353)" d="M13 25h1" />
<path stroke="rgba(113,96,0,0.5411764705882353)" d="M14 25h1" />
<path stroke="rgba(152,137,35,0.5411764705882353)" d="M15 25h1" />
<path stroke="rgba(218,214,183,0.5411764705882353)" d="M20 25h1" />
<path stroke="rgba(233,227,198,0.5411764705882353)" d="M22 25h1" />
<path stroke="rgba(238,235,203,0.5411764705882353)" d="M23 25h1M32 25h1M23 26h1M28 26h1" />
<path stroke="rgba(244,240,216,0.5411764705882353)" d="M25 25h1" />
<path stroke="rgba(244,240,220,0.5411764705882353)" d="M26 25h1" />
<path stroke="rgba(242,238,216,0.5411764705882353)" d="M27 25h1" />
<path stroke="rgba(240,237,211,0.5411764705882353)" d="M28 25h1M25 26h1" />
<path stroke="rgba(184,175,118,0.4235294117647059)" d="M33 25h1" />
<path stroke="rgba(111,94,0,0.41568627450980394)" d="M34 25h1" />
<path stroke="rgba(106,96,0,0.09411764705882353)" d="M35 25h1M20 28h1" />
<path stroke="rgba(252,222,34,0.9019607843137255)" d="M61 25h1M24 47h1" />
<path stroke="rgba(247,222,51,0.9019607843137255)" d="M62 25h1M25 47h1" />
<path stroke="rgba(234,215,91,0.9019607843137255)" d="M63 25h1M26 47h1" />
<path stroke="rgba(112,96,0,0.06274509803921569)" d="M7 26h1" />
<path stroke="rgba(110,97,0,0.5176470588235295)" d="M8 26h1" />
<path stroke="rgba(153,134,12,0.43137254901960786)" d="M9 26h1" />
<path stroke="rgba(217,189,15,0.47058823529411764)" d="M10 26h1" />
<path stroke="rgba(248,220,50,0.5411764705882353)" d="M11 26h1" />
<path stroke="rgba(238,224,126,0.5411764705882353)" d="M12 26h1" />
<path stroke="rgba(240,233,172,0.5411764705882353)" d="M13 26h1" />
<path stroke="rgba(240,236,211,0.5215686274509804)" d="M14 26h1" />
<path stroke="rgba(180,172,129,0.4117647058823529)" d="M15 26h1" />
<path stroke="rgba(238,237,216,0.5411764705882353)" d="M20 26h1" />
<path stroke="rgba(204,197,149,0.45098039215686275)" d="M21 26h1" />
<path stroke="rgba(176,167,104,0.44313725490196076)" d="M22 26h1" />
<path stroke="rgba(218,214,177,0.48627450980392156)" d="M24 26h1" />
<path stroke="rgba(233,229,201,0.5411764705882353)" d="M26 26h1" />
<path stroke="rgba(240,237,205,0.5411764705882353)" d="M27 26h1" />
<path stroke="rgba(234,228,196,0.5215686274509804)" d="M30 26h1" />
<path stroke="rgba(171,161,96,0.42745098039215684)" d="M31 26h1" />
<path stroke="rgba(119,104,13,0.47058823529411764)" d="M32 26h1" />
<path stroke="rgba(241,217,60,0.9019607843137255)" d="M60 26h1M23 48h1" />
<path stroke="rgba(235,215,82,0.9019607843137255)" d="M61 26h1M24 48h1" />
<path stroke="rgba(251,218,0,0.5137254901960784)" d="M8 27h1" />
<path stroke="rgba(184,162,11,0.4392156862745098)" d="M9 27h1" />
<path stroke="rgba(224,210,121,0.5137254901960784)" d="M10 27h1" />
<path stroke="rgba(234,230,207,0.5215686274509804)" d="M11 27h1" />
<path stroke="rgba(174,165,109,0.43137254901960786)" d="M12 27h1" />
<path stroke="rgba(121,106,15,0.4627450980392157)" d="M13 27h1" />
<path stroke="rgba(111,95,0,0.45098039215686275)" d="M15 27h1" />
<path stroke="rgba(111,96,2,0.5215686274509804)" d="M20 27h1" />
<path stroke="rgba(129,118,34,0.2627450980392157)" d="M22 27h1" />
<path stroke="rgba(113,97,2,0.5058823529411764)" d="M23 27h1" />
<path stroke="rgba(111,98,2,0.4588235294117647)" d="M24 27h1" />
<path stroke="rgba(163,153,85,0.4117647058823529)" d="M25 27h1" />
<path stroke="rgba(114,100,6,0.49019607843137253)" d="M26 27h1" />
<path stroke="rgba(231,228,194,0.5098039215686274)" d="M27 27h1" />
<path stroke="rgba(168,159,94,0.42745098039215684)" d="M28 27h1" />
<path stroke="rgba(118,103,13,0.4745098039215686)" d="M29 27h1" />
<path stroke="rgba(111,95,0,0.44313725490196076)" d="M31 27h1M12 28h1" />
<path stroke="rgba(108,95,0,0.23137254901960785)" d="M32 27h1M13 28h1" />
<path stroke="rgba(109,109,0,0.027450980392156862)" d="M33 27h1M14 28h1" />
<path stroke="rgba(113,92,0,0.1411764705882353)" d="M7 28h1" />
<path stroke="rgba(110,96,0,0.34509803921568627)" d="M8 28h1" />
<path stroke="rgba(109,95,0,0.4117647058823529)" d="M9 28h1" />
<path stroke="rgba(141,127,34,0.2901960784313726)" d="M10 28h1" />
<path stroke="rgba(112,97,0,0.13333333333333333)" d="M23 28h1" />
<path stroke="rgba(109,95,0,0.3568627450980392)" d="M25 28h1" />
<path stroke="rgba(111,94,0,0.1803921568627451)" d="M26 28h1" />
<path stroke="rgba(110,96,0,0.36470588235294116)" d="M27 28h1" />
<path stroke="rgba(109,95,0,0.43137254901960786)" d="M28 28h1" />
<path stroke="rgba(110,97,0,0.22745098039215686)" d="M29 28h1" />
<path stroke="rgba(109,97,0,0.08235294117647059)" d="M10 29h1" />
<path stroke="rgba(127,85,0,0.023529411764705882)" d="M11 29h1" />
<path stroke="rgba(85,85,0,0.011764705882352941)" d="M27 29h1" />
<path stroke="rgba(230,226,197,0.9019607843137255)" d="M55 29h1M62 30h1M7 47h6M18 51h1M25 52h1" />
<path stroke="rgba(243,213,14,0.9019607843137255)" d="M5 46h1" />
<path stroke="rgba(239,211,26,0.9019607843137255)" d="M6 46h1M8 46h1M12 46h1" />
<path stroke="rgba(249,220,27,0.9019607843137255)" d="M9 46h1M18 47h1" />
<path stroke="rgba(239,212,38,0.9019607843137255)" d="M10 46h2M15 47h3" />
<path stroke="rgba(237,224,143,0.9019607843137255)" d="M13 47h2" />
<path stroke="rgba(238,215,69,0.9019607843137255)" d="M19 48h3" />
<path stroke="rgba(246,222,60,0.9019607843137255)" d="M22 48h1" />
</svg>