<svg xmlns="http://www.w3.org/2000/svg" viewBox="0 -0.5 84 84" shape-rendering="crispEdges">
<metadata>Made with Pixels to Svg https://codepen.io/shshaw/pen/XbxvNj</metadata>
<path stroke="rgba(113,95,0,0.16862745098039217)" d="M28 0h1" />
<path stroke="rgba(110,95,0,0.4196078431372549)" d="M29 0h1" />
<path stroke="rgba(110,94,0,0.39215686274509803)" d="M30 0h1M24 3h1" />
<path stroke="rgba(112,96,0,0.12549019607843137)" d="M31 0h1" />
<path stroke="rgba(111,96,0,0.3333333333333333)" d="M32 0h1" />
<path stroke="rgba(111,94,0,0.41568627450980394)" d="M26 1h1" />
<path stroke="rgba(110,95,0,0.5882352941176471)" d="M27 1h1" />
<path stroke="rgba(113,99,2,0.5568627450980392)" d="M28 1h1" />
<path stroke="rgba(154,137,36,0.4745098039215686)" d="M29 1h1" />
<path stroke="rgba(236,217,94,0.5215686274509804)" d="M30 1h1" />
<path stroke="rgba(112,96,2,0.5725490196078431)" d="M31 1h1" />
<path stroke="rgba(147,132,30,0.4627450980392157)" d="M32 1h1" />
<path stroke="rgba(110,95,0,0.5254901960784314)" d="M33 1h1" />
<path stroke="rgba(137,118,0,0.10196078431372549)" d="M34 1h1" />
<path stroke="rgba(109,91,0,0.10980392156862745)" d="M35 1h1" />
<path stroke="rgba(108,96,0,0.17647058823529413)" d="M25 2h1M38 4h1" />
<path stroke="rgba(139,122,21,0.4823529411764706)" d="M26 2h1" />
<path stroke="rgba(232,214,88,0.5333333333333333)" d="M27 2h1" />
<path stroke="rgba(255,233,97,0.6)" d="M28 2h1M17 13h1" />
<path stroke="rgba(255,227,55,0.6)" d="M29 2h1" />
<path stroke="rgba(255,233,88,0.6)" d="M30 2h1" />
<path stroke="rgba(255,235,100,0.6)" d="M31 2h1" />
<path stroke="rgba(255,228,62,0.6)" d="M32 2h1" />
<path stroke="rgba(210,190,59,0.5098039215686274)" d="M33 2h1" />
<path stroke="rgba(135,118,8,0.4980392156862745)" d="M34 2h1" />
<path stroke="rgba(140,123,0,0.34901960784313724)" d="M35 2h1" />
<path stroke="rgba(110,94,0,0.30980392156862746)" d="M36 2h1" />
<path stroke="rgba(112,97,2,0.5647058823529412)" d="M25 3h1" />
<path stroke="rgba(253,235,116,0.596078431372549)" d="M26 3h1" />
<path stroke="rgba(255,237,127,0.6)" d="M27 3h1" />
<path stroke="rgba(255,227,33,0.6)" d="M28 3h1" />
<path stroke="rgba(255,218,0,0.6)" d="M29 3h1M32 3h1M26 5h1M24 8h1M18 14h1" />
<path stroke="rgba(255,223,17,0.6)" d="M30 3h1M33 3h1M21 11h1" />
<path stroke="rgba(255,220,0,0.6)" d="M31 3h1M33 4h1M27 5h1M23 9h1M24 11h1M20 12h3M19 13h1" />
<path stroke="rgba(255,222,0,0.6)" d="M34 3h1M28 4h5M34 4h1M28 5h7M26 6h9M25 7h7M33 7h2M25 8h5M34 8h1M24 9h5M23 10h5M22 11h2M19 14h1M32 14h2" />
<path stroke="rgba(220,191,0,0.5450980392156862)" d="M35 3h1" />
<path stroke="rgba(110,95,0,0.6)" d="M36 3h1M15 16h1M17 16h1M24 20h1M12 21h1M34 23h1M15 24h1M31 24h1M12 25h1" />
<path stroke="rgba(102,102,0,0.0196078431372549)" d="M38 3h1M19 7h1" />
<path stroke="rgba(127,64,0,0.01568627450980392)" d="M22 4h1" />
<path stroke="rgba(109,95,0,0.3568627450980392)" d="M23 4h1" />
<path stroke="rgba(121,107,8,0.47843137254901963)" d="M24 4h1" />
<path stroke="rgba(255,235,107,0.6)" d="M25 4h1M26 15h1M23 17h2M14 20h1" />
<path stroke="rgba(255,228,60,0.6)" d="M26 4h1" />
<path stroke="rgba(255,223,27,0.6)" d="M27 4h1" />
<path stroke="#cf3939" d="M35 4h3M35 5h5M35 6h6M35 7h7M35 8h8M35 9h9M28 10h17M25 11h21M23 12h24M22 13h24M21 14h7M35 14h10M20 15h6M35 15h9M19 16h5M35 16h8M19 17h4M35 17h7M19 18h4M35 18h6M18 19h4M35 19h5M18 20h4M35 20h3M18 21h4M17 22h4M17 23h4M17 24h4M17 25h4M17 26h4M17 27h4" />
<path stroke="rgba(109,94,0,0.21176470588235294)" d="M22 5h1" />
<path stroke="rgba(138,121,21,0.48627450980392156)" d="M23 5h1" />
<path stroke="rgba(233,214,89,0.5372549019607843)" d="M24 5h1" />
<path stroke="rgba(255,233,93,0.6)" d="M25 5h1" />
<path stroke="#6e5f00" d="M62 5h5M60 6h2M67 6h2M58 7h2M69 7h1M57 8h1M70 8h1M54 9h3M71 9h1M52 10h2M71 10h1M50 11h2M72 11h1M49 12h1M72 12h1M48 13h1M72 13h1M47 14h1M72 14h1M47 15h1M47 16h1M46 17h1M52 17h10M46 18h6M62 18h1M45 19h2M62 19h1M71 19h1M39 20h7M62 20h1M70 20h1M38 21h1M43 21h1M61 21h1M70 21h1M39 22h2M44 22h2M60 22h1M70 22h1M41 23h7M59 23h1M69 23h1M46 24h3M57 24h2M69 24h1M49 25h8M68 25h1M53 26h2M66 26h2M25 27h5M55 27h2M64 27h2M23 28h2M30 28h2M57 28h7M21 29h2M32 29h1M20 30h1M33 30h1M17 31h3M34 31h1M12 32h5M34 32h1M10 33h2M16 33h3M35 33h1M9 34h1M19 34h2M35 34h1M7 35h2M21 35h1M35 35h1M6 36h1M22 36h1M35 36h1M6 37h1M23 37h1M7 38h1M24 38h1M8 39h1M25 39h1M9 40h2M25 40h1M9 41h1M11 41h4M24 41h1M34 41h1M2 42h7M15 42h9M33 42h1M1 43h1M8 43h1M33 43h1M1 44h3M33 44h1M4 45h8M32 45h1M12 46h1M32 46h1M13 47h3M31 47h1M16 48h2M29 48h2M18 49h2M27 49h2M20 50h4M26 50h1" />
<path stroke="rgba(111,96,0,0.596078431372549)" d="M22 6h1" />
<path stroke="rgba(255,235,108,0.6)" d="M23 6h1M17 12h1" />
<path stroke="rgba(255,238,128,0.6)" d="M24 6h1" />
<path stroke="rgba(255,223,20,0.6)" d="M25 6h1" />
<path stroke="rgba(127,0,0,0.00784313725490196)" d="M41 6h1" />
<path stroke="#ffeb6a" d="M62 6h5M60 7h4M66 7h3M58 8h3M69 8h1M57 9h3M54 10h4M52 11h5M50 12h5M49 13h3M48 14h2M48 15h1M48 16h1M52 18h9M47 19h14M46 20h14M45 21h14M47 22h10M49 23h7M25 28h5M23 29h4M29 29h3M21 30h3M32 30h1M20 31h3M17 32h4M12 33h4M19 33h1M10 34h9M9 35h12M7 36h15M9 37h14M11 38h13M12 39h12M17 40h4" />
<path stroke="rgba(111,93,0,0.2784313725490196)" d="M20 7h1" />
<path stroke="rgba(111,95,0,0.5137254901960784)" d="M21 7h1" />
<path stroke="rgba(190,173,58,0.4627450980392157)" d="M22 7h1" />
<path stroke="rgba(255,233,98,0.6)" d="M23 7h1" />
<path stroke="rgba(255,225,38,0.6)" d="M24 7h1" />
<path stroke="rgba(253,220,0,0.596078431372549)" d="M32 7h1" />
<path stroke="rgba(112,48,0,0.12549019607843137)" d="M42 7h1" />
<path stroke="#ffdd00" d="M64 7h2M61 8h8M60 9h11M58 10h13M57 11h15M55 12h17M52 13h12M66 13h6M50 14h13M67 14h3M49 15h15M66 15h3M49 16h19M48 17h4M62 17h6M63 18h8M63 19h4M63 20h3M39 21h1M63 21h1M27 29h2M24 30h8M23 31h11M21 32h13M20 33h15M21 34h14M22 35h5M29 35h6M23 36h3M30 36h3M24 37h3M29 37h3M10 38h1M25 38h6M26 39h5M26 40h8M10 41h1M25 41h5M9 42h6M24 42h5M2 43h1M14 43h13M21 44h4" />
<path stroke="rgba(110,96,0,0.2901960784313726)" d="M19 8h1" />
<path stroke="rgba(124,108,10,0.5098039215686274)" d="M20 8h1" />
<path stroke="rgba(189,170,58,0.4823529411764706)" d="M21 8h1" />
<path stroke="rgba(253,235,111,0.596078431372549)" d="M22 8h1" />
<path stroke="rgba(255,228,48,0.6)" d="M23 8h1" />
<path stroke="rgba(123,110,0,0.4549019607843137)" d="M30 8h1" />
<path stroke="rgba(10,8,0,0.5137254901960784)" d="M31 8h1" />
<path stroke="rgba(177,152,0,0.48627450980392156)" d="M32 8h1" />
<path stroke="rgba(184,160,0,0.49411764705882355)" d="M33 8h1" />
<path stroke="rgba(110,96,0,0.47058823529411764)" d="M18 9h1" />
<path stroke="rgba(112,95,2,0.5450980392156862)" d="M19 9h1" />
<path stroke="rgba(255,235,105,0.6)" d="M20 9h1" />
<path stroke="rgba(255,237,113,0.6)" d="M21 9h1M20 10h1M19 11h1" />
<path stroke="rgba(255,237,115,0.6)" d="M22 9h1" />
<path stroke="rgba(253,220,0,0.6)" d="M29 9h1" />
<path stroke="rgba(32,28,0,0.4666666666666667)" d="M30 9h1" />
<path stroke="rgba(0,0,0,0.6)" d="M31 9h2" />
<path stroke="rgba(149,127,0,0.4627450980392157)" d="M33 9h1" />
<path stroke="rgba(255,223,0,0.6)" d="M34 9h1M32 15h1M32 16h1" />
<path stroke="rgba(111,93,0,0.21568627450980393)" d="M17 10h1M13 18h1" />
<path stroke="rgba(144,127,25,0.47058823529411764)" d="M18 10h1" />
<path stroke="rgba(250,231,102,0.5764705882352941)" d="M19 10h1" />
<path stroke="rgba(255,232,77,0.6)" d="M21 10h1" />
<path stroke="rgba(255,222,12,0.6)" d="M22 10h1" />
<path stroke="rgba(111,95,0,0.3686274509803922)" d="M16 11h1M10 22h1" />
<path stroke="rgba(115,101,4,0.5372549019607843)" d="M17 11h1" />
<path stroke="rgba(250,229,102,0.5764705882352941)" d="M18 11h1" />
<path stroke="rgba(255,233,95,0.6)" d="M20 11h1" />
<path stroke="rgba(118,98,0,0.050980392156862744)" d="M15 12h1" />
<path stroke="rgba(115,99,4,0.5372549019607843)" d="M16 12h1" />
<path stroke="rgba(255,237,112,0.6)" d="M18 12h1M15 18h1M15 19h1" />
<path stroke="rgba(255,222,13,0.6)" d="M19 12h1" />
<path stroke="rgba(109,96,0,0.4392156862745098)" d="M15 13h1" />
<path stroke="rgba(235,215,90,0.5450980392156862)" d="M16 13h1" />
<path stroke="rgba(255,227,52,0.6)" d="M18 13h1" />
<path stroke="rgba(248,215,0,0.6)" d="M20 13h1" />
<path stroke="rgba(183,158,0,0.6)" d="M21 13h1" />
<path stroke="#000000" d="M64 13h2M64 14h3M64 15h2M41 31h2M49 31h3M53 31h1M57 31h3M61 31h3M65 31h1M68 31h1M41 32h1M43 32h1M49 32h1M51 32h1M53 32h1M58 32h1M61 32h1M63 32h1M65 32h1M68 32h1M41 33h1M44 33h1M49 33h1M53 33h1M58 33h1M61 33h1M65 33h1M67 33h1M41 34h1M45 34h1M49 34h1M53 34h1M58 34h1M61 34h1M65 34h2M27 35h2M41 35h1M46 35h1M49 35h1M53 35h1M58 35h1M61 35h1M65 35h1M67 35h1M27 36h3M41 36h1M44 36h3M49 36h1M53 36h1M58 36h1M61 36h1M65 36h1M68 36h1M27 37h2M41 37h1M43 37h1M49 37h1M51 37h1M53 37h1M55 37h1M58 37h1M61 37h1M63 37h1M65 37h1M68 37h1M42 38h2M49 38h3M53 38h3M57 38h3M61 38h3M65 38h1M68 38h1M41 42h3M45 42h3M50 42h3M54 42h3M58 42h3M63 42h2M67 42h2M41 43h1M43 43h1M45 43h1M47 43h1M50 43h1M52 43h1M54 43h1M56 43h1M58 43h1M60 43h1M62 43h1M64 43h1M66 43h1M68 43h1M41 44h1M43 44h1M45 44h1M47 44h1M50 44h1M52 44h1M54 44h1M56 44h1M58 44h1M62 44h1M66 44h1M41 45h1M43 45h1M45 45h3M50 45h3M54 45h3M58 45h2M63 45h1M67 45h1M41 46h1M43 46h1M45 46h2M50 46h1M54 46h2M58 46h1M64 46h1M68 46h1M41 47h1M43 47h1M45 47h1M47 47h1M50 47h1M54 47h1M56 47h1M58 47h1M64 47h1M68 47h1M41 48h1M43 48h1M45 48h1M47 48h1M50 48h1M54 48h1M56 48h1M58 48h1M60 48h1M62 48h1M64 48h1M66 48h1M68 48h1M41 49h3M45 49h1M47 49h1M50 49h1M54 49h1M56 49h1M58 49h3M62 49h2M66 49h2M20 54h44M9 55h2M19 55h2M63 55h2M73 55h2M9 56h2M19 56h2M63 56h2M73 56h2M8 57h4M19 57h2M26 57h5M32 57h5M41 57h2M48 57h4M53 57h6M63 57h2M72 57h4M7 58h6M19 58h2M25 58h2M29 58h2M32 58h2M36 58h2M40 58h4M47 58h2M50 58h2M53 58h2M57 58h2M63 58h2M71 58h6M7 59h6M19 59h2M25 59h2M32 59h2M36 59h2M40 59h4M46 59h2M53 59h2M63 59h2M71 59h6M6 60h8M19 60h2M26 60h2M32 60h2M36 60h2M40 60h4M46 60h2M53 60h2M63 60h2M70 60h8M5 61h10M19 61h2M27 61h3M32 61h2M35 61h2M40 61h1M43 61h2M46 61h2M53 61h5M63 61h2M69 61h10M5 62h10M19 62h2M29 62h2M32 62h4M39 62h6M46 62h2M53 62h2M63 62h2M69 62h10M9 63h2M19 63h2M29 63h2M32 63h2M39 63h2M43 63h2M46 63h2M53 63h2M63 63h2M73 63h2M9 64h2M19 64h2M25 64h2M29 64h2M32 64h2M39 64h2M43 64h2M47 64h2M50 64h2M53 64h2M57 64h2M63 64h2M73 64h2M9 65h2M19 65h2M25 65h5M32 65h2M38 65h2M44 65h2M48 65h4M53 65h6M63 65h2M73 65h2M9 66h2M19 66h2M63 66h2M73 66h2M9 67h2M19 67h2M63 67h2M73 67h2M9 68h2M20 68h44M73 68h2M9 69h2M21 69h42M73 69h2M9 70h2M73 70h2M9 71h2M17 71h8M38 71h4M73 71h2M9 72h2M17 72h2M20 72h2M23 72h2M39 72h2M73 72h2M9 73h2M20 73h2M39 73h2M73 73h2M9 74h2M20 74h2M26 74h4M39 74h2M42 74h3M46 74h3M51 74h4M56 74h2M61 74h5M73 74h2M9 75h2M20 75h2M25 75h2M29 75h2M39 75h2M43 75h2M47 75h2M50 75h9M60 75h4M65 75h2M73 75h2M9 76h2M20 76h2M25 76h2M29 76h2M39 76h2M43 76h2M47 76h2M51 76h2M54 76h2M57 76h2M61 76h2M65 76h2M73 76h2M9 77h2M20 77h2M25 77h2M29 77h2M39 77h2M43 77h2M47 77h2M51 77h2M54 77h2M57 77h2M61 77h2M65 77h2M73 77h2M9 78h2M20 78h2M25 78h2M29 78h2M37 78h4M43 78h2M46 78h4M51 78h2M54 78h2M57 78h2M61 78h3M65 78h2M73 78h2M9 79h2M19 79h4M26 79h4M37 79h3M44 79h5M50 79h10M61 79h5M73 79h2M61 80h2M61 81h2M60 82h4" />
<path stroke="rgba(112,96,0,0.06274509803921569)" d="M14 14h1" />
<path stroke="rgba(123,109,10,0.5058823529411764)" d="M15 14h1" />
<path stroke="rgba(255,237,120,0.6)" d="M16 14h1" />
<path stroke="rgba(255,223,23,0.6)" d="M17 14h1" />
<path stroke="rgba(173,150,0,0.6)" d="M20 14h1" />
<path stroke="rgba(237,222,110,0.6)" d="M28 14h1" />
<path stroke="rgba(216,190,7,0.596078431372549)" d="M29 14h1" />
<path stroke="rgba(108,93,0,0.6)" d="M30 14h1" />
<path stroke="rgba(244,214,0,0.5568627450980392)" d="M31 14h1" />
<path stroke="rgba(250,218,13,0.6)" d="M34 14h1" />
<path stroke="#dfc200" d="M63 14h1M47 17h1M61 18h1M61 19h1M60 20h2M44 21h1M59 21h2M62 21h1M46 22h1M57 22h3M61 22h1M48 23h1M56 23h3M60 23h1M49 24h8M26 36h1M7 37h2M8 38h2M9 39h3M24 39h1M11 40h6M21 40h4M15 41h9" />
<path stroke="#6c3200" d="M70 14h2M69 15h1M72 15h3M68 16h1M75 16h1M68 17h3M75 17h1M71 18h4M33 36h2M32 37h1M35 37h3M31 38h1M38 38h1M31 39h3M38 39h1M34 40h4" />
<path stroke="rgba(110,95,0,0.3803921568627451)" d="M14 15h1" />
<path stroke="rgba(145,127,24,0.4627450980392157)" d="M15 15h1" />
<path stroke="rgba(255,233,87,0.6)" d="M16 15h1" />
<path stroke="rgba(247,212,0,0.6)" d="M17 15h1" />
<path stroke="rgba(193,167,0,0.6)" d="M18 15h1" />
<path stroke="rgba(135,117,0,0.6)" d="M19 15h1" />
<path stroke="rgba(252,232,97,0.6)" d="M27 15h1" />
<path stroke="rgba(237,212,52,0.6)" d="M28 15h1" />
<path stroke="rgba(218,192,0,0.6)" d="M29 15h1" />
<path stroke="rgba(116,100,0,0.5019607843137255)" d="M30 15h1" />
<path stroke="rgba(157,135,0,0.45098039215686275)" d="M31 15h1" />
<path stroke="rgba(255,222,2,0.6)" d="M33 15h1" />
<path stroke="rgba(242,218,68,0.6)" d="M34 15h1" />
<path stroke="#ff7700" d="M70 15h2M69 16h6M71 17h4M33 37h2M32 38h6M34 39h4" />
<path stroke="rgba(109,95,0,0.13725490196078433)" d="M14 16h1" />
<path stroke="rgba(133,117,13,0.6)" d="M16 16h1" />
<path stroke="rgba(138,122,7,0.6)" d="M18 16h1" />
<path stroke="rgba(255,237,108,0.6)" d="M24 16h1M16 18h2" />
<path stroke="rgba(255,238,117,0.6)" d="M25 16h1M23 18h1M16 19h1" />
<path stroke="rgba(255,242,125,0.6)" d="M26 16h1" />
<path stroke="rgba(232,207,33,0.6)" d="M27 16h1" />
<path stroke="rgba(218,188,0,0.6)" d="M28 16h1" />
<path stroke="rgba(222,193,0,0.6)" d="M29 16h1" />
<path stroke="rgba(150,130,0,0.4470588235294118)" d="M30 16h1" />
<path stroke="rgba(160,137,0,0.45098039215686275)" d="M31 16h1" />
<path stroke="rgba(252,220,27,0.6)" d="M33 16h1" />
<path stroke="rgba(240,228,148,0.6)" d="M34 16h1" />
<path stroke="rgba(110,95,0,0.5372549019607843)" d="M14 17h1" />
<path stroke="rgba(153,137,27,0.6)" d="M15 17h1" />
<path stroke="rgba(197,178,58,0.6)" d="M16 17h1" />
<path stroke="rgba(252,232,102,0.6)" d="M17 17h1" />
<path stroke="rgba(255,237,117,0.6)" d="M18 17h1" />
<path stroke="rgba(238,213,57,0.6)" d="M25 17h1" />
<path stroke="rgba(228,203,22,0.6)" d="M26 17h1" />
<path stroke="rgba(217,188,7,0.6)" d="M27 17h1" />
<path stroke="rgba(168,147,2,0.6)" d="M28 17h1" />
<path stroke="rgba(127,108,0,0.6)" d="M29 17h1" />
<path stroke="rgba(110,95,0,0.5568627450980392)" d="M30 17h1" />
<path stroke="rgba(232,203,7,0.6)" d="M31 17h1" />
<path stroke="rgba(252,223,22,0.6)" d="M32 17h1" />
<path stroke="rgba(235,213,78,0.6)" d="M33 17h1" />
<path stroke="rgba(238,235,212,0.6)" d="M34 17h1" />
<path stroke="rgba(154,137,30,0.4745098039215686)" d="M14 18h1" />
<path stroke="rgba(255,237,110,0.6)" d="M18 18h1" />
<path stroke="rgba(250,228,88,0.6)" d="M24 18h1" />
<path stroke="rgba(218,187,0,0.6)" d="M25 18h1" />
<path stroke="rgba(220,188,0,0.6)" d="M26 18h1" />
<path stroke="rgba(118,103,7,0.6)" d="M27 18h1" />
<path stroke="rgba(137,118,0,0.6)" d="M28 18h1" />
<path stroke="rgba(181,158,0,0.596078431372549)" d="M29 18h1" />
<path stroke="rgba(220,191,0,0.596078431372549)" d="M30 18h1" />
<path stroke="rgba(247,218,32,0.6)" d="M31 18h1" />
<path stroke="rgba(242,223,107,0.6)" d="M32 18h1" />
<path stroke="rgba(238,237,208,0.6)" d="M33 18h1" />
<path stroke="rgba(238,235,205,0.6)" d="M34 18h1M34 19h1M33 20h2M31 21h3M30 22h3M30 23h1" />
<path stroke="rgba(111,95,0,0.5607843137254902)" d="M13 19h1M8 24h1M22 24h1" />
<path stroke="rgba(246,224,82,0.5843137254901961)" d="M14 19h1" />
<path stroke="rgba(252,230,88,0.6)" d="M17 19h1" />
<path stroke="rgba(242,217,47,0.6)" d="M22 19h1" />
<path stroke="rgba(232,202,5,0.6)" d="M23 19h1" />
<path stroke="rgba(217,188,5,0.6)" d="M24 19h1" />
<path stroke="rgba(173,157,43,0.6)" d="M25 19h1" />
<path stroke="rgba(130,113,10,0.6)" d="M26 19h1" />
<path stroke="rgba(177,153,0,0.6)" d="M27 19h1" />
<path stroke="rgba(228,200,17,0.6)" d="M28 19h1" />
<path stroke="rgba(232,205,28,0.6)" d="M29 19h1" />
<path stroke="rgba(238,213,55,0.6)" d="M30 19h1" />
<path stroke="rgba(237,218,97,0.6)" d="M31 19h1" />
<path stroke="rgba(237,232,188,0.6)" d="M32 19h1" />
<path stroke="rgba(238,235,207,0.6)" d="M33 19h1" />
<path stroke="#fbdf27" d="M67 19h1M30 41h1" />
<path stroke="#f4da2e" d="M68 19h1M31 41h1" />
<path stroke="#efebcd" d="M69 19h2M68 20h2M66 21h4M41 22h3M65 22h5M63 23h6M59 24h10M57 25h11M55 26h1M57 26h9M57 27h6M32 41h2M31 42h2M29 43h4M4 44h4M28 44h5M12 45h8M26 45h6M13 46h19M16 47h15M18 48h1M20 48h9M20 49h6" />
<path stroke="rgba(110,93,0,0.17254901960784313)" d="M12 20h1" />
<path stroke="rgba(169,149,32,0.4627450980392157)" d="M13 20h1" />
<path stroke="rgba(248,228,88,0.6)" d="M15 20h1" />
<path stroke="rgba(238,213,48,0.6)" d="M16 20h1" />
<path stroke="rgba(225,197,5,0.6)" d="M17 20h1" />
<path stroke="rgba(172,153,33,0.6)" d="M22 20h1" />
<path stroke="rgba(128,113,22,0.6)" d="M23 20h1" />
<path stroke="rgba(132,118,42,0.6)" d="M25 20h1" />
<path stroke="rgba(173,162,77,0.6)" d="M26 20h1" />
<path stroke="rgba(223,192,0,0.6)" d="M27 20h1" />
<path stroke="rgba(242,223,117,0.6)" d="M28 20h1" />
<path stroke="rgba(242,232,162,0.6)" d="M29 20h1" />
<path stroke="rgba(238,233,192,0.6)" d="M30 20h1" />
<path stroke="rgba(238,237,218,0.6)" d="M31 20h1" />
<path stroke="rgba(238,237,210,0.6)" d="M32 20h1" />
<path stroke="#f3dc47" d="M66 20h1M65 21h1M29 42h1M28 43h1" />
<path stroke="#efdb53" d="M67 20h1M30 42h1" />
<path stroke="rgba(151,134,25,0.5294117647058824)" d="M13 21h1" />
<path stroke="rgba(187,167,27,0.6)" d="M14 21h1" />
<path stroke="rgba(203,177,0,0.6)" d="M15 21h1" />
<path stroke="rgba(163,142,0,0.6)" d="M16 21h1" />
<path stroke="rgba(123,108,5,0.6)" d="M17 21h1" />
<path stroke="rgba(132,120,42,0.6)" d="M22 21h1" />
<path stroke="rgba(177,168,120,0.6)" d="M23 21h1" />
<path stroke="rgba(218,213,182,0.6)" d="M24 21h1" />
<path stroke="rgba(225,222,193,0.6)" d="M25 21h1" />
<path stroke="rgba(232,227,188,0.6)" d="M26 21h1" />
<path stroke="rgba(238,232,187,0.6)" d="M27 21h1" />
<path stroke="rgba(240,238,220,0.6)" d="M28 21h1" />
<path stroke="rgba(243,242,232,0.6)" d="M29 21h1" />
<path stroke="rgba(240,237,208,0.6)" d="M30 21h1" />
<path stroke="rgba(236,231,201,0.592156862745098)" d="M34 21h1" />
<path stroke="rgba(162,152,84,0.4745098039215686)" d="M35 21h1" />
<path stroke="rgba(113,98,2,0.45098039215686275)" d="M36 21h1" />
<path stroke="#f8dc21" d="M40 21h3M3 43h3" />
<path stroke="#fddd0f" d="M64 21h1M27 43h1M20 44h1" />
<path stroke="rgba(107,99,0,0.12156862745098039)" d="M9 22h1" />
<path stroke="rgba(111,95,0,0.5686274509803921)" d="M11 22h1" />
<path stroke="rgba(112,97,2,0.5372549019607843)" d="M12 22h1" />
<path stroke="rgba(148,131,21,0.5333333333333333)" d="M13 22h1" />
<path stroke="rgba(205,182,32,0.6)" d="M14 22h1" />
<path stroke="rgba(112,97,0,0.6)" d="M15 22h1" />
<path stroke="rgba(152,137,35,0.6)" d="M16 22h1" />
<path stroke="rgba(218,213,183,0.6)" d="M21 22h1" />
<path stroke="rgba(227,222,192,0.6)" d="M22 22h1" />
<path stroke="rgba(232,228,198,0.6)" d="M23 22h1" />
<path stroke="rgba(238,233,203,0.6)" d="M24 22h1M33 22h1" />
<path stroke="rgba(242,237,208,0.6)" d="M25 22h1" />
<path stroke="rgba(243,240,217,0.6)" d="M26 22h1" />
<path stroke="rgba(243,240,218,0.6)" d="M27 22h1" />
<path stroke="rgba(242,238,217,0.6)" d="M28 22h1" />
<path stroke="rgba(242,237,212,0.6)" d="M29 22h1" />
<path stroke="rgba(183,174,119,0.47058823529411764)" d="M34 22h1" />
<path stroke="rgba(110,95,0,0.4627450980392157)" d="M35 22h1" />
<path stroke="rgba(113,94,0,0.10588235294117647)" d="M36 22h1M21 25h1" />
<path stroke="#fcde22" d="M62 22h1M25 44h1" />
<path stroke="#f7de33" d="M63 22h1M26 44h1" />
<path stroke="#ead75b" d="M64 22h1M27 44h1" />
<path stroke="rgba(113,99,0,0.07058823529411765)" d="M8 23h1" />
<path stroke="rgba(112,96,0,0.5725490196078431)" d="M9 23h1" />
<path stroke="rgba(153,134,13,0.47843137254901963)" d="M10 23h1" />
<path stroke="rgba(217,190,15,0.5215686274509804)" d="M11 23h1" />
<path stroke="rgba(247,220,48,0.6)" d="M12 23h1" />
<path stroke="rgba(238,223,125,0.6)" d="M13 23h1" />
<path stroke="rgba(242,232,172,0.6)" d="M14 23h1" />
<path stroke="rgba(239,236,210,0.5803921568627451)" d="M15 23h1" />
<path stroke="rgba(180,174,130,0.4549019607843137)" d="M16 23h1" />
<path stroke="rgba(238,237,217,0.6)" d="M21 23h1" />
<path stroke="rgba(205,197,149,0.5019607843137255)" d="M22 23h1" />
<path stroke="rgba(175,165,102,0.49019607843137253)" d="M23 23h1" />
<path stroke="rgba(238,235,203,0.6)" d="M24 23h1M29 23h1" />
<path stroke="rgba(220,214,177,0.5372549019607843)" d="M25 23h1" />
<path stroke="rgba(240,237,212,0.6)" d="M26 23h1" />
<path stroke="rgba(233,228,202,0.6)" d="M27 23h1" />
<path stroke="rgba(240,237,205,0.6)" d="M28 23h1" />
<path stroke="rgba(233,227,195,0.5803921568627451)" d="M31 23h1" />
<path stroke="rgba(171,160,97,0.4745098039215686)" d="M32 23h1" />
<path stroke="rgba(119,104,13,0.5215686274509804)" d="M33 23h1" />
<path stroke="#f1d93c" d="M61 23h1M24 45h1" />
<path stroke="#ebd752" d="M62 23h1M25 45h1" />
<path stroke="rgba(251,218,0,0.5686274509803921)" d="M9 24h1" />
<path stroke="rgba(185,162,10,0.48627450980392156)" d="M10 24h1" />
<path stroke="rgba(223,211,121,0.5686274509803921)" d="M11 24h1" />
<path stroke="rgba(234,229,208,0.5803921568627451)" d="M12 24h1" />
<path stroke="rgba(173,165,109,0.47843137254901963)" d="M13 24h1" />
<path stroke="rgba(121,105,16,0.5137254901960784)" d="M14 24h1" />
<path stroke="rgba(110,96,0,0.5019607843137255)" d="M16 24h1" />
<path stroke="rgba(110,96,2,0.5803921568627451)" d="M21 24h1" />
<path stroke="rgba(131,117,34,0.2901960784313726)" d="M23 24h1" />
<path stroke="rgba(112,96,2,0.5607843137254902)" d="M24 24h1" />
<path stroke="rgba(112,96,4,0.5098039215686274)" d="M25 24h1" />
<path stroke="rgba(163,152,84,0.4549019607843137)" d="M26 24h1" />
<path stroke="rgba(114,99,6,0.5450980392156862)" d="M27 24h1" />
<path stroke="rgba(232,228,195,0.5647058823529412)" d="M28 24h1" />
<path stroke="rgba(169,158,95,0.4745098039215686)" d="M29 24h1" />
<path stroke="rgba(118,105,13,0.5254901960784314)" d="M30 24h1" />
<path stroke="rgba(110,96,0,0.49019607843137253)" d="M32 24h1M13 25h1" />
<path stroke="rgba(110,94,0,0.2549019607843137)" d="M33 24h1M14 25h1" />
<path stroke="rgba(96,96,0,0.03137254901960784)" d="M34 24h1M15 25h1" />
<path stroke="rgba(108,96,0,0.1568627450980392)" d="M8 25h1" />
<path stroke="rgba(109,96,0,0.3843137254901961)" d="M9 25h1" />
<path stroke="rgba(110,95,0,0.4549019607843137)" d="M10 25h1" />
<path stroke="rgba(143,127,34,0.3215686274509804)" d="M11 25h1" />
<path stroke="rgba(107,94,0,0.14901960784313725)" d="M24 25h1" />
<path stroke="rgba(111,96,0,0.396078431372549)" d="M26 25h1" />
<path stroke="rgba(110,95,0,0.2)" d="M27 25h1" />
<path stroke="rgba(109,94,0,0.403921568627451)" d="M28 25h1" />
<path stroke="rgba(111,94,0,0.47843137254901963)" d="M29 25h1" />
<path stroke="rgba(112,96,0,0.25098039215686274)" d="M30 25h1" />
<path stroke="rgba(127,85,0,0.023529411764705882)" d="M31 25h1" />
<path stroke="rgba(111,100,0,0.09019607843137255)" d="M11 26h1" />
<path stroke="rgba(109,109,0,0.027450980392156862)" d="M12 26h1" />
<path stroke="rgba(85,85,0,0.011764705882352941)" d="M28 26h1" />
<path stroke="#e6e2c5" d="M56 26h1M63 27h1M8 44h6M19 48h1M26 49h1" />
<path stroke="#f3d50e" d="M6 43h1" />
<path stroke="#efd31a" d="M7 43h1M9 43h1M13 43h1" />
<path stroke="#f9dc1b" d="M10 43h1M19 44h1" />
<path stroke="#efd426" d="M11 43h2M16 44h3" />
<path stroke="#ede08f" d="M14 44h2" />
<path stroke="#eed745" d="M20 45h3" />
<path stroke="#f6de3c" d="M23 45h1" />
<path stroke="rgba(110,95,0,0.9450980392156862)" d="M24 50h1" />
<path stroke="rgba(110,95,0,0.9529411764705882)" d="M25 50h1" />
<path stroke="rgba(0,0,0,0.984313725490196)" d="M37 61h1" />
<path stroke="rgba(0,0,0,0.12156862745098039)" d="M38 61h1" />
<path stroke="rgba(0,0,0,0.8901960784313725)" d="M39 61h1" />
</svg>