<?xml version="1.0" encoding="utf-8"?>
<!-- Generator: Adobe Illustrator 24.2.3, SVG Export Plug-In . SVG Version: 6.00 Build 0)  -->
<svg version="1.1" id="Layer_5" xmlns="http://www.w3.org/2000/svg" xmlns:xlink="http://www.w3.org/1999/xlink" x="0px" y="0px"
	 viewBox="0 0 38 24" style="enable-background:new 0 0 38 24;" xml:space="preserve">
<style type="text/css">
	.st0{fill:#FF7700;}
	.st1{fill:#6C3200;}
	.st2{fill:#6E5F00;}
	.st3{fill:#EFEBCD;}
	.st4{fill:#FFE000;}
	.st5{fill:#FFDD00;}
	.st6{fill:#FFED85;}
	.st7{fill:#EFD426;}
	.st8{fill:#E1C500;}
	.st9{fill:#FFE887;}
	.st10{fill:#DFC200;}
</style>
<g>
	<polygon class="st0" points="37,11 36,11 35,11 34,11 34,10 33,10 32,10 32,11 31,11 31,12 32,12 33,12 33,13 34,13 35,13 36,13 
		37,13 37,12 	"/>
	<polygon class="st1" points="37,11 37,12 37,13 38,13 38,12 38,11 	"/>
	<polygon class="st1" points="35,13 34,13 33,13 33,14 34,14 35,14 36,14 37,14 37,13 36,13 	"/>
	<polygon class="st1" points="34,11 35,11 36,11 37,11 37,10 36,10 35,10 34,10 	"/>
	<polygon class="st2" points="34,8 34,9 34,10 35,10 35,9 35,8 35,7 35,6 34,6 34,7 	"/>
	<rect x="33" y="14" class="st2" width="1" height="1"/>
	<polygon class="st1" points="33,9 32,9 32,10 33,10 34,10 34,9 	"/>
	<polygon class="st2" points="33,6 34,6 34,5 34,4 33,4 33,5 	"/>
	<polygon class="st2" points="32,16 32,17 32,18 33,18 33,17 33,16 33,15 32,15 	"/>
	<polygon class="st3" points="32,14 31,14 31,15 30,15 30,16 29,16 28,16 28,17 27,17 27,18 26,18 25,18 25,19 24,19 23,19 22,19 
		21,19 20,19 19,19 19,18 18,18 17,18 16,18 15,18 14,18 13,18 13,17 12,17 11,17 10,17 9,17 8,17 7,17 6,17 5,17 4,17 3,17 3,18 
		4,18 5,18 6,18 7,18 8,18 9,18 10,18 11,18 11,19 12,19 12,20 13,20 14,20 15,20 15,21 16,21 17,21 17,22 18,22 19,22 19,23 20,23 
		21,23 22,23 23,23 24,23 25,23 26,23 26,22 27,22 28,22 28,21 29,21 30,21 30,20 31,20 31,19 31,18 32,18 32,17 32,16 32,15 33,15 
		33,14 	"/>
	<rect x="32" y="3" class="st2" width="1" height="1"/>
	<polygon class="st2" points="31,19 31,20 32,20 32,19 32,18 31,18 	"/>
	<polygon class="st4" points="31,13 30,13 29,13 29,14 28,14 27,14 26,14 26,13 25,13 25,14 25,15 24,15 24,16 23,16 23,17 22,17 
		21,17 21,18 22,18 23,18 24,18 25,18 25,17 26,17 27,17 27,16 28,16 28,15 29,15 30,15 30,14 31,14 32,14 33,14 33,13 32,13 	"/>
	<rect x="31" y="10" class="st1" width="1" height="1"/>
	<polygon class="st5" points="31,4 31,3 30,3 29,3 28,3 28,2 27,2 26,2 26,3 25,3 24,3 23,3 23,4 22,4 22,5 21,5 20,5 20,6 19,6 
		19,7 20,7 20,8 21,8 22,8 23,8 23,7 24,7 25,7 26,7 27,7 28,7 28,8 28,9 29,9 29,10 28,10 28,11 27,11 26,11 25,11 25,12 25,13 
		26,13 26,14 27,14 28,14 29,14 29,13 30,13 30,12 30,11 31,11 31,10 32,10 32,9 33,9 34,9 34,8 34,7 34,6 33,6 33,5 33,4 32,4 	"/>
	<rect x="31" y="3" class="st6" width="1" height="1"/>
	<rect x="31" y="2" class="st2" width="1" height="1"/>
	<rect x="30" y="20" class="st2" width="1" height="1"/>
	<rect x="30" y="14" class="st7" width="1" height="1"/>
	<polygon class="st1" points="30,12 30,13 31,13 32,13 33,13 33,12 32,12 31,12 31,11 30,11 	"/>
	<polygon class="st2" points="30,2 31,2 31,1 30,1 29,1 29,2 	"/>
	<polygon class="st2" points="28,21 28,22 29,22 30,22 30,21 29,21 	"/>
	<polygon class="st7" points="28,15 28,16 29,16 30,16 30,15 29,15 	"/>
	<rect x="27" y="16" class="st7" width="1" height="1"/>
	<polygon class="st2" points="26,22 26,23 27,23 28,23 28,22 27,22 	"/>
	<polygon points="26,8 26,9 26,10 26,11 27,11 28,11 28,10 29,10 29,9 28,9 28,8 27,8 	"/>
	<polygon class="st7" points="25,17 25,18 26,18 27,18 27,17 26,17 	"/>
	<rect x="25" y="9" class="st8" width="1" height="1"/>
	<polygon class="st2" points="26,1 27,1 28,1 29,1 29,0 28,0 27,0 26,0 25,0 24,0 24,1 25,1 	"/>
	<polygon class="st2" points="24,23 23,23 22,23 21,23 20,23 19,23 19,24 20,24 21,24 22,24 23,24 24,24 25,24 26,24 26,23 25,23 	
		"/>
	<rect x="24" y="14" class="st7" width="1" height="1"/>
	<polygon class="st2" points="25,13 25,12 24,12 24,13 24,14 25,14 	"/>
	<polygon class="st4" points="25,11 26,11 26,10 25,10 25,9 26,9 26,8 27,8 28,8 28,7 27,7 26,7 25,7 24,7 23,7 23,8 22,8 21,8 
		21,9 22,9 22,10 23,10 23,11 24,11 24,12 25,12 	"/>
	<rect x="23" y="15" class="st7" width="1" height="1"/>
	<rect x="23" y="14" class="st2" width="1" height="1"/>
	<rect x="23" y="11" class="st2" width="1" height="1"/>
	<polygon class="st2" points="24,2 24,1 23,1 22,1 22,2 23,2 	"/>
	<polygon class="st2" points="22,15 21,15 20,15 19,15 18,15 17,15 16,15 15,15 14,15 14,16 15,16 16,16 17,16 18,16 19,16 20,16 
		21,16 22,16 23,16 23,15 	"/>
	<rect x="22" y="10" class="st2" width="1" height="1"/>
	<rect x="21" y="9" class="st2" width="1" height="1"/>
	<polygon class="st2" points="22,3 22,2 21,2 20,2 20,3 21,3 	"/>
	<rect x="20" y="8" class="st2" width="1" height="1"/>
	<polygon class="st2" points="19,7 18,7 18,8 19,8 20,8 20,7 	"/>
	<rect x="19" y="3" class="st2" width="1" height="1"/>
	<polygon class="st2" points="18,22 17,22 17,23 18,23 19,23 19,22 	"/>
	<rect x="18" y="9" class="st9" width="1" height="1"/>
	<polygon class="st2" points="18,5 19,5 19,4 18,4 17,4 16,4 16,5 17,5 	"/>
	<polygon class="st2" points="16,21 15,21 15,22 16,22 17,22 17,21 	"/>
	<polygon class="st6" points="17,6 18,6 18,7 19,7 19,6 20,6 20,5 21,5 22,5 22,4 23,4 23,3 24,3 25,3 26,3 26,2 27,2 28,2 28,3 
		29,3 30,3 31,3 31,2 30,2 29,2 29,1 28,1 27,1 26,1 25,1 24,1 24,2 23,2 22,2 22,3 21,3 20,3 20,4 19,4 19,5 18,5 17,5 16,5 16,6 	
		"/>
	<polygon class="st2" points="14,20 13,20 12,20 12,21 13,21 14,21 15,21 15,20 	"/>
	<polygon class="st2" points="13,14 12,14 11,14 10,14 10,15 11,15 12,15 13,15 14,15 14,14 	"/>
	<polygon class="st2" points="13,6 14,6 15,6 15,7 16,7 17,7 18,7 18,6 17,6 16,6 16,5 15,5 14,5 13,5 12,5 11,5 11,6 12,6 	"/>
	<rect x="11" y="19" class="st2" width="1" height="1"/>
	<polygon class="st2" points="10,18 9,18 8,18 7,18 6,18 5,18 4,18 3,18 3,19 4,19 5,19 6,19 7,19 8,19 9,19 10,19 11,19 11,18 	"/>
	<polygon class="st2" points="11,7 11,6 10,6 9,6 9,7 10,7 	"/>
	<polygon class="st10" points="10,13 10,14 11,14 12,14 13,14 14,14 14,15 15,15 16,15 17,15 18,15 19,15 20,15 21,15 22,15 23,15 
		23,14 24,14 24,13 24,12 23,12 23,13 22,13 21,13 20,13 20,14 19,14 18,14 17,14 16,14 16,13 15,13 14,13 13,13 12,13 11,13 11,12 
		10,12 9,12 9,11 8,11 8,10 7,10 6,10 6,11 7,11 7,12 8,12 8,13 9,13 	"/>
	<polygon class="st7" points="8,17 9,17 10,17 11,17 12,17 13,17 13,18 14,18 15,18 16,18 17,18 18,18 19,18 19,19 20,19 21,19 
		22,19 23,19 24,19 25,19 25,18 24,18 23,18 22,18 21,18 21,17 22,17 23,17 23,16 22,16 21,16 20,16 19,16 18,16 17,16 16,16 15,16 
		14,16 14,15 13,15 12,15 11,15 10,15 10,14 9,14 9,15 8,15 8,16 	"/>
	<polygon class="st2" points="9,14 10,14 10,13 9,13 8,13 8,14 8,15 9,15 	"/>
	<rect x="8" y="7" class="st2" width="1" height="1"/>
	<rect x="7" y="12" class="st2" width="1" height="1"/>
	<polygon class="st2" points="8,9 8,8 7,8 6,8 6,9 7,9 	"/>
	<polygon class="st7" points="6,16 5,16 5,17 6,17 7,17 7,16 	"/>
	<rect x="6" y="11" class="st2" width="1" height="1"/>
	<path class="st6" d="M7,10h1v1h1v1h1h1v1h1h1h1h1h1v1h1h1h1h1v-1h1h1h1v-1v-1h-1v-1h-1V9h-1V8h-1h-1V7h-1h-1h-1V6h-1h-1h-1h-1v1h-1
		H9v1H8v1H7H6v1H7z M19,9v1h-1V9H19z"/>
	<polygon class="st2" points="6,9 5,9 5,10 5,11 6,11 6,10 	"/>
	<polygon class="st2" points="2,17 1,17 1,16 0,16 0,17 0,18 1,18 2,18 3,18 3,17 	"/>
	<polygon class="st2" points="3,16 4,16 5,16 6,16 7,16 7,17 8,17 8,16 8,15 7,15 6,15 5,15 4,15 3,15 2,15 1,15 1,16 2,16 	"/>
	<polygon class="st4" points="2,17 3,17 4,17 5,17 5,16 4,16 3,16 2,16 1,16 1,17 	"/>
</g>
</svg>
