<?xml version="1.0" encoding="utf-8"?>
<!-- Generator: Adobe Illustrator 24.2.3, SVG Export Plug-In . SVG Version: 6.00 Build 0)  -->
<svg version="1.1" id="Layer_4" xmlns="http://www.w3.org/2000/svg" xmlns:xlink="http://www.w3.org/1999/xlink" x="0px" y="0px"
	 viewBox="0 0 38 24" style="enable-background:new 0 0 38 24;" xml:space="preserve">
<style type="text/css">
	.st0{fill:#D8D8D8;}
	.st1{fill:#606060;}
	.st2{fill:#919191;}
	.st3{fill:#7D7D7D;}
	.st4{fill:#CCCCCC;}
	.st5{fill:#F2F2F2;}
	.st6{fill:#BFBFBF;}
	.st7{fill:#AAAAAA;}
</style>
<g id="Layer_4">
	<g>
		<g>
			<g>
				<g>
					<polygon class="st0" points="38,12 38,13 37,13 37,12 37,11 38,11 					"/>
					<polygon class="st0" points="37,13 37,14 36,14 35,14 34,14 33,14 33,13 34,13 35,13 36,13 					"/>
					<polygon class="st0" points="37,12 37,13 36,13 35,13 34,13 33,13 33,12 32,12 31,12 31,11 32,11 32,10 33,10 34,10 34,11 
						35,11 36,11 37,11 					"/>
					<polygon class="st0" points="37,10 37,11 36,11 35,11 34,11 34,10 35,10 36,10 					"/>
					<polygon class="st0" points="35,9 35,10 34,10 34,9 34,8 34,7 34,6 35,6 35,7 35,8 					"/>
					<rect x="33" y="14" class="st0" width="1" height="1"/>
					<polygon class="st0" points="34,9 34,10 33,10 32,10 32,9 33,9 					"/>
					<path class="st0" d="M34,8v1h-1h-1v1h-1v1h-1v1v1h1h1h1v1h-1h-1h-1v1h-1h-1v1h-1v1h-1h-1v-1v-1v-1v-1h-1v-1h-1v-1h-1h-1h-1v-1
						h-1h-1h-1h-1h-1v1h-1h-1h-1h-1v-1h1V9h1h1V8h1h1h1V7h1h1V6h1V5h1h1V4h1V3h1h1h1V2h1h1v1h1h1h1h1v1h1v1v1h1v1V8z M29,10V9h-1V8
						h-1h-1v1h-1v1h1v1h1h1v-1H29z"/>
					<polygon class="st0" points="34,5 34,6 33,6 33,5 33,4 34,4 					"/>
					<polygon class="st0" points="33,17 33,18 32,18 32,17 32,16 32,15 33,15 33,16 					"/>
					<polygon class="st0" points="33,14 33,15 32,15 32,16 32,17 32,18 31,18 31,19 31,20 30,20 30,21 29,21 28,21 28,22 27,22 
						26,22 26,23 25,23 24,23 23,23 22,23 21,23 20,23 19,23 19,22 18,22 17,22 17,21 16,21 15,21 15,20 14,20 13,20 12,20 12,19 
						11,19 11,18 12,18 13,18 14,18 15,18 16,18 17,18 18,18 19,18 19,19 20,19 21,19 22,19 23,19 24,19 25,19 25,18 26,18 27,18 
						27,17 28,17 28,16 29,16 30,16 30,15 31,15 31,14 32,14 					"/>
					<polygon class="st0" points="33,12 33,13 32,13 31,13 30,13 30,12 30,11 31,11 31,12 32,12 					"/>
					<rect x="32" y="3" class="st0" width="1" height="1"/>
					<polygon class="st0" points="32,19 32,20 31,20 31,19 31,18 32,18 					"/>
					<rect x="31" y="10" class="st0" width="1" height="1"/>
					<rect x="31" y="2" class="st0" width="1" height="1"/>
					<rect x="30" y="20" class="st0" width="1" height="1"/>
					<rect x="30" y="14" class="st0" width="1" height="1"/>
					<polygon class="st0" points="31,2 31,3 30,3 29,3 28,3 28,2 27,2 26,2 26,3 25,3 24,3 23,3 23,4 22,4 22,5 21,5 20,5 20,6 
						19,6 19,7 18,7 17,7 17,8 16,8 15,8 14,8 14,9 13,9 12,9 12,10 11,10 11,11 10,11 10,10 10,9 11,9 11,8 12,8 12,7 13,7 14,7 
						14,6 15,6 16,6 16,5 17,5 18,5 19,5 19,4 20,4 20,3 21,3 22,3 22,2 23,2 24,2 24,1 25,1 26,1 27,1 28,1 29,1 29,2 30,2 					
						"/>
					<polygon class="st0" points="31,1 31,2 30,2 29,2 29,1 30,1 					"/>
					<polygon class="st0" points="30,21 30,22 29,22 28,22 28,21 29,21 					"/>
					<polygon class="st0" points="30,15 30,16 29,16 28,16 28,15 29,15 					"/>
					<polygon class="st0" points="29,9 29,10 28,10 28,11 27,11 26,11 26,10 26,9 26,8 27,8 28,8 28,9 					"/>
					<polygon class="st0" points="29,0 29,1 28,1 27,1 26,1 25,1 24,1 24,0 25,0 26,0 27,0 28,0 					"/>
					<polygon class="st0" points="28,22 28,23 27,23 26,23 26,22 27,22 					"/>
					<rect x="27" y="16" class="st0" width="1" height="1"/>
					<polygon class="st0" points="27,17 27,18 26,18 25,18 25,19 24,19 23,19 22,19 21,19 20,19 19,19 19,18 20,18 20,17 21,17 
						22,17 23,17 24,17 24,16 25,16 25,17 26,17 					"/>
					<polygon class="st0" points="26,23 26,24 25,24 24,24 23,24 22,24 21,24 20,24 19,24 19,23 20,23 21,23 22,23 23,23 24,23 
						25,23 					"/>
					<rect x="25" y="9" class="st0" width="1" height="1"/>
					<polygon class="st0" points="25,15 25,16 24,16 24,15 24,14 24,13 25,13 25,14 					"/>
					<polygon class="st0" points="24,16 24,17 23,17 22,17 21,17 20,17 20,16 21,16 22,16 23,16 					"/>
					<polygon class="st0" points="24,15 24,16 23,16 22,16 21,16 20,16 20,17 19,17 18,17 17,17 16,17 15,17 14,17 13,17 12,17 
						11,17 11,16 10,16 9,16 8,16 7,16 7,15 8,15 9,15 10,15 11,15 12,15 12,16 13,16 14,16 15,16 16,16 17,16 18,16 18,15 19,15 
						20,15 21,15 21,14 22,14 23,14 23,13 24,13 24,14 					"/>
					<rect x="23" y="12" class="st0" width="1" height="1"/>
					<polygon class="st0" points="24,1 24,2 23,2 22,2 22,1 23,1 					"/>
					<polygon class="st0" points="23,13 23,14 22,14 21,14 21,15 20,15 19,15 18,15 18,16 17,16 16,16 15,16 14,16 13,16 12,16 
						12,15 11,15 10,15 9,15 8,15 7,15 6,15 6,14 7,14 7,13 8,13 8,12 9,12 10,12 11,12 12,12 13,12 14,12 15,12 15,11 16,11 17,11 
						18,11 19,11 20,11 20,12 21,12 22,12 23,12 					"/>
					<polygon class="st0" points="23,11 23,12 22,12 21,12 20,12 20,11 21,11 22,11 					"/>
					<polygon class="st0" points="22,2 22,3 21,3 20,3 20,2 21,2 					"/>
					<polygon class="st0" points="20,17 20,18 19,18 18,18 17,18 16,18 15,18 14,18 13,18 12,18 11,18 11,17 12,17 13,17 14,17 
						15,17 16,17 17,17 18,17 19,17 					"/>
					<polygon class="st0" points="20,10 20,11 19,11 18,11 17,11 16,11 15,11 15,10 16,10 17,10 18,10 19,10 					"/>
					<rect x="19" y="3" class="st0" width="1" height="1"/>
					<polygon class="st0" points="19,22 19,23 18,23 17,23 17,22 18,22 					"/>
					<polygon class="st0" points="19,4 19,5 18,5 17,5 16,5 16,4 17,4 18,4 					"/>
					<polygon class="st0" points="17,21 17,22 16,22 15,22 15,21 16,21 					"/>
					<polygon class="st0" points="16,5 16,6 15,6 14,6 14,5 15,5 					"/>
					<polygon class="st0" points="15,20 15,21 14,21 13,21 12,21 12,20 13,20 14,20 					"/>
					<polygon class="st0" points="15,11 15,12 14,12 13,12 12,12 11,12 10,12 9,12 8,12 8,11 9,11 9,10 9,9 10,9 10,10 10,11 11,11 
						12,11 13,11 14,11 					"/>
					<polygon class="st0" points="14,6 14,7 13,7 12,7 12,6 13,6 					"/>
					<rect x="11" y="19" class="st0" width="1" height="1"/>
					<rect x="11" y="7" class="st0" width="1" height="1"/>
					<polygon class="st0" points="11,18 11,19 10,19 9,19 8,19 7,19 6,19 5,19 4,19 3,19 3,18 4,18 5,18 6,18 7,18 8,18 9,18 10,18 
											"/>
					<polygon class="st0" points="11,17 11,18 10,18 9,18 8,18 7,18 6,18 5,18 4,18 3,18 3,17 4,17 5,17 6,17 7,17 8,17 9,17 10,17 
											"/>
					<polygon class="st0" points="11,16 11,17 10,17 9,17 8,17 7,17 7,16 8,16 9,16 10,16 					"/>
					<rect x="10" y="8" class="st0" width="1" height="1"/>
					<rect x="7" y="12" class="st0" width="1" height="1"/>
					<polygon class="st0" points="7,16 7,17 6,17 5,17 5,16 6,16 					"/>
					<polygon class="st0" points="7,15 7,16 6,16 5,16 4,16 3,16 2,16 1,16 1,15 2,15 3,15 4,15 5,15 5,14 6,14 6,15 					"/>
					<rect x="6" y="13" class="st0" width="1" height="1"/>
					<polygon class="st0" points="5,16 5,17 4,17 3,17 2,17 1,17 1,16 2,16 3,16 4,16 					"/>
					<polygon class="st0" points="3,17 3,18 2,18 1,18 1,17 2,17 					"/>
					<rect y="16" class="st0" width="1" height="1"/>
				</g>
			</g>
		</g>
	</g>
	<g>
		<g>
			<g>
				<g>
					<polygon class="st1" points="38,12 38,13 37,13 37,12 37,11 38,11 					"/>
					<polygon class="st1" points="37,13 37,14 36,14 35,14 34,14 33,14 33,13 34,13 35,13 36,13 					"/>
					<polygon class="st2" points="37,12 37,13 36,13 35,13 34,13 33,13 33,12 32,12 31,12 31,11 32,11 32,10 33,10 34,10 34,11 
						35,11 36,11 37,11 					"/>
					<polygon class="st1" points="37,10 37,11 36,11 35,11 34,11 34,10 35,10 36,10 					"/>
					<polygon class="st3" points="35,9 35,10 34,10 34,9 34,8 34,7 34,6 35,6 35,7 35,8 					"/>
					<rect x="33" y="14" class="st3" width="1" height="1"/>
					<polygon class="st1" points="34,9 34,10 33,10 32,10 32,9 33,9 					"/>
					<path class="st4" d="M34,8v1h-1h-1v1h-1v1h-1v1v1h1h1h1v1h-1h-1h-1v1h-1h-1v1h-1v1h-1h-1v-1v-1v-1v-1h-1v-1h-1v-1h-1h-1h-1v-1
						h-1h-1h-1h-1h-1v1h-1h-1h-1h-1v-1h1V9h1h1V8h1h1h1V7h1h1V6h1V5h1h1V4h1V3h1h1h1V2h1h1v1h1h1h1h1v1h1v1v1h1v1V8z M29,10V9h-1V8
						h-1h-1v1h-1v1h1v1h1h1v-1H29z"/>
					<polygon class="st3" points="34,5 34,6 33,6 33,5 33,4 34,4 					"/>
					<polygon class="st3" points="33,17 33,18 32,18 32,17 32,16 32,15 33,15 33,16 					"/>
					<polygon class="st5" points="33,14 33,15 32,15 32,16 32,17 32,18 31,18 31,19 31,20 30,20 30,21 29,21 28,21 28,22 27,22 
						26,22 26,23 25,23 24,23 23,23 22,23 21,23 20,23 19,23 19,22 18,22 17,22 17,21 16,21 15,21 15,20 14,20 13,20 12,20 12,19 
						11,19 11,18 12,18 13,18 14,18 15,18 16,18 17,18 18,18 19,18 19,19 20,19 21,19 22,19 23,19 24,19 25,19 25,18 26,18 27,18 
						27,17 28,17 28,16 29,16 30,16 30,15 31,15 31,14 32,14 					"/>
					<polygon class="st1" points="33,12 33,13 32,13 31,13 30,13 30,12 30,11 31,11 31,12 32,12 					"/>
					<rect x="32" y="3" class="st3" width="1" height="1"/>
					<polygon class="st3" points="32,19 32,20 31,20 31,19 31,18 32,18 					"/>
					<rect x="31" y="10" class="st1" width="1" height="1"/>
					<rect x="31" y="2" class="st3" width="1" height="1"/>
					<rect x="30" y="20" class="st3" width="1" height="1"/>
					<rect x="30" y="14" class="st6" width="1" height="1"/>
					<polygon class="st0" points="31,2 31,3 30,3 29,3 28,3 28,2 27,2 26,2 26,3 25,3 24,3 23,3 23,4 22,4 22,5 21,5 20,5 20,6 
						19,6 19,7 18,7 17,7 17,8 16,8 15,8 14,8 14,9 13,9 12,9 12,10 11,10 11,11 10,11 10,10 10,9 11,9 11,8 12,8 12,7 13,7 14,7 
						14,6 15,6 16,6 16,5 17,5 18,5 19,5 19,4 20,4 20,3 21,3 22,3 22,2 23,2 24,2 24,1 25,1 26,1 27,1 28,1 29,1 29,2 30,2 					
						"/>
					<polygon class="st3" points="31,1 31,2 30,2 29,2 29,1 30,1 					"/>
					<polygon class="st3" points="30,21 30,22 29,22 28,22 28,21 29,21 					"/>
					<polygon class="st6" points="30,15 30,16 29,16 28,16 28,15 29,15 					"/>
					<polygon points="29,9 29,10 28,10 28,11 27,11 26,11 26,10 26,9 26,8 27,8 28,8 28,9 					"/>
					<polygon class="st3" points="29,0 29,1 28,1 27,1 26,1 25,1 24,1 24,0 25,0 26,0 27,0 28,0 					"/>
					<polygon class="st3" points="28,22 28,23 27,23 26,23 26,22 27,22 					"/>
					<rect x="27" y="16" class="st6" width="1" height="1"/>
					<polygon class="st6" points="27,17 27,18 26,18 25,18 25,19 24,19 23,19 22,19 21,19 20,19 19,19 19,18 20,18 20,17 21,17 
						22,17 23,17 24,17 24,16 25,16 25,17 26,17 					"/>
					<polygon class="st3" points="26,23 26,24 25,24 24,24 23,24 22,24 21,24 20,24 19,24 19,23 20,23 21,23 22,23 23,23 24,23 
						25,23 					"/>
					<rect x="25" y="9" class="st7" width="1" height="1"/>
					<polygon class="st3" points="25,15 25,16 24,16 24,15 24,14 24,13 25,13 25,14 					"/>
					<polygon class="st3" points="24,16 24,17 23,17 22,17 21,17 20,17 20,16 21,16 22,16 23,16 					"/>
					<polygon class="st7" points="24,15 24,16 23,16 22,16 21,16 20,16 20,17 19,17 18,17 17,17 16,17 15,17 14,17 13,17 12,17 
						11,17 11,16 10,16 9,16 8,16 7,16 7,15 8,15 9,15 10,15 11,15 12,15 12,16 13,16 14,16 15,16 16,16 17,16 18,16 18,15 19,15 
						20,15 21,15 21,14 22,14 23,14 23,13 24,13 24,14 					"/>
					<rect x="23" y="12" class="st3" width="1" height="1"/>
					<polygon class="st3" points="24,1 24,2 23,2 22,2 22,1 23,1 					"/>
					<polygon class="st0" points="23,13 23,14 22,14 21,14 21,15 20,15 19,15 18,15 18,16 17,16 16,16 15,16 14,16 13,16 12,16 
						12,15 11,15 10,15 9,15 8,15 7,15 6,15 6,14 7,14 7,13 8,13 8,12 9,12 10,12 11,12 12,12 13,12 14,12 15,12 15,11 16,11 17,11 
						18,11 19,11 20,11 20,12 21,12 22,12 23,12 					"/>
					<polygon class="st3" points="23,11 23,12 22,12 21,12 20,12 20,11 21,11 22,11 					"/>
					<polygon class="st3" points="22,2 22,3 21,3 20,3 20,2 21,2 					"/>
					<polygon class="st3" points="20,17 20,18 19,18 18,18 17,18 16,18 15,18 14,18 13,18 12,18 11,18 11,17 12,17 13,17 14,17 
						15,17 16,17 17,17 18,17 19,17 					"/>
					<polygon class="st3" points="20,10 20,11 19,11 18,11 17,11 16,11 15,11 15,10 16,10 17,10 18,10 19,10 					"/>
					<rect x="19" y="3" class="st3" width="1" height="1"/>
					<polygon class="st3" points="19,22 19,23 18,23 17,23 17,22 18,22 					"/>
					<polygon class="st3" points="19,4 19,5 18,5 17,5 16,5 16,4 17,4 18,4 					"/>
					<polygon class="st3" points="17,21 17,22 16,22 15,22 15,21 16,21 					"/>
					<polygon class="st3" points="16,5 16,6 15,6 14,6 14,5 15,5 					"/>
					<polygon class="st3" points="15,20 15,21 14,21 13,21 12,21 12,20 13,20 14,20 					"/>
					<polygon class="st3" points="15,11 15,12 14,12 13,12 12,12 11,12 10,12 9,12 8,12 8,11 9,11 9,10 9,9 10,9 10,10 10,11 11,11 
						12,11 13,11 14,11 					"/>
					<polygon class="st3" points="14,6 14,7 13,7 12,7 12,6 13,6 					"/>
					<rect x="11" y="19" class="st3" width="1" height="1"/>
					<rect x="11" y="7" class="st3" width="1" height="1"/>
					<polygon class="st3" points="11,18 11,19 10,19 9,19 8,19 7,19 6,19 5,19 4,19 3,19 3,18 4,18 5,18 6,18 7,18 8,18 9,18 10,18 
											"/>
					<polygon class="st5" points="11,17 11,18 10,18 9,18 8,18 7,18 6,18 5,18 4,18 3,18 3,17 4,17 5,17 6,17 7,17 8,17 9,17 10,17 
											"/>
					<polygon class="st3" points="11,16 11,17 10,17 9,17 8,17 7,17 7,16 8,16 9,16 10,16 					"/>
					<rect x="10" y="8" class="st3" width="1" height="1"/>
					<rect x="7" y="12" class="st3" width="1" height="1"/>
					<polygon class="st6" points="7,16 7,17 6,17 5,17 5,16 6,16 					"/>
					<polygon class="st3" points="7,15 7,16 6,16 5,16 4,16 3,16 2,16 1,16 1,15 2,15 3,15 4,15 5,15 5,14 6,14 6,15 					"/>
					<rect x="6" y="13" class="st3" width="1" height="1"/>
					<polygon class="st4" points="5,16 5,17 4,17 3,17 2,17 1,17 1,16 2,16 3,16 4,16 					"/>
					<polygon class="st3" points="3,17 3,18 2,18 1,18 1,17 2,17 					"/>
					<rect y="16" class="st3" width="1" height="1"/>
				</g>
			</g>
		</g>
	</g>
</g>
</svg>
