<svg xmlns="http://www.w3.org/2000/svg" viewBox="0 -0.5 38 24" shape-rendering="crispEdges">
<metadata>Made with Pixels to Svg https://codepen.io/shshaw/pen/XbxvNj</metadata>
<path stroke="#ffffff" d="M0 0h21M22 0h2M32 0h6M0 1h20M21 1h1M29 1h1M31 1h7M0 2h18M19 2h2M32 2h6M0 3h19M20 3h1M33 3h5M0 4h14M15 4h2M18 4h1M33 4h1M35 4h3M0 5h13M34 5h4M0 6h11M34 6h4M0 7h11M36 7h2M0 8h8M9 8h1M14 8h1M35 8h3M0 9h10M34 9h1M36 9h2M0 10h9M36 10h2M0 11h6M0 12h8M0 13h4M5 13h1M35 13h1M37 13h1M0 14h3M34 14h1M37 14h1M2 15h2M34 15h4M6 16h1M28 16h1M34 16h4M0 17h2M11 17h1M32 17h6M0 18h1M3 18h1M5 18h1M7 18h1M13 18h1M18 18h1M33 18h5M0 19h4M6 19h2M32 19h6M0 20h11M12 20h1M30 20h2M33 20h5M0 21h16M17 21h1M29 21h9M0 22h15M16 22h1M18 22h1M25 22h13M0 23h18M19 23h1M24 23h1M27 23h11" />
<path stroke="#003d00" d="M21 0h1" />
<path stroke="#6a3119" d="M24 0h1" />
<path stroke="#6a1226" d="M25 0h1" />
<path stroke="#008300" d="M26 0h1" />
<path stroke="#4da903" d="M27 0h1" />
<path stroke="#766b3b" d="M28 0h1" />
<path stroke="#6b1f00" d="M29 0h1" />
<path stroke="#006500" d="M30 0h1" />
<path stroke="#b73500" d="M31 0h1" />
<path stroke="#a03000" d="M20 1h1" />
<path stroke="#000002" d="M22 1h1" />
<path stroke="#5d520b" d="M23 1h1" />
<path stroke="#ffff5e" d="M24 1h1" />
<path stroke="#ffff4b" d="M25 1h1M20 5h1" />
<path stroke="#ffe28e" d="M26 1h1" />
<path stroke="#ab302b" d="M27 1h1" />
<path stroke="#893900" d="M28 1h1" />
<path stroke="#fff171" d="M30 1h1" />
<path stroke="#713c02" d="M18 2h1" />
<path stroke="#ffff63" d="M21 2h1M10 9h1" />
<path stroke="#ffff85" d="M22 2h1M10 13h1" />
<path stroke="#ffff09" d="M23 2h1" />
<path stroke="#f5c700" d="M24 2h1" />
<path stroke="#fffe80" d="M25 2h1" />
<path stroke="#9cdf00" d="M26 2h1" />
<path stroke="#e2ff0c" d="M27 2h1" />
<path stroke="#cfff00" d="M28 2h1" />
<path stroke="#00201c" d="M29 2h1" />
<path stroke="#5d7c00" d="M30 2h1" />
<path stroke="#730000" d="M31 2h1" />
<path stroke="#ffd096" d="M19 3h1" />
<path stroke="#ff77ff" d="M21 3h1" />
<path stroke="#ffe100" d="M22 3h1" />
<path stroke="#a57e00" d="M23 3h1" />
<path stroke="#ffc62e" d="M24 3h1" />
<path stroke="#d69618" d="M25 3h1" />
<path stroke="#ffd75b" d="M26 3h1" />
<path stroke="#fcc500" d="M27 3h1" />
<path stroke="#ffff00" d="M28 3h1M21 5h1M26 5h1M32 5h1M16 6h1M19 6h1M27 8h1M30 8h1M14 9h1M29 9h1M24 10h2M29 11h1M25 12h1M24 13h1M11 15h1M26 15h1M21 16h1M23 16h1M25 16h1M27 16h1M19 17h1" />
<path stroke="#b19453" d="M29 3h1" />
<path stroke="#fffe24" d="M30 3h1" />
<path stroke="#faff00" d="M31 3h1" />
<path stroke="#ffce00" d="M32 3h1" />
<path stroke="#646149" d="M14 4h1" />
<path stroke="#352200" d="M17 4h1" />
<path stroke="#f7ffa9" d="M19 4h1" />
<path stroke="#e57200" d="M20 4h1" />
<path stroke="#ffac00" d="M21 4h1" />
<path stroke="#fda84d" d="M22 4h1" />
<path stroke="#c9f200" d="M23 4h1" />
<path stroke="#d4fb27" d="M24 4h1" />
<path stroke="#ffd300" d="M25 4h1M13 10h1" />
<path stroke="#ffc121" d="M26 4h1" />
<path stroke="#ffd700" d="M27 4h1" />
<path stroke="#c79412" d="M28 4h1" />
<path stroke="#ff7202" d="M29 4h1" />
<path stroke="#ffe500" d="M30 4h1" />
<path stroke="#ffef02" d="M31 4h1" />
<path stroke="#000b00" d="M32 4h1" />
<path stroke="#307901" d="M34 4h1" />
<path stroke="#492300" d="M13 5h1" />
<path stroke="#435b02" d="M14 5h1" />
<path stroke="#feffab" d="M15 5h1" />
<path stroke="#6b0000" d="M16 5h1" />
<path stroke="#a67b4a" d="M17 5h1" />
<path stroke="#fdffff" d="M18 5h1" />
<path stroke="#cbcb57" d="M19 5h1" />
<path stroke="#c1c66e" d="M22 5h1" />
<path stroke="#b8d500" d="M23 5h1" />
<path stroke="#fddd00" d="M24 5h1" />
<path stroke="#ffe200" d="M25 5h1" />
<path stroke="#beda2d" d="M27 5h1" />
<path stroke="#fcff24" d="M28 5h1" />
<path stroke="#b8f301" d="M29 5h1" />
<path stroke="#d1f000" d="M30 5h1" />
<path stroke="#ffff49" d="M31 5h1" />
<path stroke="#498967" d="M33 5h1" />
<path stroke="#456f00" d="M11 6h1" />
<path stroke="#2ba900" d="M12 6h1" />
<path stroke="#ff75b1" d="M13 6h1" />
<path stroke="#ffffaa" d="M14 6h1" />
<path stroke="#0f0000" d="M15 6h1" />
<path stroke="#e0f779" d="M17 6h1" />
<path stroke="#ffda56" d="M18 6h1" />
<path stroke="#ff7c00" d="M20 6h1" />
<path stroke="#e5fd00" d="M21 6h1" />
<path stroke="#d7ec46" d="M22 6h1" />
<path stroke="#ded212" d="M23 6h1" />
<path stroke="#d7d81f" d="M24 6h1" />
<path stroke="#f7dc15" d="M25 6h1" />
<path stroke="#fff800" d="M26 6h1M32 6h1" />
<path stroke="#ffb500" d="M27 6h1M21 7h1M24 9h1" />
<path stroke="#ff7100" d="M28 6h1" />
<path stroke="#eaf417" d="M29 6h1" />
<path stroke="#ffe82e" d="M30 6h1" />
<path stroke="#ffed11" d="M31 6h1" />
<path stroke="#001700" d="M33 6h1" />
<path stroke="#1a182e" d="M11 7h1" />
<path stroke="#fffa61" d="M12 7h1" />
<path stroke="#97ff24" d="M13 7h1" />
<path stroke="#ffb682" d="M14 7h1" />
<path stroke="#ffff0d" d="M15 7h1" />
<path stroke="#ffbc8b" d="M16 7h1" />
<path stroke="#e6ee0f" d="M17 7h1" />
<path stroke="#a6ed00" d="M18 7h1" />
<path stroke="#ffc92d" d="M19 7h1" />
<path stroke="#ffb940" d="M20 7h1" />
<path stroke="#e6e518" d="M22 7h1" />
<path stroke="#d4eb00" d="M23 7h1" />
<path stroke="#ffeb29" d="M24 7h1" />
<path stroke="#f27d28" d="M25 7h1" />
<path stroke="#ffb200" d="M26 7h1" />
<path stroke="#ffff03" d="M27 7h1M7 15h1" />
<path stroke="#f31500" d="M28 7h1" />
<path stroke="#fffd0c" d="M29 7h1" />
<path stroke="#ff6800" d="M30 7h1" />
<path stroke="#d0ff00" d="M31 7h1" />
<path stroke="#ffeb00" d="M32 7h1" />
<path stroke="#fffc00" d="M33 7h1" />
<path stroke="#ffff34" d="M34 7h1" />
<path stroke="#b11000" d="M35 7h1" />
<path stroke="#24002d" d="M8 8h1" />
<path stroke="#ffff0a" d="M10 8h1" />
<path stroke="#ffff62" d="M11 8h1" />
<path stroke="#122016" d="M12 8h1" />
<path stroke="#ffff5f" d="M13 8h1" />
<path stroke="#d3a19e" d="M15 8h1" />
<path stroke="#ffa5b7" d="M16 8h1" />
<path stroke="#ffdc00" d="M17 8h1" />
<path stroke="#ffb600" d="M18 8h1" />
<path stroke="#fffa00" d="M19 8h1M17 17h1" />
<path stroke="#fff100" d="M20 8h1" />
<path stroke="#d3ad24" d="M21 8h1" />
<path stroke="#ffe338" d="M22 8h1" />
<path stroke="#fce82f" d="M23 8h1" />
<path stroke="#e5ff00" d="M24 8h1" />
<path stroke="#ffff0f" d="M25 8h1" />
<path stroke="#e2ff38" d="M26 8h1" />
<path stroke="#ffff2a" d="M28 8h1" />
<path stroke="#000004" d="M29 8h1" />
<path stroke="#000000" d="M31 8h1M28 9h1M30 9h1M10 12h1M12 12h1M7 14h1M4 17h1M13 17h1M18 23h1" />
<path stroke="#d8ff0f" d="M32 8h1" />
<path stroke="#230000" d="M33 8h1" />
<path stroke="#ffff54" d="M34 8h1M23 11h1" />
<path stroke="#e9fe03" d="M11 9h1" />
<path stroke="#ffff4f" d="M12 9h1" />
<path stroke="#d76841" d="M13 9h1" />
<path stroke="#f9f600" d="M15 9h1" />
<path stroke="#a5e330" d="M16 9h1" />
<path stroke="#fffb00" d="M17 9h1" />
<path stroke="#000800" d="M18 9h1" />
<path stroke="#002000" d="M19 9h1" />
<path stroke="#ffd302" d="M20 9h1" />
<path stroke="#ff9f6e" d="M21 9h1" />
<path stroke="#ffff7d" d="M22 9h1" />
<path stroke="#ff7b00" d="M23 9h1" />
<path stroke="#ffa900" d="M25 9h1" />
<path stroke="#000043" d="M26 9h1" />
<path stroke="#000011" d="M27 9h1" />
<path stroke="#ffb100" d="M31 9h1M29 13h1" />
<path stroke="#ff7041" d="M32 9h1" />
<path stroke="#ffff22" d="M33 9h1" />
<path stroke="#543800" d="M35 9h1" />
<path stroke="#fcbc59" d="M9 10h1" />
<path stroke="#070048" d="M10 10h1" />
<path stroke="#ffbc00" d="M11 10h1" />
<path stroke="#338104" d="M12 10h1" />
<path stroke="#320500" d="M14 10h1" />
<path stroke="#ffff68" d="M15 10h1M21 21h1" />
<path stroke="#505900" d="M16 10h1" />
<path stroke="#e4b08a" d="M17 10h1" />
<path stroke="#fffd00" d="M18 10h1" />
<path stroke="#ffd100" d="M19 10h1" />
<path stroke="#fbff00" d="M20 10h1" />
<path stroke="#001200" d="M21 10h1" />
<path stroke="#640002" d="M22 10h1" />
<path stroke="#fff400" d="M23 10h1" />
<path stroke="#00001b" d="M26 10h1" />
<path stroke="#000054" d="M27 10h1" />
<path stroke="#000500" d="M28 10h1" />
<path stroke="#ffc931" d="M29 10h1" />
<path stroke="#fdeb00" d="M30 10h1" />
<path stroke="#f9ff00" d="M31 10h1" />
<path stroke="#321100" d="M32 10h1" />
<path stroke="#f93220" d="M33 10h1" />
<path stroke="#0e160d" d="M34 10h1" />
<path stroke="#ffa307" d="M35 10h1" />
<path stroke="#603700" d="M6 11h1" />
<path stroke="#fffdbe" d="M7 11h1" />
<path stroke="#210000" d="M8 11h1" />
<path stroke="#fffcd4" d="M9 11h1" />
<path stroke="#020600" d="M10 11h1" />
<path stroke="#4d660c" d="M11 11h1" />
<path stroke="#4e8f00" d="M12 11h1" />
<path stroke="#fff403" d="M13 11h1" />
<path stroke="#ffcc4d" d="M14 11h1" />
<path stroke="#ffff6f" d="M15 11h1" />
<path stroke="#ffff56" d="M16 11h1" />
<path stroke="#e4c0ff" d="M17 11h1" />
<path stroke="#529600" d="M18 11h1" />
<path stroke="#085100" d="M19 11h1" />
<path stroke="#f3a900" d="M20 11h1" />
<path stroke="#961a00" d="M21 11h1" />
<path stroke="#001600" d="M22 11h1" />
<path stroke="#ff7f06" d="M24 11h1" />
<path stroke="#fff751" d="M25 11h1" />
<path stroke="#bcff1a" d="M26 11h1" />
<path stroke="#ffdf13" d="M27 11h1" />
<path stroke="#ff7d00" d="M28 11h1" />
<path stroke="#5c0000" d="M30 11h1" />
<path stroke="#0b2925" d="M31 11h1" />
<path stroke="#ff4719" d="M32 11h1" />
<path stroke="#f7b818" d="M33 11h1" />
<path stroke="#f27900" d="M34 11h1" />
<path stroke="#3a4900" d="M35 11h1" />
<path stroke="#180200" d="M36 11h1" />
<path stroke="#272601" d="M37 11h1" />
<path stroke="#ffff73" d="M8 12h1" />
<path stroke="#ffff89" d="M9 12h1M19 12h1" />
<path stroke="#ffff9b" d="M11 12h1" />
<path stroke="#2b4700" d="M13 12h1" />
<path stroke="#a7fb33" d="M14 12h1" />
<path stroke="#fcfe6a" d="M15 12h1" />
<path stroke="#bcc790" d="M16 12h1" />
<path stroke="#9a5b77" d="M17 12h1" />
<path stroke="#ffffe2" d="M18 12h1M26 20h1" />
<path stroke="#ecb77b" d="M20 12h1" />
<path stroke="#ffff88" d="M21 12h1M3 17h1" />
<path stroke="#c6ff00" d="M22 12h1" />
<path stroke="#ffd341" d="M23 12h1" />
<path stroke="#ff9000" d="M24 12h1" />
<path stroke="#fa4400" d="M26 12h1" />
<path stroke="#ffda00" d="M27 12h1" />
<path stroke="#d09600" d="M28 12h1" />
<path stroke="#850000" d="M29 12h1" />
<path stroke="#22002a" d="M30 12h1" />
<path stroke="#ffff47" d="M31 12h1" />
<path stroke="#fff700" d="M32 12h1" />
<path stroke="#ffff23" d="M33 12h1" />
<path stroke="#070009" d="M34 12h1" />
<path stroke="#fe7500" d="M35 12h1" />
<path stroke="#002347" d="M36 12h1" />
<path stroke="#ff7e15" d="M37 12h1" />
<path stroke="#1a033f" d="M4 13h1" />
<path stroke="#37034d" d="M6 13h1" />
<path stroke="#ffffd9" d="M7 13h1" />
<path stroke="#a9726e" d="M8 13h1" />
<path stroke="#edff6f" d="M9 13h1" />
<path stroke="#76ff1a" d="M11 13h1" />
<path stroke="#ffe73f" d="M12 13h1" />
<path stroke="#ff8f8d" d="M13 13h1" />
<path stroke="#ffff99" d="M14 13h1" />
<path stroke="#a9ff7a" d="M15 13h1" />
<path stroke="#fcff7f" d="M16 13h1" />
<path stroke="#c6ff9c" d="M17 13h1" />
<path stroke="#dbf2aa" d="M18 13h1" />
<path stroke="#ffa100" d="M19 13h1M19 16h1" />
<path stroke="#bce786" d="M20 13h1" />
<path stroke="#fefe4b" d="M21 13h1" />
<path stroke="#ffebf6" d="M22 13h1" />
<path stroke="#520000" d="M23 13h1" />
<path stroke="#000223" d="M25 13h1" />
<path stroke="#ffff1d" d="M26 13h1" />
<path stroke="#bdc522" d="M27 13h1" />
<path stroke="#ffc202" d="M28 13h1" />
<path stroke="#f8ff00" d="M30 13h1" />
<path stroke="#820000" d="M31 13h1" />
<path stroke="#2d3106" d="M32 13h1" />
<path stroke="#850a00" d="M33 13h1" />
<path stroke="#ffcf32" d="M34 13h1" />
<path stroke="#ff6f1d" d="M36 13h1" />
<path stroke="#882203" d="M3 14h1" />
<path stroke="#75300e" d="M4 14h1" />
<path stroke="#f3ff49" d="M5 14h1" />
<path stroke="#94a900" d="M6 14h1" />
<path stroke="#e9fa00" d="M8 14h1" />
<path stroke="#67a500" d="M9 14h1" />
<path stroke="#feff33" d="M10 14h1" />
<path stroke="#f6f349" d="M11 14h1" />
<path stroke="#e5fc3a" d="M12 14h1" />
<path stroke="#ff8721" d="M13 14h1" />
<path stroke="#ffc77e" d="M14 14h1" />
<path stroke="#eaff22" d="M15 14h1" />
<path stroke="#d4c225" d="M16 14h1" />
<path stroke="#ffa300" d="M17 14h1" />
<path stroke="#e8ffb4" d="M18 14h1" />
<path stroke="#f0de00" d="M19 14h1" />
<path stroke="#fffcba" d="M20 14h1" />
<path stroke="#e4b21e" d="M21 14h1" />
<path stroke="#ff7a00" d="M22 14h1" />
<path stroke="#001300" d="M23 14h1" />
<path stroke="#f2d915" d="M24 14h1" />
<path stroke="#003000" d="M25 14h1" />
<path stroke="#ffa700" d="M26 14h1" />
<path stroke="#fff000" d="M27 14h1" />
<path stroke="#fa864b" d="M28 14h1" />
<path stroke="#f2b900" d="M29 14h1" />
<path stroke="#d6ffff" d="M30 14h1" />
<path stroke="#eaff00" d="M31 14h1" />
<path stroke="#ffea00" d="M32 14h1" />
<path stroke="#41ca00" d="M33 14h1" />
<path stroke="#003300" d="M35 14h1" />
<path stroke="#7c1a00" d="M36 14h1" />
<path stroke="#a2ed00" d="M0 15h1" />
<path stroke="#8c0200" d="M1 15h1" />
<path stroke="#f6ff4f" d="M4 15h1" />
<path stroke="#ffffa8" d="M5 15h1" />
<path stroke="#530007" d="M6 15h1" />
<path stroke="#ccd200" d="M8 15h1" />
<path stroke="#a4501e" d="M9 15h1" />
<path stroke="#afba68" d="M10 15h1" />
<path stroke="#98ec00" d="M12 15h1" />
<path stroke="#34ff15" d="M13 15h1" />
<path stroke="#ff6d00" d="M14 15h1" />
<path stroke="#51ec00" d="M15 15h1" />
<path stroke="#ffef37" d="M16 15h1" />
<path stroke="#f9dc24" d="M17 15h1" />
<path stroke="#ffaa45" d="M18 15h1" />
<path stroke="#fffaa0" d="M19 15h1" />
<path stroke="#ff7400" d="M20 15h1" />
<path stroke="#d2519e" d="M21 15h1" />
<path stroke="#f2ff00" d="M22 15h1" />
<path stroke="#ffff0e" d="M23 15h1" />
<path stroke="#060205" d="M24 15h1" />
<path stroke="#ffff35" d="M25 15h1" />
<path stroke="#cd5d00" d="M27 15h1" />
<path stroke="#f5ffdd" d="M28 15h1" />
<path stroke="#eba7ff" d="M29 15h1" />
<path stroke="#ffffe4" d="M30 15h1M14 17h1" />
<path stroke="#100002" d="M31 15h1" />
<path stroke="#d5fff3" d="M32 15h1" />
<path stroke="#c70000" d="M33 15h1" />
<path stroke="#680400" d="M0 16h1" />
<path stroke="#6dd700" d="M1 16h1" />
<path stroke="#331c00" d="M2 16h1" />
<path stroke="#b8cb00" d="M3 16h1" />
<path stroke="#125300" d="M4 16h1" />
<path stroke="#007700" d="M5 16h1" />
<path stroke="#a00019" d="M7 16h1" />
<path stroke="#fefff1" d="M8 16h1" />
<path stroke="#c7a900" d="M9 16h1" />
<path stroke="#fff38f" d="M10 16h1" />
<path stroke="#fbcfff" d="M11 16h1" />
<path stroke="#1b0000" d="M12 16h1" />
<path stroke="#b40000" d="M13 16h1" />
<path stroke="#250000" d="M14 16h1" />
<path stroke="#ffc18e" d="M15 16h1" />
<path stroke="#e1c15f" d="M16 16h1" />
<path stroke="#ffbf00" d="M17 16h1" />
<path stroke="#f9ffdf" d="M18 16h1" />
<path stroke="#59ff4a" d="M20 16h1" />
<path stroke="#f9b600" d="M22 16h1" />
<path stroke="#a75600" d="M24 16h1" />
<path stroke="#ecf52a" d="M26 16h1" />
<path stroke="#fffc2a" d="M29 16h1" />
<path stroke="#ffd697" d="M30 16h1" />
<path stroke="#115200" d="M31 16h1" />
<path stroke="#720000" d="M32 16h1" />
<path stroke="#ba5d14" d="M33 16h1" />
<path stroke="#d8ffa0" d="M2 17h1" />
<path stroke="#f6cc70" d="M5 17h1" />
<path stroke="#770000" d="M6 17h1" />
<path stroke="#210a00" d="M7 17h1" />
<path stroke="#001000" d="M8 17h1" />
<path stroke="#ffebff" d="M9 17h1" />
<path stroke="#2e1700" d="M10 17h1" />
<path stroke="#ff94ff" d="M12 17h1" />
<path stroke="#373900" d="M15 17h1" />
<path stroke="#8ee1dc" d="M16 17h1" />
<path stroke="#449300" d="M18 17h1" />
<path stroke="#531200" d="M20 17h1" />
<path stroke="#34004b" d="M21 17h1" />
<path stroke="#f8ff84" d="M22 17h1" />
<path stroke="#b9ec00" d="M23 17h1" />
<path stroke="#f29600" d="M24 17h1" />
<path stroke="#e4d200" d="M25 17h1" />
<path stroke="#96ffcc" d="M26 17h1" />
<path stroke="#ffc7ee" d="M27 17h1" />
<path stroke="#e2b600" d="M28 17h1" />
<path stroke="#b9bff1" d="M29 17h1" />
<path stroke="#ffec93" d="M30 17h1" />
<path stroke="#ffcbff" d="M31 17h1" />
<path stroke="#77322e" d="M1 18h1" />
<path stroke="#4e9400" d="M2 18h1" />
<path stroke="#ffffb2" d="M4 18h1" />
<path stroke="#efffff" d="M6 18h1" />
<path stroke="#f3d5ff" d="M8 18h1" />
<path stroke="#ffbe5d" d="M9 18h1" />
<path stroke="#ffefff" d="M10 18h1" />
<path stroke="#010000" d="M11 18h1" />
<path stroke="#fdffd3" d="M12 18h1" />
<path stroke="#f6ffff" d="M14 18h1" />
<path stroke="#ff0500" d="M15 18h1" />
<path stroke="#2ea200" d="M16 18h1" />
<path stroke="#8ec3ff" d="M17 18h1" />
<path stroke="#025320" d="M19 18h1" />
<path stroke="#ce7000" d="M20 18h1" />
<path stroke="#f3ffb6" d="M21 18h1" />
<path stroke="#ff4f00" d="M22 18h1" />
<path stroke="#fffea7" d="M23 18h1" />
<path stroke="#ecff00" d="M24 18h1" />
<path stroke="#f4e3ff" d="M25 18h1" />
<path stroke="#d7ffff" d="M26 18h1" />
<path stroke="#f3dd5c" d="M27 18h1" />
<path stroke="#e2d8ff" d="M28 18h1" />
<path stroke="#fccaff" d="M29 18h1" />
<path stroke="#ffe582" d="M30 18h1" />
<path stroke="#f2ffff" d="M31 18h1M15 19h1" />
<path stroke="#672000" d="M32 18h1" />
<path stroke="#476f28" d="M4 19h1" />
<path stroke="#802900" d="M5 19h1" />
<path stroke="#a08b00" d="M8 19h1" />
<path stroke="#0dc100" d="M9 19h1" />
<path stroke="#940000" d="M10 19h1" />
<path stroke="#e5ffea" d="M11 19h1" />
<path stroke="#ffc1e0" d="M12 19h1" />
<path stroke="#ffe3bc" d="M13 19h1" />
<path stroke="#500000" d="M14 19h1" />
<path stroke="#fff7ff" d="M16 19h1" />
<path stroke="#ff8960" d="M17 19h1" />
<path stroke="#acf2ff" d="M18 19h1" />
<path stroke="#ffbdff" d="M19 19h1" />
<path stroke="#ffff84" d="M20 19h1" />
<path stroke="#e6bdff" d="M21 19h1" />
<path stroke="#dbbcb3" d="M22 19h1" />
<path stroke="#fde2ff" d="M23 19h1" />
<path stroke="#f5f4e2" d="M24 19h1" />
<path stroke="#d9ece7" d="M25 19h1" />
<path stroke="#bbf964" d="M26 19h1" />
<path stroke="#c1fdd3" d="M27 19h1" />
<path stroke="#acc7bc" d="M28 19h1" />
<path stroke="#caffff" d="M29 19h1" />
<path stroke="#320800" d="M30 19h1" />
<path stroke="#008900" d="M31 19h1" />
<path stroke="#0d0000" d="M11 20h1" />
<path stroke="#a9ffdf" d="M13 20h1" />
<path stroke="#b76a00" d="M14 20h1" />
<path stroke="#ffacff" d="M15 20h1" />
<path stroke="#f9ffff" d="M16 20h1" />
<path stroke="#6a2400" d="M17 20h1" />
<path stroke="#fcff50" d="M18 20h1" />
<path stroke="#feb6f5" d="M19 20h1" />
<path stroke="#fffbab" d="M20 20h1" />
<path stroke="#f3bfc3" d="M21 20h1" />
<path stroke="#ff86e2" d="M22 20h1" />
<path stroke="#ceff50" d="M23 20h1" />
<path stroke="#e6fff5" d="M24 20h1" />
<path stroke="#d5b6fe" d="M25 20h1" />
<path stroke="#ffffad" d="M27 20h1" />
<path stroke="#ff86ff" d="M28 20h1" />
<path stroke="#696d16" d="M29 20h1" />
<path stroke="#ff5022" d="M32 20h1" />
<path stroke="#ffc6fc" d="M16 21h1" />
<path stroke="#f0e13e" d="M18 21h1" />
<path stroke="#6fbcee" d="M19 21h1" />
<path stroke="#ffc1ff" d="M20 21h1" />
<path stroke="#d8f6f9" d="M22 21h1" />
<path stroke="#ffc65a" d="M23 21h1" />
<path stroke="#cfffff" d="M24 21h1" />
<path stroke="#fffffa" d="M25 21h1" />
<path stroke="#e6fb93" d="M26 21h1" />
<path stroke="#f763e6" d="M27 21h1" />
<path stroke="#fff3ed" d="M28 21h1" />
<path stroke="#3f8300" d="M15 22h1" />
<path stroke="#a1fbc4" d="M17 22h1" />
<path stroke="#ffffa3" d="M19 22h1" />
<path stroke="#572a00" d="M20 22h1" />
<path stroke="#fff6ff" d="M21 22h1" />
<path stroke="#ffffca" d="M22 22h1" />
<path stroke="#caedec" d="M23 22h1" />
<path stroke="#45292c" d="M24 22h1" />
<path stroke="#ffd6ef" d="M20 23h1" />
<path stroke="#325b00" d="M21 23h1" />
<path stroke="#482900" d="M22 23h1" />
<path stroke="#fffece" d="M23 23h1" />
<path stroke="#230e07" d="M25 23h1" />
<path stroke="#dcffd4" d="M26 23h1" />
</svg>