<svg xmlns="http://www.w3.org/2000/svg" viewBox="0 -0.5 38 24" shape-rendering="crispEdges">
<metadata>Made with Pixels to Svg https://codepen.io/shshaw/pen/XbxvNj</metadata>
<path stroke="#ae7200" d="M23 0h1" />
<path stroke="#6b0000" d="M24 0h1" />
<path stroke="#253000" d="M25 0h1" />
<path stroke="#ffffc8" d="M26 0h1" />
<path stroke="#fffe16" d="M27 0h1" />
<path stroke="#180700" d="M28 0h1" />
<path stroke="#cdbb89" d="M23 1h1" />
<path stroke="#c4ff50" d="M24 1h1" />
<path stroke="#ffff00" d="M25 1h1M26 3h1M29 4h1M20 5h1M16 6h1M20 6h1M27 6h1M33 6h1M31 8h1M25 9h1M27 10h1M7 11h1M28 12h1M31 12h1M11 14h1M22 14h1M12 15h1M8 16h1M31 16h1M6 17h1M15 17h1M19 17h1M23 19h1" />
<path stroke="#3d7404" d="M26 1h1" />
<path stroke="#ffc600" d="M27 1h1" />
<path stroke="#ffd065" d="M28 1h1" />
<path stroke="#f5fe4c" d="M30 1h1" />
<path stroke="#fffeb4" d="M21 2h1" />
<path stroke="#fffc72" d="M23 2h1" />
<path stroke="#ffdf81" d="M24 2h1" />
<path stroke="#ffbd5c" d="M25 2h1" />
<path stroke="#ffff63" d="M26 2h1M18 7h1" />
<path stroke="#c0c3b5" d="M27 2h1" />
<path stroke="#f6e1ba" d="M28 2h1" />
<path stroke="#e4ff7c" d="M29 2h1" />
<path stroke="#0c005d" d="M30 2h1" />
<path stroke="#7a4900" d="M32 2h1" />
<path stroke="#ffffae" d="M20 3h1" />
<path stroke="#ffff5a" d="M21 3h1M19 12h1" />
<path stroke="#f1c02b" d="M22 3h1" />
<path stroke="#ffd094" d="M23 3h1" />
<path stroke="#f4fa00" d="M24 3h1" />
<path stroke="#e3e000" d="M25 3h1" />
<path stroke="#fbdc00" d="M27 3h1" />
<path stroke="#c6b327" d="M28 3h1" />
<path stroke="#ffe147" d="M29 3h1" />
<path stroke="#1a1201" d="M30 3h1" />
<path stroke="#000001" d="M32 3h1" />
<path stroke="#ae1a14" d="M14 4h1" />
<path stroke="#ffff69" d="M16 4h1M13 10h1" />
<path stroke="#00203b" d="M17 4h1" />
<path stroke="#ffff89" d="M18 4h1" />
<path stroke="#ffc556" d="M19 4h1" />
<path stroke="#b3ff00" d="M20 4h1" />
<path stroke="#d6e2dc" d="M21 4h1" />
<path stroke="#d9d7c5" d="M22 4h1" />
<path stroke="#ffa800" d="M23 4h1" />
<path stroke="#f3f229" d="M24 4h1" />
<path stroke="#fff404" d="M25 4h1" />
<path stroke="#e8e120" d="M26 4h1" />
<path stroke="#ffe400" d="M27 4h1" />
<path stroke="#ffbc00" d="M28 4h1" />
<path stroke="#fff840" d="M30 4h1" />
<path stroke="#ffe006" d="M31 4h1" />
<path stroke="#d27672" d="M32 4h1" />
<path stroke="#ffec00" d="M33 4h1" />
<path stroke="#4c0c00" d="M34 4h1" />
<path stroke="#5b4d0a" d="M11 5h1" />
<path stroke="#ffff9b" d="M12 5h1" />
<path stroke="#00a806" d="M13 5h1" />
<path stroke="#008f00" d="M15 5h1" />
<path stroke="#0b0000" d="M16 5h1" />
<path stroke="#4f6200" d="M17 5h1" />
<path stroke="#fff600" d="M18 5h1M10 14h1" />
<path stroke="#4a0500" d="M19 5h1" />
<path stroke="#ffb700" d="M21 5h1M30 7h1" />
<path stroke="#ffee00" d="M22 5h1" />
<path stroke="#f9f610" d="M23 5h1" />
<path stroke="#ffcd34" d="M24 5h1" />
<path stroke="#ffff43" d="M25 5h1" />
<path stroke="#c7da00" d="M26 5h1" />
<path stroke="#ffe841" d="M27 5h1" />
<path stroke="#ffd91f" d="M28 5h1" />
<path stroke="#fffe00" d="M29 5h1M28 13h1" />
<path stroke="#fa8500" d="M30 5h1" />
<path stroke="#fdff00" d="M31 5h1" />
<path stroke="#e3e400" d="M32 5h1" />
<path stroke="#b1ff00" d="M33 5h1" />
<path stroke="#ffcfda" d="M9 6h1" />
<path stroke="#2c3100" d="M11 6h1" />
<path stroke="#008400" d="M12 6h1" />
<path stroke="#ffa764" d="M13 6h1" />
<path stroke="#ffc90b" d="M14 6h1" />
<path stroke="#f0ffff" d="M15 6h1" />
<path stroke="#ffff84" d="M17 6h1" />
<path stroke="#120000" d="M18 6h1" />
<path stroke="#ffff04" d="M19 6h1" />
<path stroke="#ffb100" d="M21 6h1" />
<path stroke="#e2d500" d="M22 6h1" />
<path stroke="#ffff26" d="M23 6h1" />
<path stroke="#f4ff00" d="M24 6h1" />
<path stroke="#ffd300" d="M25 6h1" />
<path stroke="#a5ff26" d="M26 6h1" />
<path stroke="#d2a600" d="M28 6h1" />
<path stroke="#eaa100" d="M29 6h1" />
<path stroke="#ebad3a" d="M30 6h1" />
<path stroke="#fff711" d="M31 6h1" />
<path stroke="#ff7500" d="M32 6h1" />
<path stroke="#300802" d="M34 6h1" />
<path stroke="#6f4f08" d="M8 7h1" />
<path stroke="#ff82da" d="M9 7h1" />
<path stroke="#fdfdff" d="M10 7h1" />
<path stroke="#ffff3f" d="M11 7h1" />
<path stroke="#ffeb6d" d="M12 7h1" />
<path stroke="#d2d27d" d="M13 7h1" />
<path stroke="#ffffbd" d="M14 7h1" />
<path stroke="#ffb430" d="M15 7h1" />
<path stroke="#d8ff58" d="M16 7h1" />
<path stroke="#baff82" d="M17 7h1" />
<path stroke="#ffb750" d="M19 7h1" />
<path stroke="#bce421" d="M20 7h1" />
<path stroke="#fbf91e" d="M21 7h1" />
<path stroke="#e2f300" d="M22 7h1" />
<path stroke="#ff901c" d="M23 7h1" />
<path stroke="#d2b200" d="M24 7h1" />
<path stroke="#e1e800" d="M25 7h1" />
<path stroke="#ffff42" d="M26 7h1" />
<path stroke="#000000" d="M27 7h1M28 10h1M7 17h1" />
<path stroke="#ffff12" d="M28 7h1" />
<path stroke="#ffe91c" d="M29 7h1" />
<path stroke="#d2ff3d" d="M31 7h1" />
<path stroke="#ffff07" d="M32 7h1" />
<path stroke="#00001e" d="M33 7h1" />
<path stroke="#d7c402" d="M34 7h1" />
<path stroke="#540000" d="M7 8h1" />
<path stroke="#ffff86" d="M8 8h1" />
<path stroke="#d8d8e1" d="M9 8h1" />
<path stroke="#b2ff5d" d="M10 8h1" />
<path stroke="#c9fb67" d="M11 8h1" />
<path stroke="#dab385" d="M12 8h1" />
<path stroke="#fce54a" d="M13 8h1" />
<path stroke="#ebff54" d="M14 8h1" />
<path stroke="#ffff9a" d="M15 8h1" />
<path stroke="#ffd356" d="M16 8h1" />
<path stroke="#ffbfb7" d="M17 8h1" />
<path stroke="#0c7100" d="M18 8h1" />
<path stroke="#004c02" d="M19 8h1" />
<path stroke="#ffa100" d="M20 8h1" />
<path stroke="#f6f300" d="M21 8h1" />
<path stroke="#ebff00" d="M22 8h1M20 18h1" />
<path stroke="#ffff13" d="M23 8h1M29 9h1" />
<path stroke="#ff882b" d="M24 8h1" />
<path stroke="#000802" d="M25 8h1" />
<path stroke="#000047" d="M26 8h1" />
<path stroke="#000400" d="M27 8h1" />
<path stroke="#ffd400" d="M28 8h1" />
<path stroke="#eddf00" d="M29 8h1" />
<path stroke="#ffb63e" d="M30 8h1" />
<path stroke="#ffee40" d="M32 8h1" />
<path stroke="#afff02" d="M33 8h1" />
<path stroke="#ff7c1b" d="M34 8h1" />
<path stroke="#ffcf1d" d="M5 9h1" />
<path stroke="#08004d" d="M6 9h1" />
<path stroke="#f1fff0" d="M7 9h1" />
<path stroke="#ffdc02" d="M8 9h1" />
<path stroke="#d5fd3f" d="M9 9h1" />
<path stroke="#ff9731" d="M10 9h1" />
<path stroke="#ffda59" d="M11 9h1" />
<path stroke="#f6c0be" d="M12 9h1" />
<path stroke="#ffc163" d="M13 9h1" />
<path stroke="#ffe97f" d="M14 9h1" />
<path stroke="#f4d442" d="M15 9h1" />
<path stroke="#fde621" d="M16 9h1" />
<path stroke="#fff64c" d="M17 9h1" />
<path stroke="#ffff83" d="M18 9h1" />
<path stroke="#6a5200" d="M19 9h1" />
<path stroke="#faff72" d="M20 9h1" />
<path stroke="#ffffff" d="M21 9h1M13 11h1M32 13h1M29 15h1M11 17h1M29 19h1M12 20h1M15 21h1M17 21h1M24 22h1" />
<path stroke="#ff9e00" d="M22 9h1" />
<path stroke="#edde00" d="M23 9h1" />
<path stroke="#ff6100" d="M24 9h1" />
<path stroke="#ffdd1f" d="M26 9h1" />
<path stroke="#000031" d="M27 9h1" />
<path stroke="#000203" d="M28 9h1" />
<path stroke="#95f500" d="M30 9h1" />
<path stroke="#d5ed00" d="M31 9h1" />
<path stroke="#ff8500" d="M32 9h1" />
<path stroke="#ffae00" d="M33 9h1" />
<path stroke="#628500" d="M34 9h1" />
<path stroke="#676600" d="M35 9h1" />
<path stroke="#15582e" d="M5 10h1" />
<path stroke="#ddff00" d="M6 10h1" />
<path stroke="#ffddff" d="M7 10h1M23 23h1" />
<path stroke="#cfff44" d="M8 10h1" />
<path stroke="#ffc800" d="M9 10h1" />
<path stroke="#ffa08c" d="M10 10h1" />
<path stroke="#ffdd67" d="M11 10h1" />
<path stroke="#d2e457" d="M12 10h1" />
<path stroke="#ffdeb4" d="M14 10h1" />
<path stroke="#a0ff02" d="M15 10h1" />
<path stroke="#a4ff42" d="M16 10h1" />
<path stroke="#ffd108" d="M17 10h1" />
<path stroke="#baf6bf" d="M18 10h1" />
<path stroke="#f8c404" d="M19 10h1" />
<path stroke="#ffff6e" d="M20 10h1" />
<path stroke="#5c3500" d="M21 10h1" />
<path stroke="#f19e00" d="M22 10h1" />
<path stroke="#f3ce00" d="M23 10h1" />
<path stroke="#ffa000" d="M24 10h1" />
<path stroke="#ffca28" d="M25 10h1" />
<path stroke="#000030" d="M26 10h1" />
<path stroke="#ffbe00" d="M29 10h1" />
<path stroke="#fbff15" d="M30 10h1" />
<path stroke="#c20000" d="M31 10h1" />
<path stroke="#f8f900" d="M32 10h1" />
<path stroke="#3a1b00" d="M33 10h1" />
<path stroke="#ffcc00" d="M34 10h1" />
<path stroke="#241300" d="M35 10h1" />
<path stroke="#ff6c2c" d="M36 10h1" />
<path stroke="#010334" d="M37 10h1" />
<path stroke="#8d5000" d="M8 11h1" />
<path stroke="#febb84" d="M9 11h1" />
<path stroke="#ffb7ff" d="M10 11h1" />
<path stroke="#feff42" d="M11 11h1" />
<path stroke="#f0e449" d="M12 11h1" />
<path stroke="#fcff41" d="M14 11h1" />
<path stroke="#ffb6b0" d="M15 11h1" />
<path stroke="#b8b91b" d="M16 11h1" />
<path stroke="#ffde61" d="M17 11h1" />
<path stroke="#ffce6d" d="M18 11h1" />
<path stroke="#a5e454" d="M19 11h1" />
<path stroke="#d9acaf" d="M20 11h1" />
<path stroke="#ffff35" d="M21 11h1" />
<path stroke="#ffffbb" d="M22 11h1" />
<path stroke="#fff7bf" d="M23 11h1" />
<path stroke="#ffdb1c" d="M24 11h1" />
<path stroke="#e6a308" d="M25 11h1" />
<path stroke="#ffff0f" d="M26 11h1" />
<path stroke="#c16e00" d="M27 11h1" />
<path stroke="#fff407" d="M28 11h1" />
<path stroke="#ffdf00" d="M29 11h1" />
<path stroke="#e4d348" d="M30 11h1" />
<path stroke="#e44d4d" d="M31 11h1" />
<path stroke="#ff9000" d="M32 11h1" />
<path stroke="#ff6e00" d="M33 11h1" />
<path stroke="#ffcc1a" d="M34 11h1" />
<path stroke="#0f0000" d="M35 11h1" />
<path stroke="#ffff10" d="M36 11h1" />
<path stroke="#ff9704" d="M37 11h1" />
<path stroke="#fcff00" d="M8 12h1" />
<path stroke="#daff00" d="M9 12h1" />
<path stroke="#006500" d="M10 12h1" />
<path stroke="#ffe700" d="M11 12h1" />
<path stroke="#b2ff00" d="M12 12h1" />
<path stroke="#a08914" d="M13 12h1" />
<path stroke="#cfe74b" d="M14 12h1" />
<path stroke="#fffebc" d="M15 12h1" />
<path stroke="#fffcbb" d="M16 12h1" />
<path stroke="#efff7c" d="M17 12h1" />
<path stroke="#ffc199" d="M18 12h1" />
<path stroke="#b3d700" d="M20 12h1" />
<path stroke="#eab31b" d="M21 12h1" />
<path stroke="#bb8600" d="M22 12h1" />
<path stroke="#fdb300" d="M23 12h1" />
<path stroke="#fdd268" d="M24 12h1" />
<path stroke="#fffd00" d="M25 12h1" />
<path stroke="#efe802" d="M26 12h1" />
<path stroke="#ffff2f" d="M27 12h1" />
<path stroke="#00001f" d="M29 12h1" />
<path stroke="#ff2100" d="M30 12h1" />
<path stroke="#ff6410" d="M32 12h1" />
<path stroke="#1f0b1c" d="M33 12h1" />
<path stroke="#ff6c00" d="M34 12h1" />
<path stroke="#ff7b43" d="M35 12h1" />
<path stroke="#d8a800" d="M37 12h1" />
<path stroke="#760013" d="M7 13h1" />
<path stroke="#fffe0e" d="M8 13h1" />
<path stroke="#ff4300" d="M9 13h1" />
<path stroke="#188100" d="M10 13h1" />
<path stroke="#000017" d="M11 13h1" />
<path stroke="#fdff42" d="M12 13h1" />
<path stroke="#b94f00" d="M13 13h1" />
<path stroke="#d9bb3a" d="M14 13h1" />
<path stroke="#ffff91" d="M15 13h1" />
<path stroke="#ff9a00" d="M16 13h1M23 14h1" />
<path stroke="#df6e50" d="M17 13h1" />
<path stroke="#c3b900" d="M18 13h1" />
<path stroke="#ffffe6" d="M19 13h1" />
<path stroke="#f5ff41" d="M20 13h1" />
<path stroke="#ffff55" d="M21 13h1" />
<path stroke="#ef8f00" d="M22 13h1" />
<path stroke="#ffad20" d="M23 13h1" />
<path stroke="#4f8135" d="M24 13h1" />
<path stroke="#ff8a3e" d="M25 13h1" />
<path stroke="#ffe000" d="M26 13h1" />
<path stroke="#e0ca00" d="M27 13h1" />
<path stroke="#fff123" d="M29 13h1" />
<path stroke="#000038" d="M30 13h1" />
<path stroke="#ffac00" d="M31 13h1" />
<path stroke="#ff6300" d="M33 13h1" />
<path stroke="#ff1701" d="M34 13h1" />
<path stroke="#432413" d="M36 13h1" />
<path stroke="#ff3a05" d="M37 13h1" />
<path stroke="#083907" d="M2 14h1" />
<path stroke="#44a43c" d="M6 14h1" />
<path stroke="#234f16" d="M8 14h1" />
<path stroke="#645700" d="M9 14h1" />
<path stroke="#c78700" d="M12 14h1" />
<path stroke="#e5bf00" d="M13 14h1" />
<path stroke="#ff7d00" d="M14 14h1" />
<path stroke="#064600" d="M15 14h1" />
<path stroke="#a00000" d="M16 14h1" />
<path stroke="#ffff5c" d="M17 14h1" />
<path stroke="#c2ff00" d="M18 14h1" />
<path stroke="#e5fb14" d="M19 14h1" />
<path stroke="#9d3800" d="M20 14h1" />
<path stroke="#731d00" d="M21 14h1" />
<path stroke="#fdbb00" d="M24 14h1" />
<path stroke="#fff300" d="M25 14h1" />
<path stroke="#ffd801" d="M26 14h1" />
<path stroke="#ecae00" d="M27 14h1" />
<path stroke="#fff400" d="M28 14h1M26 15h1" />
<path stroke="#ffe900" d="M29 14h1" />
<path stroke="#ffbd00" d="M30 14h1" />
<path stroke="#f4c800" d="M31 14h1" />
<path stroke="#ff80ff" d="M32 14h1" />
<path stroke="#001057" d="M34 14h1" />
<path stroke="#284900" d="M1 15h1" />
<path stroke="#f1f107" d="M3 15h1" />
<path stroke="#ffff11" d="M4 15h1" />
<path stroke="#473c00" d="M5 15h1" />
<path stroke="#31224d" d="M6 15h1" />
<path stroke="#ecff00" d="M7 15h1" />
<path stroke="#47b500" d="M8 15h1" />
<path stroke="#ffe226" d="M9 15h1" />
<path stroke="#4b0000" d="M10 15h1" />
<path stroke="#f7dd70" d="M11 15h1" />
<path stroke="#5900a0" d="M13 15h1" />
<path stroke="#ffd83a" d="M14 15h1" />
<path stroke="#8f1b27" d="M15 15h1" />
<path stroke="#ffff0c" d="M16 15h1" />
<path stroke="#f3c414" d="M17 15h1" />
<path stroke="#f9ff03" d="M18 15h1" />
<path stroke="#ff9800" d="M19 15h1" />
<path stroke="#fee100" d="M20 15h1" />
<path stroke="#95ff00" d="M21 15h1" />
<path stroke="#adff2a" d="M22 15h1" />
<path stroke="#e2ff08" d="M23 15h1" />
<path stroke="#fffb00" d="M24 15h1" />
<path stroke="#ffad00" d="M25 15h1" />
<path stroke="#aedc00" d="M27 15h1" />
<path stroke="#d2edff" d="M28 15h1" />
<path stroke="#d9ffbd" d="M30 15h1" />
<path stroke="#ffaeff" d="M31 15h1" />
<path stroke="#fff8e8" d="M32 15h1" />
<path stroke="#9b122b" d="M0 16h1" />
<path stroke="#255b00" d="M1 16h1" />
<path stroke="#ffff23" d="M2 16h1" />
<path stroke="#151c00" d="M3 16h1" />
<path stroke="#644702" d="M4 16h1" />
<path stroke="#944901" d="M5 16h1" />
<path stroke="#510000" d="M6 16h1" />
<path stroke="#ffffca" d="M7 16h1" />
<path stroke="#eeff60" d="M9 16h1" />
<path stroke="#ffff02" d="M10 16h1" />
<path stroke="#fed900" d="M11 16h1" />
<path stroke="#c5dea4" d="M12 16h1" />
<path stroke="#f6ff9e" d="M13 16h1" />
<path stroke="#040000" d="M14 16h1" />
<path stroke="#3d9c31" d="M15 16h1" />
<path stroke="#697205" d="M16 16h1" />
<path stroke="#ffa252" d="M17 16h1" />
<path stroke="#796245" d="M18 16h1" />
<path stroke="#e9c500" d="M19 16h1" />
<path stroke="#ffef00" d="M20 16h1" />
<path stroke="#ffff05" d="M21 16h1" />
<path stroke="#ee7900" d="M22 16h1" />
<path stroke="#ffe300" d="M23 16h1" />
<path stroke="#ffc888" d="M24 16h1" />
<path stroke="#b6e400" d="M25 16h1" />
<path stroke="#ffe500" d="M26 16h1" />
<path stroke="#cfff00" d="M27 16h1" />
<path stroke="#ff7800" d="M28 16h1" />
<path stroke="#91ffb6" d="M29 16h1" />
<path stroke="#fffeff" d="M30 16h1" />
<path stroke="#ddffdd" d="M32 16h1" />
<path stroke="#2d7e08" d="M0 17h1" />
<path stroke="#630000" d="M2 17h1" />
<path stroke="#ffff88" d="M3 17h1" />
<path stroke="#6b8643" d="M4 17h1" />
<path stroke="#ffff39" d="M5 17h1" />
<path stroke="#646939" d="M8 17h1" />
<path stroke="#4f6301" d="M9 17h1" />
<path stroke="#00002b" d="M10 17h1" />
<path stroke="#a7e2a9" d="M12 17h1" />
<path stroke="#ffdb9a" d="M13 17h1" />
<path stroke="#ebdf00" d="M14 17h1" />
<path stroke="#e76f00" d="M16 17h1" />
<path stroke="#f8ffeb" d="M17 17h1" />
<path stroke="#ffdb00" d="M18 17h1" />
<path stroke="#adcbb8" d="M20 17h1" />
<path stroke="#ffb900" d="M21 17h1" />
<path stroke="#ff9c00" d="M22 17h1" />
<path stroke="#d5ff00" d="M23 17h1" />
<path stroke="#ffed13" d="M24 17h1" />
<path stroke="#d8e8ff" d="M25 17h1" />
<path stroke="#f9f200" d="M26 17h1" />
<path stroke="#ffb500" d="M27 17h1" />
<path stroke="#dbb5ff" d="M28 17h1" />
<path stroke="#bff8ac" d="M29 17h1" />
<path stroke="#315f20" d="M30 17h1" />
<path stroke="#ffd9ff" d="M31 17h1" />
<path stroke="#e3ffda" d="M32 17h1" />
<path stroke="#5f1f09" d="M33 17h1" />
<path stroke="#7c4300" d="M2 18h1" />
<path stroke="#ffff9c" d="M4 18h1" />
<path stroke="#0d2d1a" d="M5 18h1" />
<path stroke="#feffff" d="M6 18h1" />
<path stroke="#4e2e00" d="M8 18h1" />
<path stroke="#295c00" d="M9 18h1" />
<path stroke="#080000" d="M11 18h1" />
<path stroke="#ff9fd4" d="M12 18h1" />
<path stroke="#febe8c" d="M13 18h1" />
<path stroke="#f1f5ff" d="M14 18h1" />
<path stroke="#ffffc0" d="M15 18h1M28 21h1" />
<path stroke="#e3ffff" d="M16 18h1" />
<path stroke="#ff9eb6" d="M17 18h1" />
<path stroke="#e1d9ff" d="M18 18h1" />
<path stroke="#d4aa61" d="M19 18h1" />
<path stroke="#c5b2a6" d="M21 18h1" />
<path stroke="#fdf400" d="M22 18h1" />
<path stroke="#ff9ed5" d="M23 18h1" />
<path stroke="#ffc1ff" d="M24 18h1" />
<path stroke="#fbedaa" d="M25 18h1" />
<path stroke="#dab107" d="M26 18h1" />
<path stroke="#f5bbc5" d="M27 18h1" />
<path stroke="#f9de70" d="M28 18h1" />
<path stroke="#d6f3e7" d="M29 18h1" />
<path stroke="#f6ff8f" d="M30 18h1" />
<path stroke="#5e8f00" d="M5 19h1" />
<path stroke="#181800" d="M7 19h1" />
<path stroke="#9b970c" d="M8 19h1" />
<path stroke="#aa0000" d="M10 19h1" />
<path stroke="#f2ffff" d="M11 19h1" />
<path stroke="#ffc0e4" d="M12 19h1" />
<path stroke="#fffdd5" d="M13 19h1" />
<path stroke="#f8ff35" d="M14 19h1" />
<path stroke="#fcd8e6" d="M15 19h1" />
<path stroke="#ffd7b6" d="M16 19h1" />
<path stroke="#fff3c2" d="M17 19h1" />
<path stroke="#e7a695" d="M18 19h1" />
<path stroke="#eec0ff" d="M19 19h1" />
<path stroke="#c9dd66" d="M20 19h1" />
<path stroke="#acba39" d="M21 19h1" />
<path stroke="#ccb287" d="M22 19h1" />
<path stroke="#b2ff05" d="M24 19h1" />
<path stroke="#aca675" d="M25 19h1" />
<path stroke="#f9f98b" d="M26 19h1" />
<path stroke="#e9fff6" d="M27 19h1" />
<path stroke="#b543e5" d="M28 19h1" />
<path stroke="#490004" d="M30 19h1" />
<path stroke="#e4ffff" d="M31 19h1" />
<path stroke="#392b05" d="M13 20h1" />
<path stroke="#b4d3ff" d="M15 20h1" />
<path stroke="#ffffb9" d="M16 20h1" />
<path stroke="#ffa4e4" d="M17 20h1" />
<path stroke="#30fef8" d="M18 20h1" />
<path stroke="#a0ffa9" d="M19 20h1" />
<path stroke="#fffdb0" d="M20 20h1" />
<path stroke="#d9bbe0" d="M21 20h1" />
<path stroke="#fffff4" d="M22 20h1" />
<path stroke="#86fff2" d="M23 20h1" />
<path stroke="#a2feda" d="M24 20h1" />
<path stroke="#fabbff" d="M25 20h1" />
<path stroke="#f7c3c2" d="M26 20h1" />
<path stroke="#f0d699" d="M27 20h1" />
<path stroke="#e1ffca" d="M28 20h1" />
<path stroke="#a42d08" d="M29 20h1" />
<path stroke="#3a2400" d="M31 20h1" />
<path stroke="#c6faff" d="M14 21h1" />
<path stroke="#003a00" d="M16 21h1" />
<path stroke="#477600" d="M18 21h1" />
<path stroke="#e7ffff" d="M19 21h1" />
<path stroke="#e7b0ff" d="M20 21h1" />
<path stroke="#aad1ed" d="M21 21h1" />
<path stroke="#ffc3fb" d="M22 21h1" />
<path stroke="#fffff8" d="M23 21h1" />
<path stroke="#f39ae2" d="M24 21h1" />
<path stroke="#d5ffbe" d="M25 21h1" />
<path stroke="#e7e7ff" d="M26 21h1" />
<path stroke="#dfffff" d="M27 21h1" />
<path stroke="#ffffd3" d="M30 21h1" />
<path stroke="#286b00" d="M17 22h1" />
<path stroke="#e4ffe1" d="M18 22h1" />
<path stroke="#4c0000" d="M19 22h1" />
<path stroke="#ffffd0" d="M20 22h1" />
<path stroke="#710000" d="M21 22h1" />
<path stroke="#006800" d="M22 22h1" />
<path stroke="#202f00" d="M23 22h1" />
<path stroke="#ffe3ed" d="M25 22h1" />
<path stroke="#412900" d="M26 22h1" />
<path stroke="#93531f" d="M28 22h1" />
<path stroke="#680b00" d="M18 23h1" />
<path stroke="#ffffe7" d="M20 23h1" />
<path stroke="#f5ffff" d="M21 23h1" />
<path stroke="#1f1200" d="M22 23h1" />
<path stroke="#1f0000" d="M24 23h1" />
<path stroke="#691c02" d="M27 23h1" />
</svg>